<?xml version="1.0" encoding="utf-8"?>
<!-- Generator: Adobe Illustrator 23.0.1, SVG Export Plug-In . SVG Version: 6.00 Build 0)  -->
<svg version="1.1" id="Layer_1" xmlns="http://www.w3.org/2000/svg" xmlns:xlink="http://www.w3.org/1999/xlink" x="0px" y="0px"
	 viewBox="0 0 595.28 841.89" style="enable-background:new 0 0 595.28 841.89;" xml:space="preserve">
<g>
	<path d="M443.44,273.89H151.28c-26.08,0-47.28,21.2-47.28,47.28v199.68c0,26.08,21.2,47.28,47.28,47.28h292.08
		c26.08,0,47.28-21.2,47.28-47.28v-199.6C490.72,295.17,469.52,273.89,443.44,273.89L443.44,273.89z M469.12,520.85
		c0,14.16-11.52,25.68-25.68,25.68H151.28c-14.16,0-25.68-11.52-25.68-25.68v-199.6c0-14.16,11.52-25.68,25.68-25.68h292.08
		c14.16,0,25.68,11.52,25.68,25.68v199.6H469.12z M469.12,520.85"/>
	<path d="M347.84,418.53l94.56-84.8c4.4-4,4.8-10.8,0.8-15.28c-4-4.4-10.8-4.8-15.28-0.8l-130.4,117.04l-25.44-22.72
		c-0.08-0.08-0.16-0.16-0.16-0.24c-0.56-0.56-1.12-1.04-1.76-1.52l-103.52-92.64c-4.48-4-11.28-3.6-15.28,0.88
		c-4,4.48-3.6,11.28,0.88,15.28l95.68,85.52l-95.28,89.2c-4.32,4.08-4.56,10.88-0.48,15.28c2.16,2.24,5.04,3.44,7.92,3.44
		c2.64,0,5.28-0.96,7.36-2.88l96.72-90.48l26.24,23.44c2.08,1.84,4.64,2.72,7.2,2.72c2.56,0,5.2-0.96,7.2-2.8l26.96-24.16
		l96.16,91.36c2.08,2,4.8,2.96,7.44,2.96c2.88,0,5.68-1.12,7.84-3.36c4.08-4.32,3.92-11.2-0.4-15.28L347.84,418.53z M347.84,418.53"
		/>
</g>
</svg>
