<?xml version="1.0" encoding="utf-8"?>
<!-- Generator: Adobe Illustrator 23.0.1, SVG Export Plug-In . SVG Version: 6.00 Build 0)  -->
<svg version="1.1" id="Layer_1" xmlns="http://www.w3.org/2000/svg" xmlns:xlink="http://www.w3.org/1999/xlink" x="0px" y="0px"
	 viewBox="0 0 595.28 841.89" style="enable-background:new 0 0 595.28 841.89;" xml:space="preserve">
<style type="text/css">
	.st0{clip-path:url(#SVGID_2_);}
</style>
<g>
	<g>
		<defs>
			<rect id="SVGID_1_" x="117" y="240.89" width="360.96" height="361.92"/>
		</defs>
		<clipPath id="SVGID_2_">
			<use xlink:href="#SVGID_1_"  style="overflow:visible;"/>
		</clipPath>
		<path class="st0" d="M474.6,583.45l-87.68-87.68c23.52-27.04,37.76-62.32,37.76-100.88c0-84.88-69.04-153.84-153.84-153.84
			c-84.88,0-153.84,69.04-153.84,153.84s69.04,153.84,153.84,153.84c38.56,0,73.84-14.24,100.88-37.76l87.68,87.68
			c2.08,2.08,4.88,3.2,7.6,3.2c2.72,0,5.52-1.04,7.6-3.2C478.76,594.49,478.76,587.61,474.6,583.45L474.6,583.45z M138.52,394.89
			c0-72.96,59.36-132.24,132.24-132.24c72.96,0,132.24,59.36,132.24,132.24s-59.28,132.32-132.24,132.32
			C197.88,527.21,138.52,467.85,138.52,394.89L138.52,394.89z M138.52,394.89"/>
	</g>
</g>
</svg>
