<?xml version="1.0" encoding="utf-8"?>
<!-- Generator: Adobe Illustrator 23.0.1, SVG Export Plug-In . SVG Version: 6.00 Build 0)  -->
<svg version="1.1" id="Layer_1" xmlns="http://www.w3.org/2000/svg" xmlns:xlink="http://www.w3.org/1999/xlink" x="0px" y="0px"
	 viewBox="0 0 595.3 841.9" style="enable-background:new 0 0 595.3 841.9;" xml:space="preserve">
<style type="text/css">
	.st0{fill:#FFFFFF;}
</style>
<path class="st0" d="M430.1,277.5c-1.2-1-2.9-1.3-4.3-0.6L166.2,397.5c-1.4,0.6-2.3,2-2.3,3.6s0.9,3,2.2,3.6l73.5,36.1
	c1.4,0.7,2.9,0.5,4.2-0.4l71.4-53.4l-56.1,57.7c-0.8,0.8-1.2,2-1.1,3.1l5.6,72.7c0.1,1.6,1.2,3,2.7,3.5c0.4,0.1,0.8,0.2,1.3,0.2
	c1.1,0,2.3-0.5,3-1.4l39-45.2l48.2,23c1,0.5,2.3,0.5,3.3,0c1.1-0.5,1.9-1.4,2.2-2.5l68-216.5C431.7,280.2,431.3,278.6,430.1,277.5
	L430.1,277.5z"/>
</svg>
