<?xml version="1.0" standalone="no"?>
<!DOCTYPE svg PUBLIC "-//W3C//DTD SVG 1.1//EN" "http://www.w3.org/Graphics/SVG/1.1/DTD/svg11.dtd" >
<svg>
<metadata>
Created by FontForge 20090914 at Tue Feb 19 06:14:36 2019
 By www-data
Copyright 1990-1998 Bitstream Inc.  All rights reserved.
</metadata>
<defs>
<font id="AachenBT-Bold" horiz-adv-x="1024" >
  <font-face 
    font-family="Aachen BT"
    font-weight="700"
    font-stretch="condensed"
    units-per-em="2048"
    panose-1="2 4 9 6 3 7 6 5 2 4"
    ascent="1556"
    descent="-492"
    x-height="1118"
    cap-height="1522"
    bbox="-352 -485.002 2460 2034"
    underline-thickness="270"
    underline-position="-98"
    unicode-range="U+0020-U+F002"
  />
<missing-glyph horiz-adv-x="1229" 
d="M102 -362v1806h1024v-1806h-1024zM217 -248h795v1577h-795v-1577z" />
    <glyph glyph-name=".notdef" horiz-adv-x="1229" 
d="M102 -362v1806h1024v-1806h-1024zM217 -248h795v1577h-795v-1577z" />
    <glyph glyph-name="space" unicode=" " horiz-adv-x="682" 
 />
    <glyph glyph-name="exclam" unicode="!" horiz-adv-x="782" 
d="M186 186c0 55.333 20 103.332 60 143.999s87.667 61 143 61c56.667 0 105 -20 145 -60s60 -88.333 60 -145c0 -56 -20.333 -104 -61 -144s-88.667 -60 -144 -60c-54.667 0 -102.167 20.333 -142.5 61s-60.5 88.334 -60.5 143.001zM287 476.999l-140 754.002
c-4 20 -7 39.667 -9 59s-3 37 -3 53c0 70 21.167 122.333 63.5 157s105.833 52 190.5 52c85.333 0 149.333 -17.333 192 -52s64 -87 64 -157c0 -10.667 -1.16699 -25.834 -3.5 -45.501s-5.83301 -41.834 -10.5 -66.501l-139 -754h-205z" />
    <glyph glyph-name="quotedbl" unicode="&#x22;" horiz-adv-x="758" 
d="M690 1440v-563h-260v563h260zM326 1440v-563h-258v563h258z" />
    <glyph glyph-name="numbersign" unicode="#" horiz-adv-x="1575" 
d="M946 834h-239l-78 -213h239zM938 1470l-129 -366h227l129 366h289l-129 -366h256l-100 -270h-252l-76 -213h258l-100 -271h-254l-131 -366h-289l131 366h-227l-131 -366h-289l131 366h-258l100 271h254l74 213h-258l98 270h258l129 366h289z" />
    <glyph glyph-name="dollar" unicode="$" horiz-adv-x="1366" 
d="M133 152l-0.00292969 407.003h459v-82c0 -61.333 7.33301 -104 22 -128s39.334 -36 74.001 -36c32 0 56.333 11.167 73 33.5s25 54.166 25 95.499c0 76 -72.333 135 -217 177c-32 9.33301 -56.333 16.666 -73 21.999c-157.333 48 -260.833 101.667 -310.5 161
s-74.5 145.666 -74.5 258.999c0 141.333 31.833 248 95.5 320s166.167 117.667 307.5 137v114h356v-125c70.667 -15.333 135.334 -34.666 194.001 -57.999s113 -51 163 -83v-367h-445v68c0 46.667 -8.16699 82.167 -24.5 106.5s-40.166 36.5 -71.499 36.5
c-32 0 -56 -8.66699 -72 -26s-24 -43.333 -24 -78c0 -66 75 -119.667 225 -161l39 -11c172.667 -48.667 284.5 -105.334 335.5 -170.001s76.5 -165 76.5 -301c0 -133.333 -32.167 -237.333 -96.5 -312s-164.166 -123.667 -299.499 -147v-127h-356v129
c-88 15.333 -163.333 35 -226 59s-114.334 53 -155.001 87z" />
    <glyph glyph-name="percent" unicode="%" horiz-adv-x="1745" 
d="M1317 494l-0.000976562 -270.998c0 -25.333 3.83301 -43.166 11.5 -53.499s20.834 -15.5 39.501 -15.5c19.333 0 33 5.16699 41 15.5s12 28.166 12 53.499v271c0 25.333 -4 43.166 -12 53.499s-21.667 15.5 -41 15.5c-18 0 -31 -5.33301 -39 -16s-12 -28.334 -12 -53.001
zM1051 469.002c0 98 22.833 165.833 68.5 203.5s128.5 56.5 248.5 56.5c120.667 0 204.167 -18.667 250.5 -56s69.5 -105.333 69.5 -204v-221c0 -98 -23.333 -165.833 -70 -203.5s-130 -56.5 -250 -56.5s-202.833 18.667 -248.5 56s-68.5 105.333 -68.5 204v221z
M321.999 1296l0.000976562 -270.002c0 -27.333 3.66699 -45.833 11 -55.5s20.666 -14.5 39.999 -14.5c18.667 0 31.834 5.33301 39.501 16s11.5 28.667 11.5 54v270c0 26.667 -4 45.334 -12 56.001s-21 16 -39 16c-18.667 0 -31.834 -5.16699 -39.501 -15.5
s-11.5 -29.166 -11.5 -56.499zM55 1272c0 99.333 23.167 167.833 69.5 205.5s129.166 56.5 248.499 56.5s202 -18.667 248 -56s69 -106 69 -206v-221c0 -99.333 -22.833 -167.5 -68.5 -204.5s-128.5 -55.5 -248.5 -55.5c-119.333 0 -202.166 18.833 -248.499 56.5
s-69.5 105.5 -69.5 203.5v221zM1462 1534l-878 -1534h-305l880 1534h303z" />
    <glyph glyph-name="ampersand" unicode="&#x26;" horiz-adv-x="1321" 
d="M741 336v323h-10c-65.333 0 -110 -11.333 -134 -34s-36 -65.667 -36 -129c0 -58.667 10.667 -100 32 -124s57 -36 107 -36h41zM1196 0l-616.004 -0.00292969c-95.333 0 -164.666 3.16699 -207.999 9.5s-80.666 16.833 -111.999 31.5c-62 28.667 -108.833 76 -140.5 142
s-47.5 149 -47.5 249c0 102.667 16.333 185.334 49 248.001s82.334 106.334 149.001 131.001c-62 25.333 -108.167 63.5 -138.5 114.5s-45.5 115.833 -45.5 194.5c0 140.667 44.833 247.834 134.5 321.501s218.834 110.5 387.501 110.5c98 0 196 -12 294 -36
s196 -60.333 294 -109v-297h-454c-1.33301 40 -9.5 69.833 -24.5 89.5s-37.167 29.5 -66.5 29.5s-51.333 -11.667 -66 -35s-22 -58 -22 -104c0 -54 11.5 -92.167 34.5 -114.5s62.167 -33.5 117.5 -33.5h26v82h455v-82h74v-283h-74v-659z" />
    <glyph glyph-name="quotesingle" unicode="'" horiz-adv-x="393" 
d="M326 1440v-563h-258v563h258z" />
    <glyph glyph-name="parenleft" unicode="(" horiz-adv-x="846" 
d="M555 1647l246 -156.001c-80 -141.333 -139.333 -280.333 -178 -417s-58 -276.334 -58 -419.001c0 -140.667 19.333 -279.167 58 -415.5s98 -275.5 178 -417.5l-244 -158c-148 160.667 -258.333 322.834 -331 486.501s-109 331.834 -109 504.501
c0 174.667 36 343.5 108 506.5s182 324.833 330 485.5z" />
    <glyph glyph-name="parenright" unicode=")" horiz-adv-x="846" 
d="M291 1647c148.667 -162.667 258.833 -325.167 330.5 -487.5s107.5 -330.5 107.5 -504.5c0 -172 -36.167 -339.667 -108.5 -503s-182.833 -326 -331.5 -488l-244 158c79.333 141.333 138.5 280.5 177.5 417.5s58.5 275.5 58.5 415.5s-19.167 278.167 -57.5 414.5
s-97.833 276.833 -178.5 421.5z" />
    <glyph glyph-name="asterisk" unicode="*" horiz-adv-x="854" 
d="M334 741v252l-228 -123l-79 152l217 125l-217 125l79 151l228 -120v249h182v-249l223 120l86 -151l-223 -125l223 -125l-86 -152l-223 123v-252h-182z" />
    <glyph glyph-name="plus" unicode="+" horiz-adv-x="1706" 
d="M993 1221v-473h459v-273h-459v-475h-280v475h-459v273h459v473h280z" />
    <glyph glyph-name="comma" unicode="," horiz-adv-x="682" 
d="M201 -182c26 33.333 48.999 66.5 68.999 99.5s37 65.167 51 96.5c-56 3.33301 -100.667 20.5 -134 51.5s-50 71.167 -50 120.5c0 54.667 20 102.167 60 142.5s87.667 60.5 143 60.5c60 0 109.167 -20.667 147.5 -62s57.5 -95 57.5 -161
c0 -66.667 -21.167 -135.167 -63.5 -205.5s-107.166 -144.5 -194.499 -222.5z" />
    <glyph glyph-name="hyphen" unicode="-" horiz-adv-x="782" 
d="M90 393v369h602v-369h-602z" />
    <glyph glyph-name="period" unicode="." horiz-adv-x="682" 
d="M137 184c0 55.333 20 103.333 60 144s87.667 61 143 61c56 0 104.167 -20 144.5 -60s60.5 -88.333 60.5 -145c0 -56 -20.167 -103.667 -60.5 -143s-88.5 -59 -144.5 -59c-54.667 0 -102.167 20 -142.5 60s-60.5 87.333 -60.5 142z" />
    <glyph glyph-name="slash" unicode="/" horiz-adv-x="664" 
d="M254 -190h-336l442 1712h338z" />
    <glyph glyph-name="zero" unicode="0" horiz-adv-x="1366" 
d="M776 451v627.999c0 56 -7.33301 95.333 -22 118s-38.667 34 -72 34s-57.333 -11.333 -72 -34s-22 -62 -22 -118v-628c0 -55.333 7.16699 -94.166 21.5 -116.499s38.5 -33.5 72.5 -33.5c33.333 0 57.333 11.5 72 34.5s22 61.5 22 115.5zM115 998.999
c0 210 41.333 354.667 124 434s230.334 119 443.001 119s360.667 -39.667 444 -119s125 -224 125 -434v-473c0 -208 -41.5 -351.833 -124.5 -431.5s-231.167 -119.5 -444.5 -119.5c-212.667 0 -360.334 39.667 -443.001 119s-124 223.333 -124 432v473z" />
    <glyph glyph-name="one" unicode="1" horiz-adv-x="1366" 
d="M444 1122c0 42.667 -4.33105 74.1689 -12.998 94.502s-23.334 36.166 -44.001 47.499v266h533v-1120c0 -45.333 4 -77.333 12 -96s22.333 -33.334 43 -44.001v-270h-588v270c21.333 11.333 36.166 27 44.499 47s12.5 51 12.5 93v712z" />
    <glyph glyph-name="two" unicode="2" horiz-adv-x="1366" 
d="M113 0l-0.000976562 342c0 131.333 22.167 230 66.5 296s137.5 134 279.5 204l102 48c148.667 69.333 223 140 223 212c0 38 -8.66699 68.333 -26 91s-40 34 -68 34c-32.667 0 -57.5 -12.333 -74.5 -37s-25.5 -60.334 -25.5 -107.001v-102h-447v412
c82.667 53.333 170.167 92.833 262.5 118.5s194.166 38.5 305.499 38.5c186.667 0 324.834 -39 414.501 -117s134.5 -198.667 134.5 -362c0 -75.333 -9.5 -138.666 -28.5 -189.999s-49.833 -98 -92.5 -140c-34.667 -33.333 -134 -91.333 -298 -174l-102 -51
c-73.333 -38 -119.666 -68.5 -138.999 -91.5s-29 -51.167 -29 -84.5v-14h78c52 0 86.833 9.66699 104.5 29s27.5 59.333 29.5 120h446v-475h-1116z" />
    <glyph glyph-name="three" unicode="3" horiz-adv-x="1366" 
d="M123 131l0.000976562 421.998h455v-94c0 -60.667 7 -102.167 21 -124.5s37.667 -33.5 71 -33.5c32.667 0 57.5 13.5 74.5 40.5s25.5 66.833 25.5 119.5c0 64 -13 109 -39 135s-76.333 39 -151 39h-140v297h140c74 0 122.833 11.5 146.5 34.5s35.5 65.5 35.5 127.5
c0 42 -8.66699 74.333 -26 97s-42 34 -74 34c-28.667 0 -49.834 -11.167 -63.501 -33.5s-20.5 -56.166 -20.5 -101.499v-76h-455v366c75.333 56 161.5 98.333 258.5 127s201.833 43 314.5 43c178 0 312.333 -36.5 403 -109.5s136 -181.167 136 -324.5
c0 -84.667 -16.833 -152.667 -50.5 -204s-85.167 -87.666 -154.5 -108.999c72.667 -24 127.334 -65.5 164.001 -124.5s55 -135.5 55 -229.5c0 -164.667 -44.833 -284.834 -134.5 -360.501s-231.834 -113.5 -426.501 -113.5c-120 0 -226.333 12.833 -319 38.5
s-174.667 64.834 -246 117.501z" />
    <glyph glyph-name="four" unicode="4" horiz-adv-x="1366" 
d="M721 684v389l-256 -389h256zM635 0v269.999c26.667 6.66699 46 17.334 58 32.001s18 35.667 18 63v8h-619v366l529 791h544v-846h103v-311h-102c0.666992 -31.333 5.5 -54.5 14.5 -69.5s24.5 -26.167 46.5 -33.5v-270h-592z" />
    <glyph glyph-name="five" unicode="5" horiz-adv-x="1366" 
d="M154 154l0.00292969 421h452v-118c0 -54.667 7.33301 -94 22 -118s38.667 -36 72 -36c28 0 49.333 10.167 64 30.5s22 49.833 22 88.5v43v141c0 45.333 -7.66699 79.166 -23 101.499s-39 33.5 -71 33.5c-18 0 -33.833 -4.83301 -47.5 -14.5s-26.5 -25.167 -38.5 -46.5
h-452v850h1073v-416h-446c-3.33301 36 -13.333 61.667 -30 77s-43 23 -79 23h-66v-208c32 13.333 67.167 23.5 105.5 30.5s79.166 10.5 122.499 10.5c154 0 264.167 -39.833 330.5 -119.5s99.5 -216.167 99.5 -409.5c0 -195.333 -42.333 -334.333 -127 -417
s-225.334 -124 -422.001 -124c-106.667 0 -206.834 14.833 -300.501 44.5s-180.5 73.834 -260.5 132.501z" />
    <glyph glyph-name="six" unicode="6" horiz-adv-x="1366" 
d="M588 541v-90.001c0 -55.333 7.16699 -94.166 21.5 -116.499s38.5 -33.5 72.5 -33.5c33.333 0 57.333 11.5 72 34.5s22 61.5 22 115.5v90c0 54 -7.33301 92.333 -22 115s-38.667 34 -72 34s-57.333 -11.333 -72 -34s-22 -61 -22 -115zM115 998.999
c0 205.333 40.333 348.833 121 430.5s219 122.5 415 122.5c110.667 0 212.5 -13.667 305.5 -41s178.833 -69 257.5 -125v-335h-438v28c0 56 -7.33301 95.333 -22 118s-38.667 34 -72 34s-57.333 -11.333 -72 -34s-22 -62 -22 -118v-135c34.667 14 72.667 24.333 114 31
s85.333 10 132 10c140.667 0 245.334 -40 314.001 -120s103 -201.667 103 -365c0 -194 -42.333 -330 -127 -408s-232 -117 -442 -117c-212.667 0 -360.334 39.667 -443.001 119s-124 223.333 -124 432v473z" />
    <glyph glyph-name="seven" unicode="7" horiz-adv-x="1366" 
d="M289 0l440 1204h-22c-62 0 -103.167 -10.5 -123.5 -31.5s-30.5 -66.5 -30.5 -136.5v-129h-391v623h1091v-277l-460 -1253h-504z" />
    <glyph glyph-name="eight" unicode="8" horiz-adv-x="1366" 
d="M307 799c-67.333 28 -115.166 65.499 -143.499 112.499s-42.5 113.167 -42.5 198.5c0 154 44.5 266.167 133.5 336.5s231.5 105.5 427.5 105.5c196.667 0 339.334 -35 428.001 -105s133 -182.333 133 -337c0 -86 -13.833 -152.333 -41.5 -199s-75.167 -84 -142.5 -112
c71.333 -27.333 124.333 -70.166 159 -128.499s52 -134.5 52 -228.5c0 -157.333 -48.333 -274.5 -145 -351.5s-244.334 -115.5 -443.001 -115.5s-346.334 38.5 -443.001 115.5s-145 194.167 -145 351.5c0 94 17.5 170 52.5 228s88.5 101 160.5 129zM588 497.999v-47.001
c0 -55.333 7.16699 -94.166 21.5 -116.499s38.5 -33.5 72.5 -33.5c33.333 0 57.333 11.5 72 34.5s22 61.5 22 115.5v47c0 54 -7.33301 92.333 -22 115s-38.667 34 -72 34s-57.333 -11.333 -72 -34s-22 -61 -22 -115zM776 1079c0 54.667 -7.33301 93.667 -22 117
s-38.667 35 -72 35s-57.333 -11.333 -72 -34s-22 -62 -22 -118c0 -54.667 7.16699 -93.167 21.5 -115.5s38.5 -33.5 72.5 -33.5s58.167 11 72.5 33s21.5 60.667 21.5 116z" />
    <glyph glyph-name="nine" unicode="9" horiz-adv-x="1366" 
d="M776 971v105.999c0 54 -7.33301 92.5 -22 115.5s-38.667 34.5 -72 34.5s-57.333 -11.5 -72 -34.5s-22 -61.5 -22 -115.5v-106c0 -55.333 7.16699 -94.166 21.5 -116.499s38.5 -33.5 72.5 -33.5c33.333 0 57.333 11.5 72 34.5s22 61.5 22 115.5zM1251 527.999
c0 -204.667 -40.666 -348.334 -121.999 -431.001s-220 -124 -416 -124c-110 0 -212.167 13 -306.5 39s-179.833 64.333 -256.5 115v330h438v-21c0 -48.667 7.5 -84 22.5 -106s38.833 -33 71.5 -33c34 0 58.167 11.333 72.5 34s21.5 62 21.5 118v124
c-32 -17.333 -67.333 -30.166 -106 -38.499s-82.334 -12.5 -131.001 -12.5c-144.667 0 -251.5 41.667 -320.5 125s-103.5 212.333 -103.5 387c0 189.333 42.5 323 127.5 401s231.5 117 439.5 117c213.333 0 361.5 -39.667 444.5 -119s124.5 -223.333 124.5 -432v-473z" />
    <glyph glyph-name="colon" unicode=":" horiz-adv-x="682" 
d="M137 184c0 55.333 20 103.333 60 144s87.667 61 143 61c56 0 104.167 -20 144.5 -60s60.5 -88.333 60.5 -145c0 -56 -20.167 -103.667 -60.5 -143s-88.5 -59 -144.5 -59c-54.667 0 -102.167 20 -142.5 60s-60.5 87.333 -60.5 142zM137 793c0 55.333 20 103.167 60 143.5
s87.667 60.5 143 60.5c56 0 104.167 -20 144.5 -60s60.5 -88 60.5 -144s-20.167 -103.833 -60.5 -143.5s-88.5 -59.5 -144.5 -59.5c-54.667 0 -102.167 20 -142.5 60s-60.5 87.667 -60.5 143z" />
    <glyph glyph-name="semicolon" unicode=";" horiz-adv-x="682" 
d="M201 -182c26 33.333 48.999 66.5 68.999 99.5s37 65.167 51 96.5c-56 3.33301 -100.667 20.5 -134 51.5s-50 71.167 -50 120.5c0 54.667 20 102.167 60 142.5s87.667 60.5 143 60.5c60 0 109.167 -20.667 147.5 -62s57.5 -95 57.5 -161
c0 -66.667 -21.167 -135.167 -63.5 -205.5s-107.166 -144.5 -194.499 -222.5zM136.999 793c0 55.333 20 103.167 60 143.5s87.667 60.5 143 60.5c56 0 104.167 -20 144.5 -60s60.5 -88 60.5 -144s-20.167 -103.833 -60.5 -143.5s-88.5 -59.5 -144.5 -59.5
c-54.667 0 -102.167 20 -142.5 60s-60.5 87.667 -60.5 143z" />
    <glyph glyph-name="less" unicode="&#x3c;" horiz-adv-x="1706" 
d="M1442 938l-801 -328l801 -327v-299l-1178 487v281l1178 487v-301z" />
    <glyph glyph-name="equal" unicode="=" horiz-adv-x="1706" 
d="M1452 512v-272h-1198v272h1198zM1452 983v-272h-1198v272h1198z" />
    <glyph glyph-name="greater" unicode="&#x3e;" horiz-adv-x="1706" 
d="M1442 752v-281l-1178 -487v299l801 327l-801 328v301z" />
    <glyph glyph-name="question" unicode="?" horiz-adv-x="1270" 
d="M356 184c0 55.333 20.333 103.333 61 144s88.667 61 144 61c56 0 103.833 -20 143.5 -60s59.5 -88.333 59.5 -145c0 -56 -20 -103.667 -60 -143s-87.667 -59 -143 -59c-54.667 0 -102.5 20 -143.5 60s-61.5 87.333 -61.5 142zM324 481l-0.00195312 115.005
c0 149.333 66 261.666 198 336.999l13 7c74.667 43.333 122.334 77.166 143.001 101.499s31 51.833 31 82.5c0 31.333 -8.83301 56.666 -26.5 75.999s-40.5 29 -68.5 29c-29.333 0 -52 -11.5 -68 -34.5s-24 -55.833 -24 -98.5v-90h-438v387
c76.667 54 160.834 94 252.501 120s195.167 39 310.5 39c178 0 312.333 -37.5 403 -112.5s136 -186.833 136 -335.5c0 -68.667 -6.66699 -124.334 -20 -167.001s-35.333 -81.334 -66 -116.001c-27.333 -31.333 -82.333 -70 -165 -116l-69 -39
c-42.667 -26 -70.667 -51.167 -84 -75.5s-20 -60.833 -20 -109.5h-438z" />
    <glyph glyph-name="at" unicode="@" horiz-adv-x="2048" 
d="M1241 911l49 82.002h242l-156 -627c-1.33301 -8 -2.33301 -14.167 -3 -18.5s-1 -8.16602 -1 -11.499c0 -16 4.16699 -28.167 12.5 -36.5s19.833 -12.5 34.5 -12.5c85.333 0 162.333 47.333 231 142s103 205 103 331c0 157.333 -58.167 284.333 -174.5 381
s-270.5 145 -462.5 145c-94.667 0 -183.334 -11.833 -266.001 -35.5s-157.667 -58.834 -225 -105.501c-102.667 -72 -182 -161.667 -238 -269s-84 -224 -84 -350c0 -196 66.5 -352.167 199.5 -468.5s311.5 -174.5 535.5 -174.5c106.667 0 209.167 15.667 307.5 47
s191.166 78 278.499 140l115 -160c-109.333 -81.333 -223.333 -141.666 -342 -180.999s-245.667 -59 -381 -59c-125.333 0 -243.666 18.167 -354.999 54.5s-209.333 88.5 -294 156.5c-99.333 79.333 -173.666 172.333 -222.999 279s-74 226.667 -74 360
c0 117.333 18.5 228.166 55.5 332.499s91.5 199.166 163.5 284.499c99.333 118 219.833 208.5 361.5 271.5s295.5 94.5 461.5 94.5c257.333 0 466 -68.667 626 -206s240 -315 240 -533c0 -114 -22.667 -218.833 -68 -314.5s-110.666 -176.5 -195.999 -242.5
c-46.667 -36.667 -97.834 -64.667 -153.501 -84s-113.834 -29 -174.501 -29c-72.667 0 -128.167 12.667 -166.5 38s-60.5 63.666 -66.5 114.999c-39.333 -52.667 -81.833 -91 -127.5 -115s-99.5 -36 -161.5 -36c-114 0 -199.833 29.333 -257.5 88s-86.5 146 -86.5 262
c0 164.667 47.833 301.834 143.5 411.501s214.5 164.5 356.5 164.5c49.333 0 92.833 -9.33301 130.5 -28s67.834 -46.334 90.501 -83.001zM1126 494.002l47 195c-4.66699 44.667 -18.667 79.5 -42 104.5s-53.666 37.5 -90.999 37.5c-63.333 0 -119 -38.833 -167 -116.5
s-72 -169.167 -72 -274.5c0 -48 10.167 -85.167 30.5 -111.5s49.166 -39.5 86.499 -39.5c48 0 91 18.5 129 55.5s64.333 86.833 79 149.5z" />
    <glyph glyph-name="A" unicode="A" horiz-adv-x="1339" 
d="M553 664h158l-86 540zM53 0v270c14 5.33301 26.833 19 38.5 41s20.834 50 27.501 84l205 1127h671l232 -1127c8 -34.667 18.333 -62.834 31 -84.501s26.667 -35.167 42 -40.5v-270h-593v270c15.333 5.33301 27.666 15.333 36.999 30s14 32 14 52
c0 3.33301 -1.16699 9.83301 -3.5 19.5s-4.16602 16.834 -5.49902 21.501h-231c-0.666992 -4.66699 -1.83398 -12.334 -3.50098 -23.001s-2.5 -18.667 -2.5 -24c0 -22.667 5.5 -40.167 16.5 -52.5s27.833 -20.166 50.5 -23.499l1 -270h-527z" />
    <glyph glyph-name="B" unicode="B" horiz-adv-x="1360" 
d="M609 934c4.66699 -0.666992 10.501 -1.16699 17.501 -1.5s17.167 -0.5 30.5 -0.5c51.333 0 89.166 11.167 113.499 33.5s36.5 56.833 36.5 103.5c0 48 -11.667 83.833 -35 107.5s-58 35.5 -104 35.5c-26 0 -46 -0.666992 -60 -2zM608.001 318
c6 -1.33301 12.333 -2.16602 19 -2.49902s16.667 -0.5 30 -0.5c54 0 93.833 13.667 119.5 41s38.5 69.666 38.5 126.999c0 56 -14.5 97.333 -43.5 124s-73.833 40 -134.5 40h-29v-329zM88.001 0l0.00195312 269.998c20.667 10.667 35 25.834 43 45.501s12 51.167 12 94.5
v706c0 43.333 -4 74.666 -12 93.999s-22.333 34.333 -43 45v267h674c189.333 0 322.666 -30.167 399.999 -90.5s116 -162.166 116 -305.499c0 -88.667 -21 -161.167 -63 -217.5s-101.667 -92.166 -179 -107.499c89.333 -17.333 156.166 -56 200.499 -116
s66.5 -141.667 66.5 -245c0 -158.667 -40 -271.667 -120 -339s-219 -101 -417 -101h-678z" />
    <glyph glyph-name="C" unicode="C" horiz-adv-x="1294" 
d="M1210 1384l-0.00195312 -421.003h-456v116c0 54.667 -7 93.334 -21 116.001s-37 34 -69 34c-32.667 0 -56 -11 -70 -33s-21 -61 -21 -117v-633c0 -55.333 7 -94 21 -116s37.333 -33 70 -33s55.834 11 69.501 33s20.5 60.667 20.5 116v191h456v-508
c-68 -54 -148.667 -94.167 -242 -120.5s-202.333 -39.5 -327 -39.5c-198.667 0 -338.834 40.333 -420.501 121s-122.5 221.334 -122.5 422.001v496c0 198 40.5 338.167 121.5 420.5s216.833 123.5 407.5 123.5c114.667 0 221.334 -14.167 320.001 -42.5
s186.334 -70.166 263.001 -125.499z" />
    <glyph glyph-name="D" unicode="D" horiz-adv-x="1358" 
d="M74 0v270c20 10.667 34.167 25.834 42.5 45.501s12.5 51.167 12.5 94.5v706c0 43.333 -4.16699 74.666 -12.5 93.999s-22.5 34.333 -42.5 45v267h581c237.333 0 397.5 -37 480.5 -111s124.5 -214.667 124.5 -422v-457c0 -206.667 -41.667 -347 -125 -421
s-243.333 -111 -480 -111h-581zM604 332h55c49.333 0 82.833 10.667 100.5 32s26.5 63 26.5 125v558c0 58 -8.66699 96.333 -26 115s-51 28 -101 28h-55v-858z" />
    <glyph glyph-name="E" unicode="E" horiz-adv-x="1313" 
d="M88 0v269.999c21.333 11.333 36.166 27 44.499 47s12.5 51 12.5 93v706c0 42 -4.16699 73 -12.5 93s-23.166 35.333 -44.499 46v267h1139v-504h-436v43c0 54.667 -9.33301 91.5 -28 110.5s-54 28.5 -106 28.5h-41v-270h302v-295h-302l1 -307
c4 -0.666992 9 -1.16699 15 -1.5s14.333 -0.5 25 -0.5c50 0 85.167 12.833 105.5 38.5s30.5 70.834 30.5 135.501c0 14 -0.166992 24.833 -0.5 32.5s-0.833008 15.167 -1.5 22.5h436v-555h-1139z" />
    <glyph glyph-name="F" unicode="F" horiz-adv-x="1225" 
d="M618 410c0 -47.333 5.49902 -80.668 16.499 -100.001s30.167 -32.666 57.5 -39.999v-270h-604v270c20.667 10.667 35 25.834 43 45.501s12 51.167 12 94.5v706c0 43.333 -4 74.666 -12 93.999s-22.333 34.333 -43 45v267h1104v-531h-410v45
c0 63.333 -9.16699 105.5 -27.5 126.5s-52.166 31.5 -101.499 31.5h-35v-287h300v-299h-300v-198z" />
    <glyph glyph-name="G" unicode="G" horiz-adv-x="1313" 
d="M1210 1384l-0.00195312 -391.003h-456v86c0 54.667 -7 93.334 -21 116.001s-37 34 -69 34c-32.667 0 -56 -11 -70 -33s-21 -61 -21 -117v-633c0 -55.333 7 -94 21 -116s37.333 -33 70 -33s55.834 11 69.501 33s20.5 60.667 20.5 116v113h-76v303h532v-733
c-68 -54 -148.667 -94.167 -242 -120.5s-202.333 -39.5 -327 -39.5c-198.667 0 -338.834 40.333 -420.501 121s-122.5 221.334 -122.5 422.001v496c0 198 40.5 338.167 121.5 420.5s216.833 123.5 407.5 123.5c114.667 0 221.334 -14.167 320.001 -42.5
s186.334 -70.166 263.001 -125.499z" />
    <glyph glyph-name="H" unicode="H" horiz-adv-x="1419" 
d="M618 410c0 -50 3.99805 -83.998 11.998 -101.998s21.333 -30.667 40 -38v-270h-582v270c20.667 10.667 35 25.834 43 45.501s12 51.167 12 94.5v706c0 43.333 -4 74.666 -12 93.999s-22.333 34.333 -43 45v267h582v-267c-19.333 -8 -32.833 -20.833 -40.5 -38.5
s-11.5 -51.167 -11.5 -100.5v-182h183v182c0 47.333 -3.66699 80.166 -11 98.499s-20.666 31.833 -39.999 40.5v267h581v-267c-20 -10 -34.167 -24.5 -42.5 -43.5s-12.5 -50.833 -12.5 -95.5v-706c0 -45.333 4 -77.333 12 -96s22.333 -33.334 43 -44.001v-270h-581v270
c18.667 8 31.834 21.333 39.501 40s11.5 52 11.5 100v231h-183v-231z" />
    <glyph glyph-name="I" unicode="I" horiz-adv-x="778" 
d="M682 1522v-266.999c-20.667 -10 -35 -24.5 -43 -43.5s-12 -50.833 -12 -95.5v-706c0 -45.333 4 -77.333 12 -96s22.333 -33.334 43 -44.001v-270h-588v270c21.333 11.333 36.333 27 45 47s13 51 13 93v706c0 42 -4.33301 73 -13 93s-23.667 35.333 -45 46v267h588z" />
    <glyph glyph-name="J" unicode="J" horiz-adv-x="831" 
d="M43 6l-0.000976562 268c68.667 2 115.167 18.167 139.5 48.5s36.5 106.5 36.5 228.5v584c0 39.333 -5 67.5 -15 84.5s-27.333 28.833 -52 35.5v267h598v-267c-21.333 -10.667 -36.333 -24.5 -45 -41.5s-13 -44.833 -13 -83.5v-577c0 -126 -4 -213.667 -12 -263
s-21.667 -91.333 -41 -126c-34 -61.333 -81 -107 -141 -137s-134.667 -45 -224 -45c-40 0 -79.167 2 -117.5 6s-76.166 10 -113.499 18z" />
    <glyph glyph-name="K" unicode="K" horiz-adv-x="1395" 
d="M618 874l140 283.001c11.333 22.667 19.666 45.167 24.999 67.5s8 49.166 8 80.499v14v203h532v-267c-10 -6.66699 -19.667 -15.167 -29 -25.5s-18.666 -22.833 -27.999 -37.5l-244 -363l248 -452c16.667 -30.667 31 -53.667 43 -69s25 -28 39 -38v-270h-561v197
c0 53.333 -11.333 106 -34 158l-7 17l-132 310v-272c0 -50 4 -84 12 -102s21.333 -30.667 40 -38v-270h-582v270c20.667 10.667 35 25.834 43 45.501s12 51.167 12 94.5v706c0 43.333 -4 74.666 -12 93.999s-22.333 34.333 -43 45v267h582v-267
c-19.333 -8 -32.833 -20.833 -40.5 -38.5s-11.5 -51.167 -11.5 -100.5v-242z" />
    <glyph glyph-name="L" unicode="L" horiz-adv-x="1255" 
d="M88 0v269.999c20.667 10.667 35 25.834 43 45.501s12 51.167 12 94.5v706c0 43.333 -4 74.666 -12 93.999s-22.333 34.333 -43 45v267h604v-266c-26.667 -4.66699 -45.667 -18.5 -57 -41.5s-17 -63.833 -17 -122.5v-762h29c49.333 0 82.833 10.333 100.5 31
s26.5 70.334 26.5 149.001v229h414v-739h-1100z" />
    <glyph glyph-name="M" unicode="M" horiz-adv-x="1692" 
d="M494 907l-0.000976562 -497c0 -48 3.83301 -81.333 11.5 -100s21.5 -32 41.5 -40v-270h-459v270c20.667 10.667 35 25.834 43 45.501s12 51.167 12 94.5v706c0 43.333 -4 74.666 -12 93.999s-22.333 34.333 -43 45v267h625l139 -650l139 650h613v-267
c-21.333 -10 -36.333 -24.833 -45 -44.5s-13 -51.167 -13 -94.5v-706c0 -44 4.33301 -75.667 13 -95s23.667 -34.333 45 -45v-270h-549v270c18.667 8 31.834 21.333 39.501 40s11.5 52 11.5 100v497l-209 -907h-184z" />
    <glyph glyph-name="N" unicode="N" horiz-adv-x="1376" 
d="M504 410c0 -48.667 4.16895 -82.167 12.502 -100.5s23.166 -31.5 44.499 -39.5v-270h-487v270c20.667 11.333 35.334 27 44.001 47s13 51 13 93v706c0 42 -4.33301 73 -13 93s-23.334 35.333 -44.001 46v267h524l289 -770v364c0 48 -4.83301 80.833 -14.5 98.5
s-26.834 31.167 -51.501 40.5v267h496v-267c-20.667 -10 -35 -24.5 -43 -43.5s-12 -50.833 -12 -95.5v-1116h-463l-295 725v-315z" />
    <glyph glyph-name="O" unicode="O" horiz-adv-x="1335" 
d="M762 446v632.999c0 54 -7.33301 92.5 -22 115.5s-38.667 34.5 -72 34.5c-34 0 -58.333 -11.167 -73 -33.5s-22 -61.166 -22 -116.499v-633c0 -54.667 7.33301 -93.167 22 -115.5s39 -33.5 73 -33.5c33.333 0 57.333 11.333 72 34s22 61 22 115zM98 1008
c0 204 42.002 345.666 126.002 424.999s232 119 444 119c211.333 0 358.666 -39.667 441.999 -119s125 -221 125 -425v-496c0 -203.333 -41.5 -344.666 -124.5 -423.999s-230.5 -119 -442.5 -119c-212.667 0 -360.834 39.5 -444.501 118.5s-125.5 220.5 -125.5 424.5v496z
" />
    <glyph glyph-name="P" unicode="P" horiz-adv-x="1331" 
d="M610 754l31 0.000976562c60 0 101.333 11 124 33s34 62 34 120v135c0 63.333 -11.167 106.166 -33.5 128.499s-63.833 33.5 -124.5 33.5h-31v-450zM610 410.001c0 -48 5.83301 -81.334 17.5 -100.001s32.5 -32 62.5 -40v-270h-602v270c20.667 10.667 35 25.834 43 45.501
s12 51.167 12 94.5v706c0 43.333 -4 74.666 -12 93.999s-22.333 34.333 -43 45v267h651c200.667 0 339 -38.333 415 -115s114 -227 114 -451c0 -195.333 -38.167 -331.166 -114.5 -407.499s-212.5 -114.5 -408.5 -114.5h-135v-24z" />
    <glyph glyph-name="Q" unicode="Q" horiz-adv-x="1335" 
d="M735 -31l-57 -0.00195312c-219.333 0 -370.833 39.333 -454.5 118s-125.5 220.334 -125.5 425.001v496c0 204 42 345.667 126 425s232 119 444 119c211.333 0 358.666 -39.667 441.999 -119s125 -221 125 -425v-496c0 -100.667 -7 -180 -21 -238s-37 -106.333 -69 -145
c16 -16 32.333 -30.833 49 -44.5s34.334 -26.834 53.001 -39.501l-155 -272c-77.333 30.667 -144.5 61.834 -201.5 93.501s-108.833 65.834 -155.5 102.501zM762 445.998v632.999c0 54 -7.33301 92.5 -22 115.5s-38.667 34.5 -72 34.5c-34 0 -58.333 -11.167 -73 -33.5
s-22 -61.166 -22 -116.499v-633c0 -54.667 7.33301 -93.167 22 -115.5s39 -33.5 73 -33.5c33.333 0 57.333 11.333 72 34s22 61 22 115z" />
    <glyph glyph-name="R" unicode="R" horiz-adv-x="1374" 
d="M614 895l48 0.000976562c54.667 0 92.167 11.333 112.5 34s30.5 64.667 30.5 126c0 59.333 -11.5 99.666 -34.5 120.999s-66.833 32 -131.5 32h-25v-313zM614 410.001c0 -50 4.16504 -83.667 12.498 -101s23.5 -30.333 45.5 -39v-270h-584v270
c20.667 10.667 35 25.834 43 45.501s12 51.167 12 94.5v706c0 43.333 -4 74.666 -12 93.999s-22.333 34.333 -43 45v267h666c196 0 333.667 -31.333 413 -94s119 -168 119 -316c0 -96 -18.167 -172.167 -54.5 -228.5s-92.5 -96.166 -168.5 -119.499
c72 -19.333 121.833 -47.833 149.5 -85.5s42.5 -110.167 44.5 -217.5c0.666992 -4 1 -9.33301 1 -16c2 -98.667 21 -157 57 -175v-270h-506c-17.333 67.333 -26.666 176.666 -27.999 327.999c0 28 -0.333008 49.333 -1 64c-1.33301 86.667 -11.666 142 -30.999 166
s-55.333 36 -108 36h-27v-184z" />
    <glyph glyph-name="S" unicode="S" horiz-adv-x="1307" 
d="M106 133v418h461v-84c0 -65.333 7.16699 -109.666 21.5 -132.999s39.5 -35 75.5 -35c30.667 0 54.667 11.667 72 35s26 56 26 98c0 78.667 -74.667 140.334 -224 185.001l-65 20c-162 51.333 -267.333 107 -316 167s-73 148.333 -73 265c0 166 44.333 288 133 366
s226.667 117 414 117c107.333 0 208.333 -13.833 303 -41.5s184 -69.834 268 -126.501v-378h-446v69c0 48.667 -8.33301 85.834 -25 111.501s-40.667 38.5 -72 38.5c-32 0 -56 -9 -72 -27s-24 -44.667 -24 -80c0 -68 78 -124.333 234 -169l30 -9
c174 -50.667 286.167 -109.334 336.5 -176.001s75.5 -170.334 75.5 -311.001c0 -164 -46.167 -285.667 -138.5 -365s-233.833 -119 -424.5 -119c-117.333 0 -224.833 14.167 -322.5 42.5s-180.167 68.833 -247.5 121.5z" />
    <glyph glyph-name="T" unicode="T" horiz-adv-x="1405" 
d="M1358 1522v-691.001h-334v259c0 45.333 -6.66699 76.166 -20 92.499s-38 25.5 -74 27.5v-800c0 -44 6 -75.5 18 -94.5s33.333 -34.167 64 -45.5v-270h-619v270c30 10.667 50.833 25.334 62.5 44.001s17.5 50.667 17.5 96v800c-36 -2 -60.667 -11.167 -74 -27.5
s-20 -47.166 -20 -92.499v-259h-332v691h1311z" />
    <glyph glyph-name="U" unicode="U" horiz-adv-x="1346" 
d="M784 1116c0 46 -3.83301 78.4971 -11.5 97.4971s-21.5 32.833 -41.5 41.5v267h543v-267c-21.333 -10 -36.166 -24.833 -44.499 -44.5s-12.5 -51.167 -12.5 -94.5v-536c0 -118.667 -4 -203.5 -12 -254.5s-21.333 -93.833 -40 -128.5
c-41.333 -77.333 -103 -134.666 -185 -171.999s-186.667 -56 -314 -56c-109.333 0 -202.333 15.5 -279 46.5s-137.334 77.833 -182.001 140.5c-26 36.667 -44.5 78.167 -55.5 124.5s-16.5 112.5 -16.5 198.5v80v557c0 42 -5 73 -15 93s-27.333 35.333 -52 46v267h583v-266
c-20 -9.33301 -33.833 -23.166 -41.5 -41.499s-11.5 -51.166 -11.5 -98.499v-670c0 -54.667 7.16699 -93.167 21.5 -115.5s38.5 -33.5 72.5 -33.5s58.167 11.333 72.5 34s21.5 61 21.5 115v670z" />
    <glyph glyph-name="V" unicode="V" horiz-adv-x="1284" 
d="M334 0l-228.003 1120c-8 39.333 -17.167 69 -27.5 89s-23.5 35.333 -39.5 46v267h586l-1 -267c-15.333 -5.33301 -26.5 -13.833 -33.5 -25.5s-10.5 -27.5 -10.5 -47.5c0 -1.33301 0.333008 -4.33301 1 -9s1 -9.33398 1 -14.001c0 -3.33301 0.666992 -10.666 2 -21.999
s3.33301 -24.666 6 -39.999l102 -663l86 682c1.33301 10.667 2.33301 20.667 3 30s1 17 1 23c0 27.333 -3.66699 47 -11 59s-20.666 21 -39.999 27v267h516v-267c-15.333 -6.66699 -27.666 -18 -36.999 -34s-16.666 -37.333 -21.999 -64l-211 -1157h-643z" />
    <glyph glyph-name="W" unicode="W" horiz-adv-x="1802" 
d="M317 0l-208 1098l-1 1c-10.667 63.333 -34.334 115.333 -71.001 156v267h581v-267c-14.667 -8.66699 -25.5 -19.5 -32.5 -32.5s-10.5 -29.167 -10.5 -48.5l3 -35c0.666992 -6 1.33398 -11 2.00098 -15l55 -499l139 897h330l158 -897l41 467
c0.666992 12 1.5 24.833 2.5 38.5s1.5 21.167 1.5 22.5c0 28 -3.66699 49.5 -11 64.5s-20.333 27.5 -39 37.5v267h510v-267c-15.333 -12.667 -27.333 -27.5 -36 -44.5s-15.667 -41.5 -21 -73.5l-209 -1137h-471l-121 788l-123 -788h-469z" />
    <glyph glyph-name="X" unicode="X" horiz-adv-x="1268" 
d="M29 0v270c21.333 18 43.666 45.333 66.999 82c2.66699 4.66699 4.66699 8 6 10l271 435l-254 385c-12 18 -23.5 32.667 -34.5 44s-22.833 21 -35.5 29v267h535v-136c0 -4.66699 -0.333008 -11.334 -1 -20.001s-1 -14.667 -1 -18c0 -15.333 2.83301 -31.833 8.5 -49.5
s14.834 -39.5 27.501 -65.5l54 -107l45 105c1.33301 3.33301 3.66602 8.33301 6.99902 15c20 40 30 86.667 30 140v136h479v-267c-15.333 -10 -28.333 -20.5 -39 -31.5s-19.667 -22.5 -27 -34.5l-258 -411l274 -431c2.66699 -4 6 -9.33301 10 -16
c20 -30 37.333 -50.333 52 -61v-270h-567v203c0 22 -2.16699 41.667 -6.5 59s-11.166 35 -20.499 53l-69 136l-60 -136c-8 -18 -13.667 -36.667 -17 -56s-5 -45.666 -5 -78.999v-180h-471z" />
    <glyph glyph-name="Y" unicode="Y" horiz-adv-x="1204" 
d="M838 410c0 -44 5 -75.501 15 -94.501s28 -34.167 54 -45.5v-270h-614v270c26 11.333 44 26.833 54 46.5s15 50.834 15 93.501v188l-296 586c-6 12 -13.667 23.667 -23 35s-21.666 23.333 -36.999 36v267h535v-176c0 -60.667 2.16699 -104.834 6.5 -132.501
s11.5 -53.167 21.5 -76.5l62 -138l61 142c11.333 26 19.666 54.667 24.999 86s8 66 8 104v191h473v-267c-12 -7.33301 -22.667 -16.666 -32 -27.999s-18.333 -25 -27 -41l-301 -588v-188z" />
    <glyph glyph-name="Z" unicode="Z" horiz-adv-x="1294" 
d="M1241 0h-1169v274l596 924h-82c-66 0 -109.5 -10.833 -130.5 -32.5s-31.5 -68.167 -31.5 -139.5v-106h-338v602h1145v-269l-588 -925h82c63.333 0 106.833 13.667 130.5 41s35.5 81 35.5 161v105h350v-635z" />
    <glyph glyph-name="bracketleft" unicode="[" horiz-adv-x="846" 
d="M184 -207v1729h625v-133h-227v-1463h227v-133h-625z" />
    <glyph glyph-name="backslash" unicode="\" horiz-adv-x="664" 
d="M410 -190l-443 1712h336l442 -1712h-335z" />
    <glyph glyph-name="bracketright" unicode="]" horiz-adv-x="846" 
d="M662 -207h-625v133h225v1463h-225v133h625v-1729z" />
    <glyph glyph-name="asciicircum" unicode="^" horiz-adv-x="2048" 
d="M1192 1462l442 -565h-303l-307 309l-309 -309h-303l442 565h338z" />
    <glyph glyph-name="underscore" unicode="_" 
d="M1024 -201v-282h-1024v282h1024z" />
    <glyph glyph-name="grave" unicode="`" 
d="M207 1618h287l192 -371h-154z" />
    <glyph glyph-name="a" unicode="a" horiz-adv-x="1202" 
d="M666 307l0.000976562 176.002c-76.667 -30.667 -124.5 -54.834 -143.5 -72.501s-28.5 -39.834 -28.5 -66.501c0 -26 6 -45.833 18 -59.5s29 -20.5 51 -20.5c18.667 0 36.667 3.66699 54 11s33.666 18 48.999 32zM684.001 0.00195312l-14.0029 96
c-35.333 -40 -75.666 -69 -120.999 -87s-100.666 -27 -165.999 -27c-98.667 0 -175.167 28 -229.5 84s-81.5 135 -81.5 237c0 168 188.667 306.667 566 416l28 8v21c0 44.667 -6.5 77.667 -19.5 99s-33.167 32 -60.5 32s-47.5 -10.667 -60.5 -32s-19.5 -54.333 -19.5 -99
v-21h-385v264c60.667 46.667 135.334 83 224.001 109s184 39 286 39c155.333 0 268.5 -32.667 339.5 -98s106.5 -170 106.5 -314v-342c0 -40 4.16699 -70 12.5 -90s21.833 -34.333 40.5 -43v-252h-446z" />
    <glyph glyph-name="b" unicode="b" horiz-adv-x="1217" 
d="M547 285c14.667 -4.66699 27.833 -8.00098 39.5 -10.001s22.167 -3 31.5 -3c33.333 0 56.833 9.66699 70.5 29s20.5 57 20.5 113v284c0 50.667 -6.33301 86.334 -19 107.001s-33.667 31 -63 31c-13.333 0 -36 -5.66699 -68 -17l-12 -4v-530zM126.999 134.999v1012
c0 42 -3.66699 71.333 -11 88s-20.666 29 -39.999 37v250h469v-451c40.667 21.333 80.167 36.5 118.5 45.5s81.5 13.5 129.5 13.5c113.333 0 196.833 -31.833 250.5 -95.5s80.5 -163.5 80.5 -299.5v-295c0 -173.333 -35.833 -293 -107.5 -359s-198.834 -99 -381.501 -99
c-99.333 0 -191.5 12.833 -276.5 38.5s-162.167 63.834 -231.5 114.501z" />
    <glyph glyph-name="c" unicode="c" horiz-adv-x="1128" 
d="M668 748c0 48.667 -6.33301 82.665 -19 101.998s-33.667 29 -63 29s-50.333 -10 -63 -30s-19 -53.667 -19 -101v-377c0 -49.333 6.16699 -83.833 18.5 -103.5s33.5 -29.5 63.5 -29.5c28.667 0 49.5 10 62.5 30s19.5 54.333 19.5 103v100h385v-346
c-58.667 -48.667 -128.667 -84.667 -210 -108s-176 -35 -284 -35c-172.667 0 -294 30.167 -364 90.5s-105 165.833 -105 316.5v340c0 148.667 34.833 253.834 104.5 315.501s187.167 92.5 352.5 92.5c100 0 192.5 -12.167 277.5 -36.5s161.167 -60.166 228.5 -107.499v-299
h-385v54z" />
    <glyph glyph-name="d" unicode="d" horiz-adv-x="1210" 
d="M665 303l1.00098 511.999c-13.333 6.66699 -25.5 11.334 -36.5 14.001s-22.167 4.33398 -33.5 5.00098c-33.333 0 -56.666 -9.33301 -69.999 -28s-20 -60.667 -20 -126v-244c0 -56.667 7.16699 -95.334 21.5 -116.001s39.166 -31 74.499 -31
c10 0 20.167 1.16699 30.5 3.5s21.166 5.83301 32.499 10.5zM666.001 1122c0 49.333 -4.00195 84.668 -12.002 106.001s-22 35.333 -42 42v252h471v-1151c0 -38 4.16699 -65.333 12.5 -82s22.833 -29 43.5 -37v-252h-455v76c-41.333 -28.667 -86.166 -50.167 -134.499 -64.5
s-99.166 -21.5 -152.499 -21.5c-110 0 -188.667 27.833 -236 83.5s-71 151.834 -71 288.501v349c0 159.333 23.667 268.666 71 327.999s127.333 89 240 89c42 0 85.5 -5.33301 130.5 -16s89.833 -26.334 134.5 -47.001v57z" />
    <glyph glyph-name="e" unicode="e" horiz-adv-x="1171" 
d="M504 748v-41h164v41c0 48.667 -6.33301 82.667 -19 102s-33.667 29 -63 29s-50.333 -10 -63 -30s-19 -53.667 -19 -101zM504 371c0 -49.333 6.16895 -83.834 18.502 -103.501s33.5 -29.5 63.5 -29.5c28.667 0 49.5 10 62.5 30s19.5 54.333 19.5 103v30h415v-276
c-54.667 -46.667 -126.334 -82.167 -215.001 -106.5s-191 -36.5 -307 -36.5c-172.667 0 -294.334 30.333 -365.001 91s-106 166 -106 316v340c0 152.667 35.833 258.834 107.5 318.501s201.167 89.5 388.5 89.5c184 0 312.833 -32.333 386.5 -97s110.5 -178 110.5 -340v-225
h-579v-104z" />
    <glyph glyph-name="f" unicode="f" horiz-adv-x="786" 
d="M125 0v251.998c18 5.33301 30.667 19 38 41s11 61 11 117v452h-49v256h49v43c0 134 28.167 231 84.5 291s147.5 90 273.5 90c39.333 0 77.333 -2.5 114 -7.5s71.334 -12.833 104.001 -23.5v-241c-6 0 -13.333 0.333008 -22 1s-14.334 1 -17.001 1
c-38.667 0 -68.167 -11.833 -88.5 -35.5s-30.5 -58.167 -30.5 -103.5v-15h131v-256h-131v-452c0 -59.333 4 -99.166 12 -119.499s22.333 -33.166 43 -38.499v-252h-522z" />
    <glyph glyph-name="g" unicode="g" horiz-adv-x="1219" 
d="M666 332l0.000976562 485.001c-12 4 -23.167 7 -33.5 9s-20.5 3 -30.5 3c-35.333 0 -60.166 -10.333 -74.499 -31s-21.5 -59.334 -21.5 -116.001v-215c0 -65.333 6.66699 -107.333 20 -126s36.666 -28 69.999 -28c10.667 0 21.667 1.5 33 4.5s23.666 7.83301 36.999 14.5
zM115.001 -308.999l0.000976562 272.001h391v-8c0 -37.333 6.66699 -65.833 20 -85.5s32.666 -29.5 57.999 -29.5c29.333 0 50.333 11.5 63 34.5s19 64.833 19 125.5v78c-42 -20.667 -86.333 -36.5 -133 -47.5s-92.667 -16.5 -138 -16.5c-110 0 -188.333 30.333 -235 91
s-70 169.667 -70 327v324c0 137.333 23.667 234 71 290s126 84 236 84c52 0 102.333 -7.33301 151 -22s94 -36.667 136 -66v76h455v-252c-20.667 -8.66699 -35.167 -21.334 -43.5 -38.001s-12.5 -43.334 -12.5 -80.001v-670c0 -89.333 -3 -153.833 -9 -193.5
s-16.667 -73.5 -32 -101.5c-36.667 -70.667 -89.167 -123.167 -157.5 -157.5s-154.166 -51.5 -257.499 -51.5c-94.667 0 -184.834 9.83301 -270.501 29.5s-166.167 48.834 -241.5 87.501z" />
    <glyph glyph-name="h" unicode="h" horiz-adv-x="1255" 
d="M555 399c0 -43.333 3.99902 -76.3311 11.999 -98.998s21 -38.667 39 -48v-252h-522v252c18.667 5.33301 32.5 19.833 41.5 43.5s13.5 56.834 13.5 99.501v756c0 37.333 -4 64.166 -12 80.499s-22.333 29.166 -43 38.499v252h471v-467
c41.333 25.333 84.5 44.166 129.5 56.499s91.833 18.5 140.5 18.5c109.333 0 188 -27.833 236 -83.5s72 -149.167 72 -280.5v-369c0 -52 3.5 -87.333 10.5 -106s19.833 -31.667 38.5 -39v-252h-445c-8 37.333 -13.667 84 -17 140s-5 155.333 -5 298v244
c0 58 -7.16699 97.333 -21.5 118s-38.5 31 -72.5 31c-9.33301 0 -19.166 -1 -29.499 -3s-22.5 -5.66699 -36.5 -11v-418z" />
    <glyph glyph-name="i" unicode="i" horiz-adv-x="692" 
d="M561 399c0 -44.667 3.83301 -78.002 11.5 -100.002s20.167 -37.667 37.5 -47v-252h-522v252c18.667 5.33301 32.5 19.5 41.5 42.5s13.5 55.833 13.5 98.5v355c0 36.667 -4 63.334 -12 80.001s-22.333 29.334 -43 38.001v252h473v-719zM557 1358
c0 -49.333 -21 -90.333 -63 -123s-95.333 -49 -160 -49s-118 16.5 -160 49.5s-63 73.833 -63 122.5s21 89.5 63 122.5s95.333 49.5 160 49.5c64 0 117.167 -16.5 159.5 -49.5s63.5 -73.833 63.5 -122.5z" />
    <glyph glyph-name="j" unicode="j" horiz-adv-x="692" 
d="M557 1358c0 -49.333 -21 -90.333 -63 -123s-95.333 -49 -160 -49s-118 16.5 -160 49.5s-63 73.833 -63 122.5s21 89.5 63 122.5s95.333 49.5 160 49.5c64 0 117.167 -16.5 159.5 -49.5s63.5 -73.833 63.5 -122.5zM561 125l-0.00195312 -82.002
c0 -92.667 -2.83301 -159.5 -8.5 -200.5s-15.167 -75.167 -28.5 -102.5c-26.667 -54.667 -65.167 -96 -115.5 -124s-111.5 -42 -183.5 -42c-27.333 0 -58.166 2.33301 -92.499 7s-73.166 12 -116.499 22v247c49.333 2 82.833 16.5 100.5 43.5s26.5 102.167 26.5 225.5v629
c0 36.667 -4 63.334 -12 80.001s-22.333 29.334 -43 38.001v252h473v-993z" />
    <glyph glyph-name="k" unicode="k" horiz-adv-x="1204" 
d="M143 1151c0 37.333 -4.00098 64.168 -12.001 80.501s-22.333 29.166 -43 38.499v252h473v-805l90 110c17.333 21.333 29.5 41.5 36.5 60.5s10.5 44.833 10.5 77.5v12v141h465v-252c-15.333 -6.66699 -29.666 -15 -42.999 -25s-26.333 -22 -39 -36l-147 -174l164 -299
c12.667 -24 26 -42.333 40 -55s29.333 -21 46 -25v-252h-355c-14.667 19.333 -29 41.166 -43 65.499s-33 61.833 -57 112.5l-168 363v-142c0 -44.667 3.83301 -78 11.5 -100s20.167 -37.667 37.5 -47v-252h-522v252c18.667 5.33301 32.5 19.833 41.5 43.5
s13.5 56.834 13.5 99.501v756z" />
    <glyph glyph-name="l" unicode="l" horiz-adv-x="692" 
d="M143 1151c0 37.333 -4 64.168 -12 80.501s-22.333 29.166 -43 38.499v252h473v-1123c0 -44.667 3.83301 -78 11.5 -100s20.167 -37.667 37.5 -47v-252h-522v252c18.667 5.33301 32.5 19.5 41.5 42.5s13.5 55.833 13.5 98.5v758z" />
    <glyph glyph-name="m" unicode="m" horiz-adv-x="1835" 
d="M555 399c0 -43.333 3.99609 -76.335 11.9961 -99.002s21 -38.667 39 -48v-252h-522v252c18.667 5.33301 32.5 19.5 41.5 42.5s13.5 55.833 13.5 98.5v355c0 36.667 -4 63.334 -12 80.001s-22.333 29.334 -43 38.001v252h455v-76c42 29.333 87.333 51.333 136 66
s98.667 22 150 22c60.667 0 112.834 -9.66699 156.501 -29s77.5 -47.666 101.5 -84.999c46.667 37.333 97.334 65.666 152.001 84.999s110.667 29 168 29c108.667 0 187 -27.833 235 -83.5s72 -149.167 72 -280.5v-369c0 -50 3.83301 -84.667 11.5 -104
s20.834 -33 39.501 -41v-252h-446c-8 37.333 -13.833 84 -17.5 140s-5.5 155.333 -5.5 298v244c0 58 -7 97.333 -21 118s-38.333 31 -73 31c-8 0 -17 -1 -27 -3s-22.667 -5.66699 -38 -11v-420c0 -52 3.5 -87.333 10.5 -106s19.833 -31.667 38.5 -39v-252h-445
c-8 37.333 -13.667 84 -17 140s-5 155.333 -5 298v244c0 58 -7.16699 97.333 -21.5 118s-38.5 31 -72.5 31c-9.33301 0 -19.166 -1 -29.499 -3s-22.5 -5.66699 -36.5 -11v-418z" />
    <glyph glyph-name="n" unicode="n" horiz-adv-x="1255" 
d="M555 399c0 -43.333 3.99902 -76.335 11.999 -99.002s21 -38.667 39 -48v-252h-522v252c18.667 5.33301 32.5 19.5 41.5 42.5s13.5 55.833 13.5 98.5v355c0 36.667 -4 63.334 -12 80.001s-22.333 29.334 -43 38.001v252h455v-76c42 29.333 87.333 51.333 136 66
s98.667 22 150 22c109.333 0 188 -27.833 236 -83.5s72 -149.167 72 -280.5v-369c0 -52 3.5 -87.333 10.5 -106s19.833 -31.667 38.5 -39v-252h-445c-8 37.333 -13.667 84 -17 140s-5 155.333 -5 298v244c0 58 -7.16699 97.333 -21.5 118s-38.5 31 -72.5 31
c-9.33301 0 -19.166 -1 -29.499 -3s-22.5 -5.66699 -36.5 -11v-418z" />
    <glyph glyph-name="o" unicode="o" horiz-adv-x="1174" 
d="M1083 729v-340c0 -153.333 -36 -259.5 -108 -318.5s-201.667 -88.5 -389 -88.5s-316.833 29.5 -388.5 88.5s-107.5 165.167 -107.5 318.5v340c0 153.333 35.833 259.666 107.5 318.999s201.167 89 388.5 89c188 0 317.833 -29.667 389.5 -89
s107.5 -165.666 107.5 -318.999zM668 748c0 48.667 -6.33301 82.667 -19 102s-33.667 29 -63 29s-50.333 -10 -63 -30s-19 -53.667 -19 -101v-377c0 -49.333 6.16699 -83.833 18.5 -103.5s33.5 -29.5 63.5 -29.5c28.667 0 49.5 10 62.5 30s19.5 54.333 19.5 103v377z" />
    <glyph glyph-name="p" unicode="p" horiz-adv-x="1219" 
d="M551 817v-514c12 -6 23.667 -10.5 35 -13.5s23 -4.5 35 -4.5c33.333 0 56.666 9.16699 69.999 27.5s20 60.166 20 125.499v244c0 56.667 -7.33301 95.334 -22 116.001s-39.667 31 -75 31c-10 0 -20.167 -1 -30.5 -3s-21.166 -5 -32.499 -9zM551 0
c0 -47.333 4.16797 -81.999 12.501 -103.999s22.5 -36.333 42.5 -43v-250h-526v249c18 5.33301 31.333 19.666 40 42.999s13 57 13 101v752c0 38 -3.83301 65 -11.5 81s-21.5 28.667 -41.5 38v251h455v-76c42 29.333 87 51.333 135 66s97.667 22 149 22
c110 0 188.667 -28 236 -84s71 -152.667 71 -290v-348c0 -159.333 -23.5 -268.833 -70.5 -328.5s-127.167 -89.5 -240.5 -89.5c-42 0 -85.833 5.5 -131.5 16.5s-89.834 26.5 -132.501 46.5v-53z" />
    <glyph glyph-name="q" unicode="q" horiz-adv-x="1214" 
d="M668 817c-11.333 4 -22.499 7 -33.499 9s-21.833 3 -32.5 3c-34.667 0 -59 -10.167 -73 -30.5s-21 -59.166 -21 -116.499v-244c0 -66.667 6.5 -108.834 19.5 -126.501s35.833 -26.5 68.5 -26.5c11.333 0 23.166 1.5 35.499 4.5s24.5 7.83301 36.5 14.5v513zM668.001 0
l-0.00195312 53.001c-43.333 -20 -87.666 -35.5 -132.999 -46.5s-89.333 -16.5 -132 -16.5c-113.333 0 -193.833 30 -241.5 90s-71.5 169.333 -71.5 328v348c0 136 24 232.333 72 289s127 85 237 85c52 0 101.833 -7.33301 149.5 -22s92.834 -36.667 135.501 -66v76h401
v-1122c0 -43.333 4.5 -76.833 13.5 -100.5s22.167 -37.834 39.5 -42.501l1 -250h-527v250c20 6.66699 34.333 21 43 43s13 56.667 13 104z" />
    <glyph glyph-name="r" unicode="r" horiz-adv-x="815" 
d="M555 399c0 -46 4.16797 -80.1699 12.501 -102.503s22.5 -37.166 42.5 -44.499v-252h-526v252c18.667 5.33301 32.5 19.5 41.5 42.5s13.5 55.833 13.5 98.5v355c0 36.667 -4 63.334 -12 80.001s-22.333 29.334 -43 38.001v252h446v-88c25.333 38 52.833 66 82.5 84
s63.167 27 100.5 27c6 0 13.667 -0.666992 23 -2s18.666 -3 27.999 -5v-378h-45c-55.333 0 -96.5 -17.333 -123.5 -52s-40.5 -87.667 -40.5 -159v-146z" />
    <glyph glyph-name="s" unicode="s" horiz-adv-x="1118" 
d="M86 127l0.00195312 292.998h395v-51c0 -46.667 6.5 -79.5 19.5 -98.5s33.833 -28.5 62.5 -28.5c25.333 0 45.666 7.83301 60.999 23.5s23 36.5 23 62.5c0 57.333 -73.667 103 -221 137v0c-143.333 32.667 -237.833 72 -283.5 118s-68.5 115.333 -68.5 208
c0 115.333 37.333 201.833 112 259.5s187.334 86.5 338.001 86.5c99.333 0 191.666 -12.333 276.999 -37s161.666 -61 228.999 -109v-264h-389v55c0 34 -7.16699 60.333 -21.5 79s-34.5 28 -60.5 28c-24 0 -44.333 -8.16699 -61 -24.5s-25 -36.166 -25 -59.499
c0 -49.333 63.667 -87.666 191 -114.999h2c155.333 -34 258.333 -75.167 309 -123.5s76 -120.5 76 -216.5c0 -126 -37.667 -218.833 -113 -278.5s-192.666 -89.5 -351.999 -89.5c-97.333 0 -187.833 12.167 -271.5 36.5s-159.834 60.5 -228.501 108.5z" />
    <glyph glyph-name="t" unicode="t" horiz-adv-x="772" 
d="M688 4c-33.333 -8 -67.333 -14.001 -102 -18.001s-69 -6 -103 -6c-128 0 -218.667 27.333 -272 82s-80 151.334 -80 290.001v510h-51v256h51v213l418 117v-330h139v-256h-139v-385c0 -102.667 9.83301 -166 29.5 -190s56.167 -36.667 109.5 -38v-245z" />
    <glyph glyph-name="u" unicode="u" horiz-adv-x="1255" 
d="M1120 1118v-747.003c0 -39.333 4.16699 -67.166 12.5 -83.499s21.833 -28.166 40.5 -35.499l1 -252h-455v76c-42 -28.667 -86.833 -50.167 -134.5 -64.5s-97.834 -21.5 -150.501 -21.5c-110 0 -189 27.833 -237 83.5s-72 149.167 -72 280.5v367
c0 52.667 -3.5 88.167 -10.5 106.5s-19.833 31.166 -38.5 38.499v252h444c8 -39.333 13.833 -87.166 17.5 -143.499s5.5 -154.5 5.5 -294.5v-244c0 -57.333 7 -96.166 21 -116.499s38.333 -30.5 73 -30.5c12.667 0 24.334 1 35.001 3s20.667 5 30 9v418
c0 45.333 -3.66699 78.833 -11 100.5s-20 37.167 -38 46.5v252h467z" />
    <glyph glyph-name="v" unicode="v" horiz-adv-x="1114" 
d="M313 0l-219 748c-11.333 38.667 -22.333 66.5 -33 83.5s-23.334 29.167 -38.001 36.5v250h516v-250c-10.667 -2.66699 -18.5 -8.5 -23.5 -17.5s-7.5 -20.833 -7.5 -35.5c0 -8 0.5 -16.167 1.5 -24.5s2.5 -18.5 4.5 -30.5l80 -404l78 404c2 12 3.5 22.5 4.5 31.5
s1.5 15.5 1.5 19.5c0 15.333 -2.83301 27.5 -8.5 36.5s-15.167 15.833 -28.5 20.5v250h453v-250c-13.333 -5.33301 -25.166 -16.333 -35.499 -33s-19.833 -39 -28.5 -67l-227 -768h-490z" />
    <glyph glyph-name="w" unicode="w" horiz-adv-x="1659" 
d="M305 0l-204.999 751.997c-8 28.667 -17.833 52.834 -29.5 72.501s-24.834 33.5 -39.501 41.5v252h520l-1 -252c-12 -4 -21 -10 -27 -18s-9 -19 -9 -33c0 -3.33301 0.833008 -11.166 2.5 -23.499l5.5 -39.5l47 -279l158 645h270l162 -645l49 285
c1.33301 8 2.33301 15.5 3 22.5s1 13.833 1 20.5c0 16.667 -2.66699 29.334 -8 38.001s-15.333 17.667 -30 27v252h446v-252c-16.667 -12 -30.5 -27 -41.5 -45s-20.5 -41.667 -28.5 -71l-207 -750h-403l-117 508l-116 -508h-402z" />
    <glyph glyph-name="x" unicode="x" horiz-adv-x="1147" 
d="M59 0l0.00195312 251.997c13.333 4 25.666 10 36.999 18s22.333 18.333 33 31l221 270l-188 228c-13.333 16 -27 29.5 -41 40.5s-29 19.833 -45 26.5v252h465v-88c0 -40.667 2 -69.667 6 -87s10.667 -32.666 20 -45.999l41 -59l35 43
c14.667 19.333 25.5 40.666 32.5 63.999s10.5 50.333 10.5 81v92h401v-252c-12.667 -6 -25.334 -14.167 -38.001 -24.5s-25.667 -23.166 -39 -38.499l-191 -228l209 -264c16 -18.667 29 -32 39 -40s21 -14.667 33 -20v-251h-479v113c0 34.667 -2.5 61.834 -7.5 81.501
s-12.833 38.167 -23.5 55.5l-49 74l-43 -68c-12 -19.333 -20.5 -38.166 -25.5 -56.499s-7.5 -41.833 -7.5 -70.5v-14v-115h-406z" />
    <glyph glyph-name="y" unicode="y" horiz-adv-x="1139" 
d="M383 -37l-284.999 810.994c-6.66699 18.667 -15.334 36.334 -26.001 53.001s-22.334 30.334 -35.001 41.001v250h518v-250c-12 -4.66699 -21.167 -11.667 -27.5 -21s-9.5 -20.666 -9.5 -33.999c0 -3.33301 0.5 -8.16602 1.5 -14.499s2.5 -14.833 4.5 -25.5l88 -392
l76 381c1.33301 6.66699 2.33301 13.834 3 21.501s1 16.834 1 27.501c0 14.667 -3.33301 26.667 -10 36s-16.667 16.333 -30 21l-1 250h451v-250c-13.333 -8 -25 -20.833 -35 -38.5s-19.667 -41.5 -29 -71.5l-239 -819c-37.333 -128 -86 -219.5 -146 -274.5
s-140.333 -82.5 -241 -82.5c-31.333 0 -63.166 2.5 -95.499 7.5s-64.833 12.167 -97.5 21.5v241c43.333 1.33301 78.5 11 105.5 29s46.5 45.333 58.5 82z" />
    <glyph glyph-name="z" unicode="z" horiz-adv-x="1112" 
d="M70 0v266.001l489 598h-67c-52 0 -85.167 -7 -99.5 -21s-21.5 -44.333 -21.5 -91v-52h-289v418h973v-254l-492 -604h62c58.667 0 96.167 7.16699 112.5 21.5s24.5 46.166 24.5 95.499v53h305v-430h-997z" />
    <glyph glyph-name="braceleft" unicode="{" 
d="M905 1192c-5.33301 0 -12.834 0.329102 -22.501 0.996094s-16.5 1 -20.5 1c-58 0 -97 -10 -117 -30s-30 -62.667 -30 -128v-239c0 -89.333 -15.667 -152.5 -47 -189.5s-88 -62.833 -170 -77.5c82.667 -15.333 139.5 -41.166 170.5 -77.499s46.5 -98.5 46.5 -186.5v-241
c0 -64 9.83301 -106 29.5 -126s58.167 -30 115.5 -30c4.66699 0 12 0.333008 22 1s17.667 1 23 1v-285h-80c-92.667 0 -163.167 3.5 -211.5 10.5s-88.166 18.5 -119.499 34.5c-40 20 -68.167 48.167 -84.5 84.5s-24.5 98.5 -24.5 186.5v258
c0 84.667 -15.5 144.334 -46.5 179.001s-83.833 52 -158.5 52c-3.33301 0 -8.83301 -0.333008 -16.5 -1s-13.834 -1 -18.501 -1v283c4.66699 0 10.834 -0.333008 18.501 -1s13.167 -1 16.5 -1c74.667 0 127.5 17.333 158.5 52s46.5 94.334 46.5 179.001v258
c0 88.667 8.16699 151.334 24.5 188.001s44.5 65 84.5 85c32 16 72.167 27.5 120.5 34.5s118.5 10.5 210.5 10.5h80v-285z" />
    <glyph glyph-name="bar" unicode="|" 
d="M653 1565v-2048h-280v2048h280z" />
    <glyph glyph-name="braceright" unicode="}" 
d="M641 1159l0.000976562 -257.999c0 -84.667 15.5 -144.334 46.5 -179.001s83.833 -52 158.5 -52c3.33301 0 8.83301 0.333008 16.5 1s13.834 1 18.501 1v-283c-4.66699 0 -10.834 0.333008 -18.501 1s-13.167 1 -16.5 1c-74.667 0 -127.5 -17.333 -158.5 -52
s-46.5 -94.334 -46.5 -179.001v-258c0 -86.667 -8.33301 -148.667 -25 -186s-45.334 -66.333 -86.001 -87c-30 -15.333 -68.333 -26.333 -115 -33s-113.334 -10 -200.001 -10h-94v283c6 0 13.667 -0.333008 23 -1s16 -1 20 -1c58 0 97 10 117 30s30 62.667 30 128v241
c0 88 15.5 150.167 46.5 186.5s87.833 62.166 170.5 77.499c-82 14.667 -138.667 40.334 -170 77.001s-47 99.334 -47 188.001v241c0 65.333 -10 108 -30 128s-59 30 -117 30c-4 0 -10.667 -0.333008 -20 -1s-17 -1 -23 -1v285h80c92 0 162 -3.5 210 -10.5
s87.667 -18.5 119 -34.5c40.667 -20.667 69.334 -49.667 86.001 -87s25 -99.333 25 -186z" />
    <glyph glyph-name="asciitilde" unicode="~" horiz-adv-x="1706" 
d="M1530 543c-68 -46 -131.998 -79.667 -191.998 -101s-119.667 -32 -179 -32c-36 0 -73.167 3.83301 -111.5 11.5s-89.833 22.834 -154.5 45.501c-82.667 28 -147.5 46.667 -194.5 56s-92.833 14 -137.5 14c-56 0 -114.667 -12.667 -176 -38s-130.333 -65.333 -207 -120
v299c79.333 50 151.5 86.333 216.5 109s128.833 34 191.5 34c38.667 0 79.667 -4 123 -12s95 -21.667 155 -41c14.667 -4.66699 36 -12 64 -22c101.333 -36 179.666 -54 234.999 -54c57.333 0 115.666 12.167 174.999 36.5s123.333 62.166 192 113.499v-299z" />
    <glyph glyph-name="euro" horiz-adv-x="1366" 
d="M1257 1384l0.000976562 -288.003h-456v28c0 34.667 -7.5 60.834 -22.5 78.501s-37.5 26.5 -67.5 26.5c-32.667 0 -55.834 -11 -69.501 -33s-20.5 -61 -20.5 -117v-84h337l-69 -157h-268v-154h200l-69 -158h-131v-80c0 -55.333 6.83301 -94 20.5 -116
s36.834 -33 69.501 -33c32 0 55 10.667 69 32s21 57 21 107v39h456v-346c-68 -54 -148.667 -94.167 -242 -120.5s-202.333 -39.5 -327 -39.5c-198 0 -337.667 40.333 -419 121s-122 221.334 -122 422.001v14h-137l70 158h67v154h-172l70 157h102v13
c0 198.667 40.333 339 121 421s216 123 406 123c114.667 0 221.167 -14.167 319.5 -42.5s186.166 -70.166 263.499 -125.499z" />
    <glyph glyph-name="euro" unicode="&#x20ac;" horiz-adv-x="1366" 
d="M1257 1384l0.000976562 -288.003h-456v28c0 34.667 -7.5 60.834 -22.5 78.501s-37.5 26.5 -67.5 26.5c-32.667 0 -55.834 -11 -69.501 -33s-20.5 -61 -20.5 -117v-84h337l-69 -157h-268v-154h200l-69 -158h-131v-80c0 -55.333 6.83301 -94 20.5 -116
s36.834 -33 69.501 -33c32 0 55 10.667 69 32s21 57 21 107v39h456v-346c-68 -54 -148.667 -94.167 -242 -120.5s-202.333 -39.5 -327 -39.5c-198 0 -337.667 40.333 -419 121s-122 221.334 -122 422.001v14h-137l70 158h67v154h-172l70 157h102v13
c0 198.667 40.333 339 121 421s216 123 406 123c114.667 0 221.167 -14.167 319.5 -42.5s186.166 -70.166 263.499 -125.499z" />
    <glyph glyph-name="nonbreakingspace" unicode="&#xa0;" horiz-adv-x="1366" 
 />
    <glyph glyph-name="exclamdown" unicode="&#xa1;" horiz-adv-x="782" 
d="M594 1335c0 -55.333 -20 -103.333 -60 -144s-87.667 -61 -143 -61c-56 0 -104.167 20.167 -144.5 60.5s-60.5 88.5 -60.5 144.5s20.333 103.833 61 143.5s88.667 59.5 144 59.5c54.667 0 102.167 -20.167 142.5 -60.5s60.5 -87.833 60.5 -142.5zM494 1044l139 -755
c4 -20.667 7 -40.334 9 -59.001s3 -36 3 -52c0 -69.333 -21 -121.5 -63 -156.5s-105.667 -52.5 -191 -52.5c-84.667 0 -148.5 17.5 -191.5 52.5s-64.5 87.167 -64.5 156.5c0 16 1 33.333 3 52s5 38.334 9 59.001l140 755h207z" />
    <glyph glyph-name="cent" unicode="&#xa2;" horiz-adv-x="1366" 
d="M772 909c0 49.333 -6.16895 83.498 -18.502 102.498s-33.5 28.5 -63.5 28.5c-29.333 0 -50.333 -9.83301 -63 -29.5s-19 -53.5 -19 -101.5v-379c0 -48 6.33301 -81.833 19 -101.5s33.667 -29.5 63 -29.5s50.333 9.83301 63 29.5s19 53.5 19 101.5v103h385v-346
c-40.667 -32.667 -84.667 -59.5 -132 -80.5s-99.666 -36.5 -156.999 -46.5v-211h-358v207c-112 10.667 -192.5 46.5 -241.5 107.5s-73.5 156.167 -73.5 285.5v342c0 128.667 23.833 222.834 71.5 282.501s128.834 97.834 243.501 114.501v170h358v-182
c58 -12 110 -27.667 156 -47s90.333 -44 133 -74v-301h-385v55z" />
    <glyph glyph-name="sterling" unicode="&#xa3;" horiz-adv-x="1366" 
d="M115 0l-0.000976562 269.999c23.333 11.333 40 29 50 53s15 59.667 15 107v162h-65v297h65v151c0 84.667 4.5 148.167 13.5 190.5s23.833 81.5 44.5 117.5c38.667 66 96 116.5 172 151.5s166 52.5 270 52.5c100.667 0 200.334 -14.167 299.001 -42.5
s193 -70.166 283 -125.499v-411h-435v94c0 60.667 -6.5 102.834 -19.5 126.501s-35.167 35.5 -66.5 35.5c-34 0 -58.5 -12.333 -73.5 -37s-22.5 -66.334 -22.5 -125.001v-178h299v-297h-299v-264h33c56.667 0 95.667 11.333 117 34s32 65 32 127v21h435v-510h-1147z" />
    <glyph glyph-name="currency" unicode="&#xa4;" horiz-adv-x="1366" 
d="M1257 1384l0.000976562 -288.003h-456v28c0 34.667 -7.5 60.834 -22.5 78.501s-37.5 26.5 -67.5 26.5c-32.667 0 -55.834 -11 -69.501 -33s-20.5 -61 -20.5 -117v-84h337l-69 -157h-268v-154h200l-69 -158h-131v-80c0 -55.333 6.83301 -94 20.5 -116
s36.834 -33 69.501 -33c32 0 55 10.667 69 32s21 57 21 107v39h456v-346c-68 -54 -148.667 -94.167 -242 -120.5s-202.333 -39.5 -327 -39.5c-198 0 -337.667 40.333 -419 121s-122 221.334 -122 422.001v14h-137l70 158h67v154h-172l70 157h102v13
c0 198.667 40.333 339 121 421s216 123 406 123c114.667 0 221.167 -14.167 319.5 -42.5s186.166 -70.166 263.499 -125.499z" />
    <glyph glyph-name="yen" unicode="&#xa5;" horiz-adv-x="1366" 
d="M909 410c0 -42.667 5.16797 -74.001 15.501 -94.001s28.5 -35.333 54.5 -46v-270h-614v270c25.333 11.333 43.166 26.833 53.499 46.5s15.5 50.834 15.5 93.501v116h-356v158h311l-78 154h-233v157h151l-92 189c-6 12 -14 24 -24 36s-21.667 23.667 -35 35v267h534v-217
c0 -59.333 2.33301 -103 7 -131s12 -53.333 22 -76l61 -137l62 139c10.667 25.333 18.834 54.166 24.501 86.499s8.5 67.5 8.5 105.5v230h473v-267c-12 -7.33301 -22.833 -16.666 -32.5 -27.999s-18.834 -25 -27.501 -41l-98 -191h143v-157h-221l-80 -154h301v-158h-346
v-116z" />
    <glyph glyph-name="brokenbar" unicode="&#xa6;" 
d="M653 408v-758h-280v758h280zM653 1432v-758h-280v758h280z" />
    <glyph glyph-name="section" unicode="&#xa7;" 
d="M659 512c18 11.333 31.168 24.002 39.501 38.002s12.5 30 12.5 48c0 60 -77.333 117 -232 171c-52 18 -93 32.667 -123 44c-16.667 -10.667 -29.334 -23.334 -38.001 -38.001s-13 -31.334 -13 -50.001c0 -58.667 82.333 -117 247 -175zM836.001 389.002
c36.667 -30.667 63.8369 -68.4971 81.5039 -113.497s26.5 -98.5 26.5 -160.5c0 -106 -37.833 -189.5 -113.5 -250.5s-179.834 -91.5 -312.501 -91.5c-72 0 -145.333 11.667 -220 35s-140.667 56 -198 98v252h326v-23c0 -38 9.5 -68 28.5 -90s44.833 -33 77.5 -33
c28 0 49.833 8.66699 65.5 26s23.5 41.666 23.5 72.999c0 58 -66.667 110 -200 156l-118 42c-96 38 -165.667 83.667 -209 137s-65 119.666 -65 198.999c0 76 13.5 137.667 40.5 185s68.833 82.666 125.5 105.999c-36 29.333 -63.5 66.833 -82.5 112.5
s-28.5 96.167 -28.5 151.5c0 110.667 37.667 197 113 259s180.333 93 315 93c72 0 145 -11.667 219 -35s140.333 -56 199 -98v-252h-326v21c0 38 -9.33301 68.333 -28 91s-43.334 34 -74.001 34c-28.667 0 -51.5 -9.33301 -68.5 -28s-25.5 -43.667 -25.5 -75
c0 -56 63.333 -105 190 -147c53.333 -18 95.666 -33 126.999 -45c97.333 -38 167.666 -83.667 210.999 -137s65 -120.333 65 -201c0 -75.333 -13.5 -136.833 -40.5 -184.5s-68.5 -83.167 -124.5 -106.5z" />
    <glyph glyph-name="dieresis" unicode="&#xa8;" 
d="M541 1432c0 41.333 14.833 77.168 44.5 107.501s65.167 45.5 106.5 45.5c42.667 0 78.667 -14.833 108 -44.5s44 -65.834 44 -108.501c0 -42 -15 -77.833 -45 -107.5s-65.667 -44.5 -107 -44.5c-40.667 0 -76 15 -106 45s-45 65.667 -45 107zM178 1432
c0 41.333 14.998 77.168 44.998 107.501s65.667 45.5 107 45.5c42.667 0 78.834 -14.833 108.501 -44.5s44.5 -65.834 44.5 -108.501c0 -41.333 -15.167 -77 -45.5 -107s-66.166 -45 -107.499 -45s-77 15 -107 45s-45 65.667 -45 107z" />
    <glyph glyph-name="copyright" unicode="&#xa9;" horiz-adv-x="1706" 
d="M987 883c-2 42 -14.6631 75.002 -37.9961 99.002s-54.333 36 -93 36c-48.667 0 -86.834 -23.833 -114.501 -71.5s-41.5 -114.834 -41.5 -201.501c0 -87.333 13.667 -152.833 41 -196.5s68.333 -65.5 123 -65.5c40 0 70.667 12.167 92 36.5s33 59.833 35 106.5l248 1
c-4 -99.333 -40.333 -178.5 -109 -237.5s-159.334 -88.5 -272.001 -88.5c-130 0 -232.167 38.667 -306.5 116s-111.5 184 -111.5 320c0 133.333 37 241.166 111 323.499s170.333 123.5 289 123.5c117.333 0 210.166 -26.5 278.499 -79.5s105.166 -126.833 110.499 -221.5
h-242zM1452 743.002c0 80 -15.001 156.33 -45.001 228.997s-73 137 -129 193c-58 58 -122.833 101.833 -194.5 131.5s-148.167 44.5 -229.5 44.5c-82 0 -158.667 -14.5 -230 -43.5s-134.666 -71.833 -189.999 -128.5c-57.333 -58 -101.333 -123.667 -132 -197
s-46 -149.666 -46 -228.999s15.167 -155.166 45.5 -227.499s73.833 -136.833 130.5 -193.5c57.333 -57.333 122 -101.166 194 -131.499s148 -45.5 228 -45.5c79.333 0 155.5 15.333 228.5 46s138.833 75 197.5 133c56.667 55.333 99.5 118.5 128.5 189.5
s43.5 147.5 43.5 229.5zM852.003 1493c103.333 0 200.834 -18.666 292.501 -55.999s173.167 -91.666 244.5 -162.999c69.333 -70 122.833 -151 160.5 -243s56.5 -188.667 56.5 -290c0 -102.667 -18.5 -198.834 -55.5 -288.501s-90.833 -168.834 -161.5 -237.501
c-74 -72 -157.333 -127.5 -250 -166.5s-188.334 -58.5 -287.001 -58.5c-99.333 0 -194 19 -284 57s-171.333 93.333 -244 166c-72 71.333 -127 152.333 -165 243s-57 185.667 -57 285c0 100.667 19.167 197 57.5 289s93.833 174.667 166.5 248
c68.667 70 148 123.333 238 160s186 55 288 55z" />
    <glyph glyph-name="ordfeminine" unicode="&#xaa;" horiz-adv-x="901" 
d="M500 954l-0.000976562 123.001c-58 -21.333 -94 -38 -108 -50s-21 -27.333 -21 -46s4.33301 -32.834 13 -42.501s21.334 -14.5 38.001 -14.5c14.667 0 28.5 2.5 41.5 7.5s25.167 12.5 36.5 22.5zM513.999 739.001l-11.999 68.001c-26 -28 -56 -48.333 -90 -61
s-75.667 -19 -125 -19c-74 0 -131.5 19.667 -172.5 59s-61.5 94.666 -61.5 165.999c0 116.667 139.333 213 418 289l29 8v15c0 30.667 -4.83301 53.334 -14.5 68.001s-24.834 22 -45.501 22s-36 -7.33301 -46 -22s-15 -37.334 -15 -68.001v-15h-289v185
c45.333 32 101.333 57 168 75s138.334 27 215.001 27c117.333 0 202.666 -22.667 255.999 -68s80 -118.333 80 -219v-239c0 -29.333 3 -51 9 -65s16 -24 30 -30v-176h-334z" />
    <glyph glyph-name="guillemotleft" unicode="&#xab;" horiz-adv-x="1053" 
d="M266 199l-174 379l174 380h289l-170 -380l170 -379h-289zM692 199l-174 379l174 380h289l-170 -380l170 -379h-289z" />
    <glyph glyph-name="logicalnot" unicode="&#xac;" horiz-adv-x="1706" 
d="M1452 868v-501h-272v235h-926v266h1198z" />
    <glyph glyph-name="sfthyphen" unicode="&#xad;" horiz-adv-x="782" 
d="M90 393v369h602v-369h-602z" />
    <glyph glyph-name="registered" unicode="&#xae;" horiz-adv-x="1706" 
d="M823 1006h-39v-193h54c38.667 0 68 8.33301 88 25s30 41 30 73c0 32.667 -10.667 56.667 -32 72s-55 23 -101 23zM862 1165c116 0 204.5 -20.333 265.5 -61s91.5 -100 91.5 -178c0 -52 -14.333 -97 -43 -135s-69 -66 -121 -84l178 -355h-279l-145 312h-25v-312h-256v813
h334zM1452 743c0 80 -15.001 156.33 -45.001 228.997s-73 137 -129 193c-58 58 -122.833 101.833 -194.5 131.5s-148.167 44.5 -229.5 44.5c-82 0 -158.667 -14.5 -230 -43.5s-134.666 -71.833 -189.999 -128.5c-57.333 -58 -101.333 -123.667 -132 -197
s-46 -149.666 -46 -228.999s15.167 -155.166 45.5 -227.499s73.833 -136.833 130.5 -193.5c57.333 -57.333 122 -101.166 194 -131.499s148 -45.5 228 -45.5c79.333 0 155.5 15.333 228.5 46s138.833 75 197.5 133c56.667 55.333 99.5 118.5 128.5 189.5
s43.5 147.5 43.5 229.5zM851.999 1493c103.333 0 200.834 -18.666 292.501 -55.999s173.167 -91.666 244.5 -162.999c69.333 -70 122.833 -151 160.5 -243s56.5 -188.667 56.5 -290c0 -102.667 -18.5 -198.834 -55.5 -288.501s-90.833 -168.834 -161.5 -237.501
c-74 -72 -157.333 -127.5 -250 -166.5s-188.334 -58.5 -287.001 -58.5c-99.333 0 -194 19 -284 57s-171.333 93.333 -244 166c-72 71.333 -127 152.333 -165 243s-57 185.667 -57 285c0 100.667 19.167 197 57.5 289s93.833 174.667 166.5 248
c68.667 70 148 123.333 238 160s186 55 288 55z" />
    <glyph glyph-name="macron" unicode="&#xaf;" 
d="M205 1518h614v-170h-614v170z" />
    <glyph glyph-name="degree" unicode="&#xb0;" horiz-adv-x="674" 
d="M489 1151c0 41.333 -15.001 77 -45.001 107s-66 45 -108 45c-41.333 0 -76.666 -14.833 -105.999 -44.5s-44 -65.5 -44 -107.5c0 -42.667 14.667 -79 44 -109s65.333 -45 108 -45c41.333 0 76.833 15.333 106.5 46s44.5 66.667 44.5 108zM337.999 1473
c89.333 0 165.166 -31.499 227.499 -94.499s93.5 -139.5 93.5 -229.5c0 -88 -31.5 -163.667 -94.5 -227s-139.167 -95 -228.5 -95s-165.333 31.167 -228 93.5s-94 138.5 -94 228.5c0 89.333 31.833 165.666 95.5 228.999s139.834 95 228.501 95z" />
    <glyph glyph-name="plusminus" unicode="&#xb1;" horiz-adv-x="1706" 
d="M1452 231v-272h-1198v272h1198zM993 1262v-310h459v-272h-459v-309h-280v309h-459v272h459v310h280z" />
    <glyph glyph-name="twosuperior" unicode="&#xb2;" horiz-adv-x="901" 
d="M74 610l-0.00195312 205.001c0 78.667 14.667 138 44 178s91 81 185 123l68 29c98 40.667 147 83 147 127c0 22.667 -5.66699 40.667 -17 54s-26.666 20 -45.999 20c-21.333 0 -37.666 -7.5 -48.999 -22.5s-17 -36.167 -17 -63.5v-62h-295v248
c55.333 32 113.5 55.667 174.5 71s127.833 23 200.5 23c123.333 0 214.5 -23.333 273.5 -70s88.5 -119 88.5 -217c0 -45.333 -6.16699 -83.333 -18.5 -114s-32.5 -58.667 -60.5 -84c-21.333 -19.333 -82 -51.666 -182 -96.999c-35.333 -16.667 -63 -29.334 -83 -38.001
l-2 -1c-72 -35.333 -108 -70 -108 -104v-10h51c34 0 56.833 5.66699 68.5 17s18.5 35.666 20.5 72.999h294v-285h-737z" />
    <glyph glyph-name="threesuperior" unicode="&#xb3;" horiz-adv-x="901" 
d="M82 688l-0.00195312 254.001h299v-57c0 -35.333 4.66699 -59.833 14 -73.5s25 -20.5 47 -20.5s38.5 8 49.5 24s16.5 40 16.5 72c0 38.667 -8.5 65.667 -25.5 81s-50.167 23 -99.5 23h-92v178h92c48.667 0 81 7 97 21s24 39.333 24 76c0 26 -5.83301 45.833 -17.5 59.5
s-28.5 20.5 -50.5 20.5c-18.667 0 -32.5 -6.83301 -41.5 -20.5s-13.5 -34.167 -13.5 -61.5v-45h-299v219c48.667 33.333 104.834 58.666 168.501 75.999s133.167 26 208.5 26c117.333 0 206 -21.833 266 -65.5s90 -108.5 90 -194.5c0 -50.667 -11 -91.5 -33 -122.5
s-56 -52.833 -102 -65.5c48.667 -14.667 85 -39.667 109 -75s36 -81.333 36 -138c0 -98 -29.667 -169.667 -89 -215s-153 -68 -281 -68c-78.667 0 -148.667 7.66699 -210 23s-115.666 38.333 -162.999 69z" />
    <glyph glyph-name="acute" unicode="&#xb4;" 
d="M530 1618h287l-325 -371h-154z" />
    <glyph glyph-name="mu" unicode="&#xb5;" horiz-adv-x="1372" 
d="M602 1087l-83.999 -614.002l-3 -33.5c-0.666992 -7.66699 -1 -14.167 -1 -19.5c0 -45.333 10.5 -78.833 31.5 -100.5s52.833 -32.5 95.5 -32.5c52.667 0 94 17.333 124 52s50 88.334 60 161.001l84 587h418l-158 -1087h-368l18 131
c-24 -45.333 -51.5 -79.166 -82.5 -101.499s-66.167 -33.5 -105.5 -33.5c-40.667 0 -75.834 10.5 -105.501 31.5s-53.167 52.167 -70.5 93.5l-72 -543h-412l209 1509h422z" />
    <glyph glyph-name="paragraph" unicode="&#xb6;" 
d="M1014 1337l-101 0.000976562v-1337h-202v1337h-140v-1337h-202v784c-108.667 5.33301 -195.667 39.666 -261 102.999s-98 144.333 -98 243c0 104.667 35.5 189 106.5 253s165.167 96 282.5 96h615v-142z" />
    <glyph glyph-name="periodcentered" unicode="&#xb7;" horiz-adv-x="682" 
d="M137 764c0 55.333 20 103 60 143s87.667 60 143 60c56.667 0 105 -19.833 145 -59.5s60 -87.5 60 -143.5s-20.333 -104.167 -61 -144.5s-88.667 -60.5 -144 -60.5c-54.667 0 -102.167 20.333 -142.5 61s-60.5 88.667 -60.5 144z" />
    <glyph glyph-name="cedilla" unicode="&#xb8;" 
d="M455 0l113.997 0.000976562v-84h19c74 0 130.667 -16.5 170 -49.5s59 -80.5 59 -142.5c0 -66.667 -22 -118.167 -66 -154.5s-106.667 -54.5 -188 -54.5c-40 0 -84.667 4 -134 12s-101.666 19.667 -156.999 35v137c52.667 -14.667 102.834 -25.834 150.501 -33.501
s87.834 -11.5 120.501 -11.5c28.667 0 50.167 5.83301 64.5 17.5s21.5 29.834 21.5 54.501c0 21.333 -9.5 37.166 -28.5 47.499s-49.167 15.5 -90.5 15.5c-14 0 -25 -0.166992 -33 -0.5s-15.333 -0.833008 -22 -1.5v213z" />
    <glyph glyph-name="onesuperior" unicode="&#xb9;" horiz-adv-x="901" 
d="M293 1284c0 25.333 -3.00098 44.166 -9.00098 56.499s-16 21.5 -30 27.5v160h352v-672c0 -27.333 2.66699 -46.5 8 -57.5s15 -19.833 29 -26.5v-162h-389v162c14.667 6.66699 24.834 15.834 30.501 27.501s8.5 30.5 8.5 56.5v428z" />
    <glyph glyph-name="ordmasculine" unicode="&#xba;" horiz-adv-x="881" 
d="M813 1249l0.000976562 -237c0 -107.333 -26.833 -181.666 -80.5 -222.999s-151.167 -62 -292.5 -62c-140.667 0 -237.834 20.667 -291.501 62s-80.5 115.666 -80.5 222.999v237c0 108 27 182.833 81 224.5s151 62.5 291 62.5c141.333 0 238.833 -20.833 292.5 -62.5
s80.5 -116.5 80.5 -224.5zM502.001 1264c0 33.333 -4.66699 56.666 -14 69.999s-25.333 20 -48 20c-22 0 -37.667 -6.66699 -47 -20s-14 -36.666 -14 -69.999v-265c0 -35.333 4.66699 -59.833 14 -73.5s25 -20.5 47 -20.5s37.833 7.33301 47.5 22s14.5 38.667 14.5 72v265z
" />
    <glyph glyph-name="guillemotright" unicode="&#xbb;" horiz-adv-x="1053" 
d="M786 199h-288l170 379l-170 380h288l175 -380zM358 199h-286l170 379l-170 380h286l177 -380z" />
    <glyph glyph-name="onequarter" unicode="&#xbc;" horiz-adv-x="2193" 
d="M1788 383v217l-162 -217h162zM1733 0v152c16.667 2.66699 29 8.33398 37 17.001s12 20.667 12 36v4h-391v205l333 442h342v-473h66v-174h-65c0.666992 -16.667 4 -29.334 10 -38.001s15.333 -15 28 -19v-152h-372zM508 0l878 1530h302l-877 -1530h-303zM281 1300
c0 22.667 -2.83301 40 -8.5 52s-15.167 21.333 -28.5 28v148h336v-627c0 -24.667 2.5 -42.334 7.5 -53.001s13.833 -19 26.5 -25v-151h-370v151c13.333 6.66699 22.833 15.834 28.5 27.501s8.5 28.5 8.5 50.5v399z" />
    <glyph glyph-name="onehalf" unicode="&#xbd;" horiz-adv-x="2193" 
d="M1405 0l0.00195312 193.003c0 73.333 14 128.333 42 165s86.333 74.334 175 113.001c16.667 7.33301 39 16.666 67 27.999c92 38 138 77 138 117c0 22 -5.33301 39.167 -16 51.5s-25.334 18.5 -44.001 18.5c-20 0 -35.5 -6.83301 -46.5 -20.5s-16.5 -33.5 -16.5 -59.5
v-57h-281v231c52 30 107.167 52.167 165.5 66.5s122.833 21.5 193.5 21.5c116.667 0 203.167 -21.833 259.5 -65.5s84.5 -111.167 84.5 -202.5c0 -42.667 -6 -78.334 -18 -107.001s-31.333 -54.334 -58 -77.001c-20.667 -18.667 -79.667 -49.667 -177 -93l-75 -34
c-45.333 -21.333 -74 -38.5 -86 -51.5s-18 -28.833 -18 -47.5v-8h49c32 0 53.667 5.66699 65 17s17.666 33.666 18.999 66.999h280v-266h-702zM508.002 0.00292969l878 1530h302l-877 -1530h-303zM281.002 1300c0 22.667 -2.83301 40 -8.5 52s-15.167 21.333 -28.5 28v148
h336v-627c0 -24.667 2.5 -42.334 7.5 -53.001s13.833 -19 26.5 -25v-151h-370v151c13.333 6.66699 22.833 15.834 28.5 27.501s8.5 28.5 8.5 50.5v399z" />
    <glyph glyph-name="threequarters" unicode="&#xbe;" horiz-adv-x="2193" 
d="M1788 383v217l-162 -217h162zM1733 0v152c16.667 2.66699 29 8.33398 37 17.001s12 20.667 12 36v4h-391v205l333 442h342v-473h66v-174h-65c0.666992 -16.667 4 -29.334 10 -38.001s15.333 -15 28 -19v-152h-372zM508 0l878 1530h302l-877 -1530h-303zM78 745
l-0.00390625 236.002h287v-53c0 -34 4.33301 -57.167 13 -69.5s23.334 -18.5 44.001 -18.5s36.334 7.66699 47.001 23s16 37.666 16 66.999c0 36 -8.16699 61.333 -24.5 76s-48.166 22 -95.499 22h-89v166h89c46.667 0 77.334 6.33301 92.001 19s22 36.334 22 71.001
c0 24 -5.33301 42.333 -16 55s-26.334 19 -47.001 19c-17.333 0 -30.166 -6.16699 -38.499 -18.5s-12.5 -31.5 -12.5 -57.5v-43h-287v205c46.667 31.333 100.5 55.166 161.5 71.499s127.167 24.5 198.5 24.5c112.667 0 197.5 -20.333 254.5 -61s85.5 -101.667 85.5 -183
c0 -47.333 -10.5 -85.333 -31.5 -114s-53.5 -48.667 -97.5 -60c46 -12.667 80.333 -35.667 103 -69s34 -76.333 34 -129c0 -92.667 -28.167 -160.334 -84.5 -203.001s-145.5 -64 -267.5 -64c-76 0 -143.167 7.33301 -201.5 22s-109.833 36.667 -154.5 66z" />
    <glyph glyph-name="questiondown" unicode="&#xbf;" horiz-adv-x="1270" 
d="M913 1348c0 -55.333 -20.168 -103 -60.501 -143s-88.166 -60 -143.499 -60c-56.667 0 -104.667 19.667 -144 59s-59 87.333 -59 144c0 56 20 104 60 144s87.667 60 143 60c54 0 101.5 -20.5 142.5 -61.5s61.5 -88.5 61.5 -142.5zM945.999 1051v-115.002
c0 -148 -65.333 -259 -196 -333l-15 -9c-73.333 -41.333 -120.666 -74.333 -141.999 -99s-32 -53 -32 -85s8.83301 -57.833 26.5 -77.5s40.167 -29.5 67.5 -29.5c29.333 0 52.166 11.833 68.499 35.5s24.5 56.834 24.5 99.501v88h438v-385c-75.333 -54 -159 -94 -251 -120
s-196.667 -39 -314 -39c-179.333 0 -313.666 37.167 -402.999 111.5s-134 185.833 -134 334.5c0 68 6.66699 124 20 168s35.333 83 66 117c29.333 32.667 85.666 72.334 168.999 119.001c28 15.333 49.333 27.333 64 36c44 26.667 72.5 51.667 85.5 75s19.5 59.333 19.5 108
h438z" />
    <glyph glyph-name="Agrave" unicode="&#xc0;" horiz-adv-x="1339" 
d="M553 664h158l-86 540zM53 0v270c14 5.33301 26.833 19 38.5 41s20.834 50 27.501 84l205 1127h671l232 -1127c8 -34.667 18.333 -62.834 31 -84.501s26.667 -35.167 42 -40.5v-270h-593v270c15.333 5.33301 27.666 15.333 36.999 30s14 32 14 52
c0 3.33301 -1.16699 9.83301 -3.5 19.5s-4.16602 16.834 -5.49902 21.501h-231c-0.666992 -4.66699 -1.83398 -12.334 -3.50098 -23.001s-2.5 -18.667 -2.5 -24c0 -22.667 5.5 -40.167 16.5 -52.5s27.833 -20.166 50.5 -23.499l1 -270h-527zM365 2034h287l192 -371h-154z
" />
    <glyph glyph-name="Aacute" unicode="&#xc1;" horiz-adv-x="1339" 
d="M553 664h158l-86 540zM53 0v270c14 5.33301 26.833 19 38.5 41s20.834 50 27.501 84l205 1127h671l232 -1127c8 -34.667 18.333 -62.834 31 -84.501s26.667 -35.167 42 -40.5v-270h-593v270c15.333 5.33301 27.666 15.333 36.999 30s14 32 14 52
c0 3.33301 -1.16699 9.83301 -3.5 19.5s-4.16602 16.834 -5.49902 21.501h-231c-0.666992 -4.66699 -1.83398 -12.334 -3.50098 -23.001s-2.5 -18.667 -2.5 -24c0 -22.667 5.5 -40.167 16.5 -52.5s27.833 -20.166 50.5 -23.499l1 -270h-527zM688 2034h287l-325 -371h-154z
" />
    <glyph glyph-name="Acircumflex" unicode="&#xc2;" horiz-adv-x="1339" 
d="M553 664h158l-86 540zM53 0v270c14 5.33301 26.833 19 38.5 41s20.834 50 27.501 84l205 1127h671l232 -1127c8 -34.667 18.333 -62.834 31 -84.501s26.667 -35.167 42 -40.5v-270h-593v270c15.333 5.33301 27.666 15.333 36.999 30s14 32 14 52
c0 3.33301 -1.16699 9.83301 -3.5 19.5s-4.16602 16.834 -5.49902 21.501h-231c-0.666992 -4.66699 -1.83398 -12.334 -3.50098 -23.001s-2.5 -18.667 -2.5 -24c0 -22.667 5.5 -40.167 16.5 -52.5s27.833 -20.166 50.5 -23.499l1 -270h-527zM541 2034h256l192 -371h-153
l-166 199l-168 -199h-154z" />
    <glyph glyph-name="Atilde" unicode="&#xc3;" horiz-adv-x="1339" 
d="M553 664h158l-86 540zM53 0v270c14 5.33301 26.833 19 38.5 41s20.834 50 27.501 84l205 1127h671l232 -1127c8 -34.667 18.333 -62.834 31 -84.501s26.667 -35.167 42 -40.5v-270h-593v270c15.333 5.33301 27.666 15.333 36.999 30s14 32 14 52
c0 3.33301 -1.16699 9.83301 -3.5 19.5s-4.16602 16.834 -5.49902 21.501h-231c-0.666992 -4.66699 -1.83398 -12.334 -3.50098 -23.001s-2.5 -18.667 -2.5 -24c0 -22.667 5.5 -40.167 16.5 -52.5s27.833 -20.166 50.5 -23.499l1 -270h-527zM883 1989l118.999 -0.000976562
c-21.333 -90 -49.166 -154.833 -83.499 -194.5s-79.5 -59.5 -135.5 -59.5c-12 0 -24.333 1 -37 3s-25.667 5 -39 9l-93 25l-3 1c-30.667 8.66699 -52 13 -64 13c-22 0 -40.167 -6.16699 -54.5 -18.5s-26.166 -32.166 -35.499 -59.499h-119c18.667 84 45.5 146 80.5 186
s79.833 60 134.5 60c12.667 0 26.667 -1.16699 42 -3.5s31.333 -5.83301 48 -10.5l95 -29c8 -2.66699 16.667 -4.66699 26 -6s19.666 -2 30.999 -2c22 0 40.333 7.16699 55 21.5s25.667 35.833 33 64.5z" />
    <glyph glyph-name="Adieresis" unicode="&#xc4;" horiz-adv-x="1339" 
d="M553 664h158l-86 540zM53 0v270c14 5.33301 26.833 19 38.5 41s20.834 50 27.501 84l205 1127h671l232 -1127c8 -34.667 18.333 -62.834 31 -84.501s26.667 -35.167 42 -40.5v-270h-593v270c15.333 5.33301 27.666 15.333 36.999 30s14 32 14 52
c0 3.33301 -1.16699 9.83301 -3.5 19.5s-4.16602 16.834 -5.49902 21.501h-231c-0.666992 -4.66699 -1.83398 -12.334 -3.50098 -23.001s-2.5 -18.667 -2.5 -24c0 -22.667 5.5 -40.167 16.5 -52.5s27.833 -20.166 50.5 -23.499l1 -270h-527zM699 1848
c0 41.333 14.833 77.168 44.5 107.501s65.167 45.5 106.5 45.5c42.667 0 78.667 -14.833 108 -44.5s44 -65.834 44 -108.501c0 -42 -15 -77.833 -45 -107.5s-65.667 -44.5 -107 -44.5c-40.667 0 -76 15 -106 45s-45 65.667 -45 107zM336 1848
c0 41.333 14.998 77.168 44.998 107.501s65.667 45.5 107 45.5c42.667 0 78.834 -14.833 108.501 -44.5s44.5 -65.834 44.5 -108.501c0 -41.333 -15.167 -77 -45.5 -107s-66.166 -45 -107.499 -45s-77 15 -107 45s-45 65.667 -45 107z" />
    <glyph glyph-name="Aring" unicode="&#xc5;" horiz-adv-x="1339" 
d="M666 1817c-32 0 -59.167 -11.167 -81.5 -33.5s-33.5 -49.5 -33.5 -81.5s11.167 -59.167 33.5 -81.5s49.5 -33.5 81.5 -33.5c31.333 0 58.166 11.167 80.499 33.5s33.5 49.5 33.5 81.5s-11.167 59.167 -33.5 81.5s-49.166 33.5 -80.499 33.5zM553 664h158l-86 540zM53 0
v270c14 5.33301 26.833 19 38.5 41s20.834 50 27.501 84l205 1127h155c-28.667 22.667 -50.167 48.834 -64.5 78.501s-21.5 63.5 -21.5 101.5c0 75.333 26.333 139.166 79 191.499s116.667 78.5 192 78.5s139.5 -26.167 192.5 -78.5s79.5 -116.166 79.5 -191.499
c0 -36.667 -7.83301 -70.334 -23.5 -101.001s-38.5 -57 -68.5 -79h151l232 -1127c8 -34.667 18.333 -62.834 31 -84.501s26.667 -35.167 42 -40.5v-270h-593v270c15.333 5.33301 27.666 15.333 36.999 30s14 32 14 52c0 3.33301 -1.16699 9.83301 -3.5 19.5
s-4.16602 16.834 -5.49902 21.501h-231c-0.666992 -4.66699 -1.83398 -12.334 -3.50098 -23.001s-2.5 -18.667 -2.5 -24c0 -22.667 5.5 -40.167 16.5 -52.5s27.833 -20.166 50.5 -23.499l1 -270h-527z" />
    <glyph glyph-name="AE" unicode="&#xc6;" horiz-adv-x="1898" 
d="M1812 1522v-504h-413v43c0 54.667 -9.33301 91.5 -28 110.5s-53.667 28.5 -105 28.5h-41v-270h301v-295h-301v-307c4.66699 -0.666992 10 -1.16699 16 -1.5s14.333 -0.5 25 -0.5c49.333 0 84.166 12.833 104.499 38.5s30.5 70.834 30.5 135.501
c0 14 -0.166992 24.833 -0.5 32.5s-0.833008 15.167 -1.5 22.5h413v-555h-1101v270c18.667 9.33301 32.5 23.666 41.5 42.999s13.5 44.666 13.5 75.999v10h-242c-2 -13.333 -3.5 -25.833 -4.5 -37.5s-1.5 -22.167 -1.5 -31.5c0 -15.333 3.83301 -28.166 11.5 -38.499
s18.834 -17.5 33.501 -21.5v-270h-522v270c16 12.667 29.667 28.5 41 47.5s22.333 44.167 33 75.5l358 1129h1339zM584 664h182v618z" />
    <glyph glyph-name="Ccedilla" unicode="&#xc7;" horiz-adv-x="1294" 
d="M1210 1384l-0.00195312 -421.003h-456v116c0 54.667 -7 93.334 -21 116.001s-37 34 -69 34c-32.667 0 -56 -11 -70 -33s-21 -61 -21 -117v-633c0 -55.333 7 -94 21 -116s37.333 -33 70 -33s55.834 11 69.501 33s20.5 60.667 20.5 116v191h456v-508
c-68 -54 -148.667 -94.167 -242 -120.5s-202.333 -39.5 -327 -39.5c-198.667 0 -338.834 40.333 -420.501 121s-122.5 221.334 -122.5 422.001v496c0 198 40.5 338.167 121.5 420.5s216.833 123.5 407.5 123.5c114.667 0 221.334 -14.167 320.001 -42.5
s186.334 -70.166 263.001 -125.499zM616.998 -0.00292969l113.997 0.000976562v-84h19c74 0 130.667 -16.5 170 -49.5s59 -80.5 59 -142.5c0 -66.667 -22 -118.167 -66 -154.5s-106.667 -54.5 -188 -54.5c-40 0 -84.667 4 -134 12s-101.666 19.667 -156.999 35v137
c52.667 -14.667 102.834 -25.834 150.501 -33.501s87.834 -11.5 120.501 -11.5c28.667 0 50.167 5.83301 64.5 17.5s21.5 29.834 21.5 54.501c0 21.333 -9.5 37.166 -28.5 47.499s-49.167 15.5 -90.5 15.5c-14 0 -25 -0.166992 -33 -0.5s-15.333 -0.833008 -22 -1.5v213z
" />
    <glyph glyph-name="Egrave" unicode="&#xc8;" horiz-adv-x="1313" 
d="M88 0v269.999c21.333 11.333 36.166 27 44.499 47s12.5 51 12.5 93v706c0 42 -4.16699 73 -12.5 93s-23.166 35.333 -44.499 46v267h1139v-504h-436v43c0 54.667 -9.33301 91.5 -28 110.5s-54 28.5 -106 28.5h-41v-270h302v-295h-302l1 -307
c4 -0.666992 9 -1.16699 15 -1.5s14.333 -0.5 25 -0.5c50 0 85.167 12.833 105.5 38.5s30.5 70.834 30.5 135.501c0 14 -0.166992 24.833 -0.5 32.5s-0.833008 15.167 -1.5 22.5h436v-555h-1139zM352 2034h287l192 -371h-154z" />
    <glyph glyph-name="Eacute" unicode="&#xc9;" horiz-adv-x="1313" 
d="M88 0v269.999c21.333 11.333 36.166 27 44.499 47s12.5 51 12.5 93v706c0 42 -4.16699 73 -12.5 93s-23.166 35.333 -44.499 46v267h1139v-504h-436v43c0 54.667 -9.33301 91.5 -28 110.5s-54 28.5 -106 28.5h-41v-270h302v-295h-302l1 -307
c4 -0.666992 9 -1.16699 15 -1.5s14.333 -0.5 25 -0.5c50 0 85.167 12.833 105.5 38.5s30.5 70.834 30.5 135.501c0 14 -0.166992 24.833 -0.5 32.5s-0.833008 15.167 -1.5 22.5h436v-555h-1139zM675 2034h287l-325 -371h-154z" />
    <glyph glyph-name="Ecircumflex" unicode="&#xca;" horiz-adv-x="1313" 
d="M88 0v269.999c21.333 11.333 36.166 27 44.499 47s12.5 51 12.5 93v706c0 42 -4.16699 73 -12.5 93s-23.166 35.333 -44.499 46v267h1139v-504h-436v43c0 54.667 -9.33301 91.5 -28 110.5s-54 28.5 -106 28.5h-41v-270h302v-295h-302l1 -307
c4 -0.666992 9 -1.16699 15 -1.5s14.333 -0.5 25 -0.5c50 0 85.167 12.833 105.5 38.5s30.5 70.834 30.5 135.501c0 14 -0.166992 24.833 -0.5 32.5s-0.833008 15.167 -1.5 22.5h436v-555h-1139zM528 2034h256l192 -371h-153l-166 199l-168 -199h-154z" />
    <glyph glyph-name="Edieresis" unicode="&#xcb;" horiz-adv-x="1313" 
d="M88 0v269.999c21.333 11.333 36.166 27 44.499 47s12.5 51 12.5 93v706c0 42 -4.16699 73 -12.5 93s-23.166 35.333 -44.499 46v267h1139v-504h-436v43c0 54.667 -9.33301 91.5 -28 110.5s-54 28.5 -106 28.5h-41v-270h302v-295h-302l1 -307
c4 -0.666992 9 -1.16699 15 -1.5s14.333 -0.5 25 -0.5c50 0 85.167 12.833 105.5 38.5s30.5 70.834 30.5 135.501c0 14 -0.166992 24.833 -0.5 32.5s-0.833008 15.167 -1.5 22.5h436v-555h-1139zM686 1848c0 41.333 14.833 77.168 44.5 107.501s65.167 45.5 106.5 45.5
c42.667 0 78.667 -14.833 108 -44.5s44 -65.834 44 -108.501c0 -42 -15 -77.833 -45 -107.5s-65.667 -44.5 -107 -44.5c-40.667 0 -76 15 -106 45s-45 65.667 -45 107zM323 1848c0 41.333 14.998 77.168 44.998 107.501s65.667 45.5 107 45.5
c42.667 0 78.834 -14.833 108.501 -44.5s44.5 -65.834 44.5 -108.501c0 -41.333 -15.167 -77 -45.5 -107s-66.166 -45 -107.499 -45s-77 15 -107 45s-45 65.667 -45 107z" />
    <glyph glyph-name="Igrave" unicode="&#xcc;" horiz-adv-x="778" 
d="M682 1522v-266.999c-20.667 -10 -35 -24.5 -43 -43.5s-12 -50.833 -12 -95.5v-706c0 -45.333 4 -77.333 12 -96s22.333 -33.334 43 -44.001v-270h-588v270c21.333 11.333 36.333 27 45 47s13 51 13 93v706c0 42 -4.33301 73 -13 93s-23.667 35.333 -45 46v267h588z
M84 2034h287l192 -371h-154z" />
    <glyph glyph-name="Iacute" unicode="&#xcd;" horiz-adv-x="778" 
d="M682 1522v-266.999c-20.667 -10 -35 -24.5 -43 -43.5s-12 -50.833 -12 -95.5v-706c0 -45.333 4 -77.333 12 -96s22.333 -33.334 43 -44.001v-270h-588v270c21.333 11.333 36.333 27 45 47s13 51 13 93v706c0 42 -4.33301 73 -13 93s-23.667 35.333 -45 46v267h588z
M407 2034h287l-325 -371h-154z" />
    <glyph glyph-name="Icircumflex" unicode="&#xce;" horiz-adv-x="778" 
d="M682 1522v-266.999c-20.667 -10 -35 -24.5 -43 -43.5s-12 -50.833 -12 -95.5v-706c0 -45.333 4 -77.333 12 -96s22.333 -33.334 43 -44.001v-270h-588v270c21.333 11.333 36.333 27 45 47s13 51 13 93v706c0 42 -4.33301 73 -13 93s-23.667 35.333 -45 46v267h588z
M260 2034h256l192 -371h-153l-166 199l-168 -199h-154z" />
    <glyph glyph-name="Idieresis" unicode="&#xcf;" horiz-adv-x="778" 
d="M682 1522v-266.999c-20.667 -10 -35 -24.5 -43 -43.5s-12 -50.833 -12 -95.5v-706c0 -45.333 4 -77.333 12 -96s22.333 -33.334 43 -44.001v-270h-588v270c21.333 11.333 36.333 27 45 47s13 51 13 93v706c0 42 -4.33301 73 -13 93s-23.667 35.333 -45 46v267h588z
M418 1848c0 41.333 14.833 77.168 44.5 107.501s65.167 45.5 106.5 45.5c42.667 0 78.667 -14.833 108 -44.5s44 -65.834 44 -108.501c0 -42 -15 -77.833 -45 -107.5s-65.667 -44.5 -107 -44.5c-40.667 0 -76 15 -106 45s-45 65.667 -45 107zM55 1848
c0 41.333 14.998 77.168 44.998 107.501s65.667 45.5 107 45.5c42.667 0 78.834 -14.833 108.501 -44.5s44.5 -65.834 44.5 -108.501c0 -41.333 -15.167 -77 -45.5 -107s-66.166 -45 -107.499 -45s-77 15 -107 45s-45 65.667 -45 107z" />
    <glyph glyph-name="Eth" unicode="&#xd0;" horiz-adv-x="1405" 
d="M633 332h88c48.667 0 82 10.667 100 32s27 63 27 125v558c0 58 -8.83301 96.333 -26.5 115s-51.167 28 -100.5 28h-88v-275h106v-241h-106v-342zM121 0v270c20.667 11.333 35.334 27 44.001 47s13 51 13 93v264h-131v241h131v201c0 42 -4.33301 73 -13 93
s-23.334 35.333 -44.001 46v267h584c236 0 395.333 -37 478 -111s124 -214.667 124 -422v-457c0 -206.667 -41.5 -347 -124.5 -421s-242.167 -111 -477.5 -111h-584z" />
    <glyph glyph-name="Ntilde" unicode="&#xd1;" horiz-adv-x="1376" 
d="M504 410c0 -48.667 4.16895 -82.167 12.502 -100.5s23.166 -31.5 44.499 -39.5v-270h-487v270c20.667 11.333 35.334 27 44.001 47s13 51 13 93v706c0 42 -4.33301 73 -13 93s-23.334 35.333 -44.001 46v267h524l289 -770v364c0 48 -4.83301 80.833 -14.5 98.5
s-26.834 31.167 -51.501 40.5v267h496v-267c-20.667 -10 -35 -24.5 -43 -43.5s-12 -50.833 -12 -95.5v-1116h-463l-295 725v-315zM901.002 1989l118.999 -0.000976562c-21.333 -90 -49.166 -154.833 -83.499 -194.5s-79.5 -59.5 -135.5 -59.5c-12 0 -24.333 1 -37 3
s-25.667 5 -39 9l-93 25l-3 1c-30.667 8.66699 -52 13 -64 13c-22 0 -40.167 -6.16699 -54.5 -18.5s-26.166 -32.166 -35.499 -59.499h-119c18.667 84 45.5 146 80.5 186s79.833 60 134.5 60c12.667 0 26.667 -1.16699 42 -3.5s31.333 -5.83301 48 -10.5l95 -29
c8 -2.66699 16.667 -4.66699 26 -6s19.666 -2 30.999 -2c22 0 40.333 7.16699 55 21.5s25.667 35.833 33 64.5z" />
    <glyph glyph-name="Ograve" unicode="&#xd2;" horiz-adv-x="1335" 
d="M762 446v632.999c0 54 -7.33301 92.5 -22 115.5s-38.667 34.5 -72 34.5c-34 0 -58.333 -11.167 -73 -33.5s-22 -61.166 -22 -116.499v-633c0 -54.667 7.33301 -93.167 22 -115.5s39 -33.5 73 -33.5c33.333 0 57.333 11.333 72 34s22 61 22 115zM98 1008
c0 204 42.002 345.666 126.002 424.999s232 119 444 119c211.333 0 358.666 -39.667 441.999 -119s125 -221 125 -425v-496c0 -203.333 -41.5 -344.666 -124.5 -423.999s-230.5 -119 -442.5 -119c-212.667 0 -360.834 39.5 -444.501 118.5s-125.5 220.5 -125.5 424.5v496z
M363.002 2034h287l192 -371h-154z" />
    <glyph glyph-name="Oacute" unicode="&#xd3;" horiz-adv-x="1335" 
d="M762 446v632.999c0 54 -7.33301 92.5 -22 115.5s-38.667 34.5 -72 34.5c-34 0 -58.333 -11.167 -73 -33.5s-22 -61.166 -22 -116.499v-633c0 -54.667 7.33301 -93.167 22 -115.5s39 -33.5 73 -33.5c33.333 0 57.333 11.333 72 34s22 61 22 115zM98 1008
c0 204 42.002 345.666 126.002 424.999s232 119 444 119c211.333 0 358.666 -39.667 441.999 -119s125 -221 125 -425v-496c0 -203.333 -41.5 -344.666 -124.5 -423.999s-230.5 -119 -442.5 -119c-212.667 0 -360.834 39.5 -444.501 118.5s-125.5 220.5 -125.5 424.5v496z
M686.002 2034h287l-325 -371h-154z" />
    <glyph glyph-name="Ocircumflex" unicode="&#xd4;" horiz-adv-x="1335" 
d="M762 446v632.999c0 54 -7.33301 92.5 -22 115.5s-38.667 34.5 -72 34.5c-34 0 -58.333 -11.167 -73 -33.5s-22 -61.166 -22 -116.499v-633c0 -54.667 7.33301 -93.167 22 -115.5s39 -33.5 73 -33.5c33.333 0 57.333 11.333 72 34s22 61 22 115zM98 1008
c0 204 42.002 345.666 126.002 424.999s232 119 444 119c211.333 0 358.666 -39.667 441.999 -119s125 -221 125 -425v-496c0 -203.333 -41.5 -344.666 -124.5 -423.999s-230.5 -119 -442.5 -119c-212.667 0 -360.834 39.5 -444.501 118.5s-125.5 220.5 -125.5 424.5v496z
M539.002 2034h256l192 -371h-153l-166 199l-168 -199h-154z" />
    <glyph glyph-name="Otilde" unicode="&#xd5;" horiz-adv-x="1335" 
d="M762 446v632.999c0 54 -7.33301 92.5 -22 115.5s-38.667 34.5 -72 34.5c-34 0 -58.333 -11.167 -73 -33.5s-22 -61.166 -22 -116.499v-633c0 -54.667 7.33301 -93.167 22 -115.5s39 -33.5 73 -33.5c33.333 0 57.333 11.333 72 34s22 61 22 115zM98 1008
c0 204 42.002 345.666 126.002 424.999s232 119 444 119c211.333 0 358.666 -39.667 441.999 -119s125 -221 125 -425v-496c0 -203.333 -41.5 -344.666 -124.5 -423.999s-230.5 -119 -442.5 -119c-212.667 0 -360.834 39.5 -444.501 118.5s-125.5 220.5 -125.5 424.5v496z
M881.002 1989l118.999 -0.000976562c-21.333 -90 -49.166 -154.833 -83.499 -194.5s-79.5 -59.5 -135.5 -59.5c-12 0 -24.333 1 -37 3s-25.667 5 -39 9l-93 25l-3 1c-30.667 8.66699 -52 13 -64 13c-22 0 -40.167 -6.16699 -54.5 -18.5s-26.166 -32.166 -35.499 -59.499
h-119c18.667 84 45.5 146 80.5 186s79.833 60 134.5 60c12.667 0 26.667 -1.16699 42 -3.5s31.333 -5.83301 48 -10.5l95 -29c8 -2.66699 16.667 -4.66699 26 -6s19.666 -2 30.999 -2c22 0 40.333 7.16699 55 21.5s25.667 35.833 33 64.5z" />
    <glyph glyph-name="Odieresis" unicode="&#xd6;" horiz-adv-x="1335" 
d="M762 446v632.999c0 54 -7.33301 92.5 -22 115.5s-38.667 34.5 -72 34.5c-34 0 -58.333 -11.167 -73 -33.5s-22 -61.166 -22 -116.499v-633c0 -54.667 7.33301 -93.167 22 -115.5s39 -33.5 73 -33.5c33.333 0 57.333 11.333 72 34s22 61 22 115zM98 1008
c0 204 42.002 345.666 126.002 424.999s232 119 444 119c211.333 0 358.666 -39.667 441.999 -119s125 -221 125 -425v-496c0 -203.333 -41.5 -344.666 -124.5 -423.999s-230.5 -119 -442.5 -119c-212.667 0 -360.834 39.5 -444.501 118.5s-125.5 220.5 -125.5 424.5v496z
M697.002 1848c0 41.333 14.833 77.168 44.5 107.501s65.167 45.5 106.5 45.5c42.667 0 78.667 -14.833 108 -44.5s44 -65.834 44 -108.501c0 -42 -15 -77.833 -45 -107.5s-65.667 -44.5 -107 -44.5c-40.667 0 -76 15 -106 45s-45 65.667 -45 107zM334.002 1848
c0 41.333 14.998 77.168 44.998 107.501s65.667 45.5 107 45.5c42.667 0 78.834 -14.833 108.501 -44.5s44.5 -65.834 44.5 -108.501c0 -41.333 -15.167 -77 -45.5 -107s-66.166 -45 -107.499 -45s-77 15 -107 45s-45 65.667 -45 107z" />
    <glyph glyph-name="multiply" unicode="&#xd7;" horiz-adv-x="1706" 
d="M874 805l426 426l195 -195l-426 -426l426 -426l-195 -194l-426 426l-425 -426l-195 194l426 426l-426 426l195 195z" />
    <glyph glyph-name="Oslash" unicode="&#xd8;" horiz-adv-x="1335" 
d="M762 446v632.999c0 54 -7.33301 92.5 -22 115.5s-38.667 34.5 -72 34.5c-34 0 -58.333 -11.167 -73 -33.5s-22 -61.166 -22 -116.499v-633c0 -54.667 7.33301 -93.167 22 -115.5s39 -33.5 73 -33.5c33.333 0 57.333 11.333 72 34s22 61 22 115zM98 1008
c0 204 42 345.668 126 425.001s232 119 444 119c64.667 0 118 -2.16699 160 -6.5s80 -11.5 114 -21.5l68 112l305 -184l-111 -178c11.333 -25.333 19.333 -56.333 24 -93s7 -94.334 7 -173.001v-496c0 -203.333 -41.5 -344.666 -124.5 -423.999s-230.5 -119 -442.5 -119
c-48 0 -91.333 2.16699 -130 6.5s-73.334 11.166 -104.001 20.499l-82 -133l-311 180l102 166c-15.333 24 -26.666 59.5 -33.999 106.5s-11 112.5 -11 196.5v496z" />
    <glyph glyph-name="Ugrave" unicode="&#xd9;" horiz-adv-x="1346" 
d="M784 1116c0 46 -3.83301 78.4971 -11.5 97.4971s-21.5 32.833 -41.5 41.5v267h543v-267c-21.333 -10 -36.166 -24.833 -44.499 -44.5s-12.5 -51.167 -12.5 -94.5v-536c0 -118.667 -4 -203.5 -12 -254.5s-21.333 -93.833 -40 -128.5
c-41.333 -77.333 -103 -134.666 -185 -171.999s-186.667 -56 -314 -56c-109.333 0 -202.333 15.5 -279 46.5s-137.334 77.833 -182.001 140.5c-26 36.667 -44.5 78.167 -55.5 124.5s-16.5 112.5 -16.5 198.5v80v557c0 42 -5 73 -15 93s-27.333 35.333 -52 46v267h583v-266
c-20 -9.33301 -33.833 -23.166 -41.5 -41.499s-11.5 -51.166 -11.5 -98.499v-670c0 -54.667 7.16699 -93.167 21.5 -115.5s38.5 -33.5 72.5 -33.5s58.167 11.333 72.5 34s21.5 61 21.5 115v670zM369 2034h287l192 -371h-154z" />
    <glyph glyph-name="Uacute" unicode="&#xda;" horiz-adv-x="1346" 
d="M784 1116c0 46 -3.83301 78.4971 -11.5 97.4971s-21.5 32.833 -41.5 41.5v267h543v-267c-21.333 -10 -36.166 -24.833 -44.499 -44.5s-12.5 -51.167 -12.5 -94.5v-536c0 -118.667 -4 -203.5 -12 -254.5s-21.333 -93.833 -40 -128.5
c-41.333 -77.333 -103 -134.666 -185 -171.999s-186.667 -56 -314 -56c-109.333 0 -202.333 15.5 -279 46.5s-137.334 77.833 -182.001 140.5c-26 36.667 -44.5 78.167 -55.5 124.5s-16.5 112.5 -16.5 198.5v80v557c0 42 -5 73 -15 93s-27.333 35.333 -52 46v267h583v-266
c-20 -9.33301 -33.833 -23.166 -41.5 -41.499s-11.5 -51.166 -11.5 -98.499v-670c0 -54.667 7.16699 -93.167 21.5 -115.5s38.5 -33.5 72.5 -33.5s58.167 11.333 72.5 34s21.5 61 21.5 115v670zM692 2034h287l-325 -371h-154z" />
    <glyph glyph-name="Ucircumflex" unicode="&#xdb;" horiz-adv-x="1346" 
d="M784 1116c0 46 -3.83301 78.4971 -11.5 97.4971s-21.5 32.833 -41.5 41.5v267h543v-267c-21.333 -10 -36.166 -24.833 -44.499 -44.5s-12.5 -51.167 -12.5 -94.5v-536c0 -118.667 -4 -203.5 -12 -254.5s-21.333 -93.833 -40 -128.5
c-41.333 -77.333 -103 -134.666 -185 -171.999s-186.667 -56 -314 -56c-109.333 0 -202.333 15.5 -279 46.5s-137.334 77.833 -182.001 140.5c-26 36.667 -44.5 78.167 -55.5 124.5s-16.5 112.5 -16.5 198.5v80v557c0 42 -5 73 -15 93s-27.333 35.333 -52 46v267h583v-266
c-20 -9.33301 -33.833 -23.166 -41.5 -41.499s-11.5 -51.166 -11.5 -98.499v-670c0 -54.667 7.16699 -93.167 21.5 -115.5s38.5 -33.5 72.5 -33.5s58.167 11.333 72.5 34s21.5 61 21.5 115v670zM545 2034h256l192 -371h-153l-166 199l-168 -199h-154z" />
    <glyph glyph-name="Udieresis" unicode="&#xdc;" horiz-adv-x="1346" 
d="M784 1116c0 46 -3.83301 78.4971 -11.5 97.4971s-21.5 32.833 -41.5 41.5v267h543v-267c-21.333 -10 -36.166 -24.833 -44.499 -44.5s-12.5 -51.167 -12.5 -94.5v-536c0 -118.667 -4 -203.5 -12 -254.5s-21.333 -93.833 -40 -128.5
c-41.333 -77.333 -103 -134.666 -185 -171.999s-186.667 -56 -314 -56c-109.333 0 -202.333 15.5 -279 46.5s-137.334 77.833 -182.001 140.5c-26 36.667 -44.5 78.167 -55.5 124.5s-16.5 112.5 -16.5 198.5v80v557c0 42 -5 73 -15 93s-27.333 35.333 -52 46v267h583v-266
c-20 -9.33301 -33.833 -23.166 -41.5 -41.499s-11.5 -51.166 -11.5 -98.499v-670c0 -54.667 7.16699 -93.167 21.5 -115.5s38.5 -33.5 72.5 -33.5s58.167 11.333 72.5 34s21.5 61 21.5 115v670zM703 1848c0 41.333 14.833 77.168 44.5 107.501s65.167 45.5 106.5 45.5
c42.667 0 78.667 -14.833 108 -44.5s44 -65.834 44 -108.501c0 -42 -15 -77.833 -45 -107.5s-65.667 -44.5 -107 -44.5c-40.667 0 -76 15 -106 45s-45 65.667 -45 107zM340 1848c0 41.333 14.998 77.168 44.998 107.501s65.667 45.5 107 45.5
c42.667 0 78.834 -14.833 108.501 -44.5s44.5 -65.834 44.5 -108.501c0 -41.333 -15.167 -77 -45.5 -107s-66.166 -45 -107.499 -45s-77 15 -107 45s-45 65.667 -45 107z" />
    <glyph glyph-name="Yacute" unicode="&#xdd;" horiz-adv-x="1204" 
d="M838 410c0 -44 5 -75.501 15 -94.501s28 -34.167 54 -45.5v-270h-614v270c26 11.333 44 26.833 54 46.5s15 50.834 15 93.501v188l-296 586c-6 12 -13.667 23.667 -23 35s-21.666 23.333 -36.999 36v267h535v-176c0 -60.667 2.16699 -104.834 6.5 -132.501
s11.5 -53.167 21.5 -76.5l62 -138l61 142c11.333 26 19.666 54.667 24.999 86s8 66 8 104v191h473v-267c-12 -7.33301 -22.667 -16.666 -32 -27.999s-18.333 -25 -27 -41l-301 -588v-188zM620 2034h287l-325 -371h-154z" />
    <glyph glyph-name="Thorn" unicode="&#xde;" horiz-adv-x="1280" 
d="M610 639l25 -0.000976562c58 0 97.667 9.5 119 28.5s32 53.833 32 104.5v41c0 52.667 -9.33301 89.334 -28 110.001s-50 31 -94 31h-54v-315zM143 1116c0 43.333 -4 74.6641 -12 93.9971s-22.333 34.333 -43 45v267h580v-199
c-20.667 -7.33301 -35.5 -17.666 -44.5 -30.999s-13.5 -31.666 -13.5 -54.999v-8h121c186.667 0 316 -32.833 388 -98.5s108 -187.167 108 -364.5c0 -142.667 -37.333 -245.167 -112 -307.5s-200.667 -93.5 -378 -93.5h-127v-27c0 -48 5.83301 -81.167 17.5 -99.5
s32.5 -31.5 62.5 -39.5v-199h-602v270c20.667 10.667 35 25.834 43 45.501s12 51.167 12 94.5v706z" />
    <glyph glyph-name="germandbls" unicode="&#xdf;" horiz-adv-x="1233" 
d="M94 0l-0.000976562 251.998c17.333 5.33301 29.5 17.333 36.5 36s10.5 48.334 10.5 89.001v733c0 162 35.5 273.5 106.5 334.5s194.5 91.5 370.5 91.5c189.333 0 322 -28.833 398 -86.5s114 -157.834 114 -300.501c0 -86 -13 -152 -39 -198s-68 -78.333 -126 -97
c62 -18 105.833 -47.667 131.5 -89s38.5 -104.666 38.5 -189.999v-221c0 -131.333 -26.167 -223.166 -78.5 -275.499s-142.5 -78.5 -270.5 -78.5h-165v252c40 4 67 15.667 81 35s21 58 21 116v193c0 36 -8 63.167 -24 81.5s-40 27.5 -72 27.5h-6v253
c38.667 2.66699 65.334 12.667 80.001 30s22 47.666 22 90.999v86c0 38.667 -7.33301 67.834 -22 87.501s-36 29.5 -64 29.5s-48 -8.5 -60 -25.5s-18 -46.167 -18 -87.5v-1169h-465z" />
    <glyph glyph-name="agrave" unicode="&#xe0;" horiz-adv-x="1202" 
d="M666 307l0.000976562 176.002c-76.667 -30.667 -124.5 -54.834 -143.5 -72.501s-28.5 -39.834 -28.5 -66.501c0 -26 6 -45.833 18 -59.5s29 -20.5 51 -20.5c18.667 0 36.667 3.66699 54 11s33.666 18 48.999 32zM684.001 0.00195312l-14.0029 96
c-35.333 -40 -75.666 -69 -120.999 -87s-100.666 -27 -165.999 -27c-98.667 0 -175.167 28 -229.5 84s-81.5 135 -81.5 237c0 168 188.667 306.667 566 416l28 8v21c0 44.667 -6.5 77.667 -19.5 99s-33.167 32 -60.5 32s-47.5 -10.667 -60.5 -32s-19.5 -54.333 -19.5 -99
v-21h-385v264c60.667 46.667 135.334 83 224.001 109s184 39 286 39c155.333 0 268.5 -32.667 339.5 -98s106.5 -170 106.5 -314v-342c0 -40 4.16699 -70 12.5 -90s21.833 -34.333 40.5 -43v-252h-446zM296.998 1618h287l192 -371h-154z" />
    <glyph glyph-name="aacute" unicode="&#xe1;" horiz-adv-x="1202" 
d="M666 307l0.000976562 176.002c-76.667 -30.667 -124.5 -54.834 -143.5 -72.501s-28.5 -39.834 -28.5 -66.501c0 -26 6 -45.833 18 -59.5s29 -20.5 51 -20.5c18.667 0 36.667 3.66699 54 11s33.666 18 48.999 32zM684.001 0.00195312l-14.0029 96
c-35.333 -40 -75.666 -69 -120.999 -87s-100.666 -27 -165.999 -27c-98.667 0 -175.167 28 -229.5 84s-81.5 135 -81.5 237c0 168 188.667 306.667 566 416l28 8v21c0 44.667 -6.5 77.667 -19.5 99s-33.167 32 -60.5 32s-47.5 -10.667 -60.5 -32s-19.5 -54.333 -19.5 -99
v-21h-385v264c60.667 46.667 135.334 83 224.001 109s184 39 286 39c155.333 0 268.5 -32.667 339.5 -98s106.5 -170 106.5 -314v-342c0 -40 4.16699 -70 12.5 -90s21.833 -34.333 40.5 -43v-252h-446zM619.998 1618h287l-325 -371h-154z" />
    <glyph glyph-name="acircumflex" unicode="&#xe2;" horiz-adv-x="1202" 
d="M666 307l0.000976562 176.002c-76.667 -30.667 -124.5 -54.834 -143.5 -72.501s-28.5 -39.834 -28.5 -66.501c0 -26 6 -45.833 18 -59.5s29 -20.5 51 -20.5c18.667 0 36.667 3.66699 54 11s33.666 18 48.999 32zM684.001 0.00195312l-14.0029 96
c-35.333 -40 -75.666 -69 -120.999 -87s-100.666 -27 -165.999 -27c-98.667 0 -175.167 28 -229.5 84s-81.5 135 -81.5 237c0 168 188.667 306.667 566 416l28 8v21c0 44.667 -6.5 77.667 -19.5 99s-33.167 32 -60.5 32s-47.5 -10.667 -60.5 -32s-19.5 -54.333 -19.5 -99
v-21h-385v264c60.667 46.667 135.334 83 224.001 109s184 39 286 39c155.333 0 268.5 -32.667 339.5 -98s106.5 -170 106.5 -314v-342c0 -40 4.16699 -70 12.5 -90s21.833 -34.333 40.5 -43v-252h-446zM472.998 1618h256l192 -371h-153l-166 199l-168 -199h-154z" />
    <glyph glyph-name="atilde" unicode="&#xe3;" horiz-adv-x="1202" 
d="M666 307l0.000976562 176.002c-76.667 -30.667 -124.5 -54.834 -143.5 -72.501s-28.5 -39.834 -28.5 -66.501c0 -26 6 -45.833 18 -59.5s29 -20.5 51 -20.5c18.667 0 36.667 3.66699 54 11s33.666 18 48.999 32zM684.001 0.00195312l-14.0029 96
c-35.333 -40 -75.666 -69 -120.999 -87s-100.666 -27 -165.999 -27c-98.667 0 -175.167 28 -229.5 84s-81.5 135 -81.5 237c0 168 188.667 306.667 566 416l28 8v21c0 44.667 -6.5 77.667 -19.5 99s-33.167 32 -60.5 32s-47.5 -10.667 -60.5 -32s-19.5 -54.333 -19.5 -99
v-21h-385v264c60.667 46.667 135.334 83 224.001 109s184 39 286 39c155.333 0 268.5 -32.667 339.5 -98s106.5 -170 106.5 -314v-342c0 -40 4.16699 -70 12.5 -90s21.833 -34.333 40.5 -43v-252h-446zM814.998 1573l118.999 -0.000976562
c-21.333 -90 -49.166 -154.833 -83.499 -194.5s-79.5 -59.5 -135.5 -59.5c-12 0 -24.333 1 -37 3s-25.667 5 -39 9l-93 25l-3 1c-30.667 8.66699 -52 13 -64 13c-22 0 -40.167 -6.16699 -54.5 -18.5s-26.166 -32.166 -35.499 -59.499h-119c18.667 84 45.5 146 80.5 186
s79.833 60 134.5 60c12.667 0 26.667 -1.16699 42 -3.5s31.333 -5.83301 48 -10.5l95 -29c8 -2.66699 16.667 -4.66699 26 -6s19.666 -2 30.999 -2c22 0 40.333 7.16699 55 21.5s25.667 35.833 33 64.5z" />
    <glyph glyph-name="adieresis" unicode="&#xe4;" horiz-adv-x="1202" 
d="M666 307l0.000976562 176.002c-76.667 -30.667 -124.5 -54.834 -143.5 -72.501s-28.5 -39.834 -28.5 -66.501c0 -26 6 -45.833 18 -59.5s29 -20.5 51 -20.5c18.667 0 36.667 3.66699 54 11s33.666 18 48.999 32zM684.001 0.00195312l-14.0029 96
c-35.333 -40 -75.666 -69 -120.999 -87s-100.666 -27 -165.999 -27c-98.667 0 -175.167 28 -229.5 84s-81.5 135 -81.5 237c0 168 188.667 306.667 566 416l28 8v21c0 44.667 -6.5 77.667 -19.5 99s-33.167 32 -60.5 32s-47.5 -10.667 -60.5 -32s-19.5 -54.333 -19.5 -99
v-21h-385v264c60.667 46.667 135.334 83 224.001 109s184 39 286 39c155.333 0 268.5 -32.667 339.5 -98s106.5 -170 106.5 -314v-342c0 -40 4.16699 -70 12.5 -90s21.833 -34.333 40.5 -43v-252h-446zM630.998 1432c0 41.333 14.833 77.168 44.5 107.501
s65.167 45.5 106.5 45.5c42.667 0 78.667 -14.833 108 -44.5s44 -65.834 44 -108.501c0 -42 -15 -77.833 -45 -107.5s-65.667 -44.5 -107 -44.5c-40.667 0 -76 15 -106 45s-45 65.667 -45 107zM267.998 1432c0 41.333 14.998 77.168 44.998 107.501s65.667 45.5 107 45.5
c42.667 0 78.834 -14.833 108.501 -44.5s44.5 -65.834 44.5 -108.501c0 -41.333 -15.167 -77 -45.5 -107s-66.166 -45 -107.499 -45s-77 15 -107 45s-45 65.667 -45 107z" />
    <glyph glyph-name="aring" unicode="&#xe5;" horiz-adv-x="1202" 
d="M600 1589c-32 0 -59.167 -11.167 -81.5 -33.5s-33.5 -49.166 -33.5 -80.499c0 -32 11.167 -58.833 33.5 -80.5s49.5 -32.5 81.5 -32.5s59.167 10.833 81.5 32.5s33.5 48.5 33.5 80.5c0 31.333 -11.167 58.166 -33.5 80.499s-49.5 33.5 -81.5 33.5zM600 1747
c75.333 0 139.166 -26.334 191.499 -79.001s78.5 -116.334 78.5 -191.001c0 -76 -26.167 -140.5 -78.5 -193.5s-116.166 -79.5 -191.499 -79.5c-76 0 -140.333 26.333 -193 79s-79 117.334 -79 194.001c0 74.667 26.5 138.334 79.5 191.001s117.167 79 192.5 79z
M666 306.999l0.000976562 176.002c-76.667 -30.667 -124.5 -54.834 -143.5 -72.501s-28.5 -39.834 -28.5 -66.501c0 -26 6 -45.833 18 -59.5s29 -20.5 51 -20.5c18.667 0 36.667 3.66699 54 11s33.666 18 48.999 32zM684.001 0.000976562l-14.0029 96
c-35.333 -40 -75.666 -69 -120.999 -87s-100.666 -27 -165.999 -27c-98.667 0 -175.167 28 -229.5 84s-81.5 135 -81.5 237c0 168 188.667 306.667 566 416l28 8v21c0 44.667 -6.5 77.667 -19.5 99s-33.167 32 -60.5 32s-47.5 -10.667 -60.5 -32s-19.5 -54.333 -19.5 -99
v-21h-385v264c60.667 46.667 135.334 83 224.001 109s184 39 286 39c155.333 0 268.5 -32.667 339.5 -98s106.5 -170 106.5 -314v-342c0 -40 4.16699 -70 12.5 -90s21.833 -34.333 40.5 -43v-252h-446z" />
    <glyph glyph-name="ae" unicode="&#xe6;" horiz-adv-x="1737" 
d="M1069 748v-41h166v41c0 48 -6.5 81.833 -19.5 101.5s-34.5 29.5 -64.5 29.5c-29.333 0 -50.333 -10 -63 -30s-19 -53.667 -19 -101zM1069 371c0 -49.333 6.33594 -83.832 19.0029 -103.499s33.667 -29.5 63 -29.5s50.666 10.167 63.999 30.5s20 54.5 20 102.5v30h416
v-276c-56 -46 -126.833 -81.333 -212.5 -106s-181.5 -37 -287.5 -37c-78 0 -148.5 11 -211.5 33s-115.5 54 -157.5 96c-56.667 -42.667 -118.834 -74.834 -186.501 -96.501s-138.5 -32.5 -212.5 -32.5c-98.667 0 -175.167 28 -229.5 84s-81.5 135 -81.5 237
c0 168 188.667 306.667 566 416l28 8v21c0 44.667 -6.5 77.667 -19.5 99s-33.167 32 -60.5 32s-47.5 -10.667 -60.5 -32s-19.5 -54.333 -19.5 -99v-21h-385v264c62 47.333 133.167 83.5 213.5 108.5s165.5 37.5 255.5 37.5c56 0 106.5 -6 151.5 -18s86.5 -30.667 124.5 -56
c38 24 83.333 42.333 136 55s112 19 178 19c169.333 0 290.166 -33.333 362.499 -100s108.5 -179 108.5 -337v-225h-582v-104zM666.003 313.001v159.999c-74 -27.333 -120.5 -49.166 -139.5 -65.499s-28.5 -36.833 -28.5 -61.5c0 -22.667 6 -40.334 18 -53.001
s29 -19 51 -19c17.333 0 34.5 3.33301 51.5 10s32.833 16.334 47.5 29.001z" />
    <glyph glyph-name="ccedilla" unicode="&#xe7;" horiz-adv-x="1128" 
d="M668 748c0 48.667 -6.33301 82.665 -19 101.998s-33.667 29 -63 29s-50.333 -10 -63 -30s-19 -53.667 -19 -101v-377c0 -49.333 6.16699 -83.833 18.5 -103.5s33.5 -29.5 63.5 -29.5c28.667 0 49.5 10 62.5 30s19.5 54.333 19.5 103v100h385v-346
c-58.667 -48.667 -128.667 -84.667 -210 -108s-176 -35 -284 -35c-172.667 0 -294 30.167 -364 90.5s-105 165.833 -105 316.5v340c0 148.667 34.833 253.834 104.5 315.501s187.167 92.5 352.5 92.5c100 0 192.5 -12.167 277.5 -36.5s161.167 -60.166 228.5 -107.499v-299
h-385v54zM525 -0.00195312l113.997 0.000976562v-84h19c74 0 130.667 -16.5 170 -49.5s59 -80.5 59 -142.5c0 -66.667 -22 -118.167 -66 -154.5s-106.667 -54.5 -188 -54.5c-40 0 -84.667 4 -134 12s-101.666 19.667 -156.999 35v137
c52.667 -14.667 102.834 -25.834 150.501 -33.501s87.834 -11.5 120.501 -11.5c28.667 0 50.167 5.83301 64.5 17.5s21.5 29.834 21.5 54.501c0 21.333 -9.5 37.166 -28.5 47.499s-49.167 15.5 -90.5 15.5c-14 0 -25 -0.166992 -33 -0.5s-15.333 -0.833008 -22 -1.5v213z
" />
    <glyph glyph-name="egrave" unicode="&#xe8;" horiz-adv-x="1171" 
d="M504 748v-41h164v41c0 48.667 -6.33301 82.667 -19 102s-33.667 29 -63 29s-50.333 -10 -63 -30s-19 -53.667 -19 -101zM504 371c0 -49.333 6.16895 -83.834 18.502 -103.501s33.5 -29.5 63.5 -29.5c28.667 0 49.5 10 62.5 30s19.5 54.333 19.5 103v30h415v-276
c-54.667 -46.667 -126.334 -82.167 -215.001 -106.5s-191 -36.5 -307 -36.5c-172.667 0 -294.334 30.333 -365.001 91s-106 166 -106 316v340c0 152.667 35.833 258.834 107.5 318.501s201.167 89.5 388.5 89.5c184 0 312.833 -32.333 386.5 -97s110.5 -178 110.5 -340v-225
h-579v-104zM281.002 1618h287l192 -371h-154z" />
    <glyph glyph-name="eacute" unicode="&#xe9;" horiz-adv-x="1171" 
d="M504 748v-41h164v41c0 48.667 -6.33301 82.667 -19 102s-33.667 29 -63 29s-50.333 -10 -63 -30s-19 -53.667 -19 -101zM504 371c0 -49.333 6.16895 -83.834 18.502 -103.501s33.5 -29.5 63.5 -29.5c28.667 0 49.5 10 62.5 30s19.5 54.333 19.5 103v30h415v-276
c-54.667 -46.667 -126.334 -82.167 -215.001 -106.5s-191 -36.5 -307 -36.5c-172.667 0 -294.334 30.333 -365.001 91s-106 166 -106 316v340c0 152.667 35.833 258.834 107.5 318.501s201.167 89.5 388.5 89.5c184 0 312.833 -32.333 386.5 -97s110.5 -178 110.5 -340v-225
h-579v-104zM604.002 1618h287l-325 -371h-154z" />
    <glyph glyph-name="ecircumflex" unicode="&#xea;" horiz-adv-x="1171" 
d="M504 748v-41h164v41c0 48.667 -6.33301 82.667 -19 102s-33.667 29 -63 29s-50.333 -10 -63 -30s-19 -53.667 -19 -101zM504 371c0 -49.333 6.16895 -83.834 18.502 -103.501s33.5 -29.5 63.5 -29.5c28.667 0 49.5 10 62.5 30s19.5 54.333 19.5 103v30h415v-276
c-54.667 -46.667 -126.334 -82.167 -215.001 -106.5s-191 -36.5 -307 -36.5c-172.667 0 -294.334 30.333 -365.001 91s-106 166 -106 316v340c0 152.667 35.833 258.834 107.5 318.501s201.167 89.5 388.5 89.5c184 0 312.833 -32.333 386.5 -97s110.5 -178 110.5 -340v-225
h-579v-104zM457.002 1618h256l192 -371h-153l-166 199l-168 -199h-154z" />
    <glyph glyph-name="edieresis" unicode="&#xeb;" horiz-adv-x="1171" 
d="M504 748v-41h164v41c0 48.667 -6.33301 82.667 -19 102s-33.667 29 -63 29s-50.333 -10 -63 -30s-19 -53.667 -19 -101zM504 371c0 -49.333 6.16895 -83.834 18.502 -103.501s33.5 -29.5 63.5 -29.5c28.667 0 49.5 10 62.5 30s19.5 54.333 19.5 103v30h415v-276
c-54.667 -46.667 -126.334 -82.167 -215.001 -106.5s-191 -36.5 -307 -36.5c-172.667 0 -294.334 30.333 -365.001 91s-106 166 -106 316v340c0 152.667 35.833 258.834 107.5 318.501s201.167 89.5 388.5 89.5c184 0 312.833 -32.333 386.5 -97s110.5 -178 110.5 -340v-225
h-579v-104zM615.002 1432c0 41.333 14.833 77.168 44.5 107.501s65.167 45.5 106.5 45.5c42.667 0 78.667 -14.833 108 -44.5s44 -65.834 44 -108.501c0 -42 -15 -77.833 -45 -107.5s-65.667 -44.5 -107 -44.5c-40.667 0 -76 15 -106 45s-45 65.667 -45 107zM252.002 1432
c0 41.333 14.998 77.168 44.998 107.501s65.667 45.5 107 45.5c42.667 0 78.834 -14.833 108.501 -44.5s44.5 -65.834 44.5 -108.501c0 -41.333 -15.167 -77 -45.5 -107s-66.166 -45 -107.499 -45s-77 15 -107 45s-45 65.667 -45 107z" />
    <glyph glyph-name="igrave" unicode="&#xec;" horiz-adv-x="692" 
d="M561 399c0 -44.667 3.83301 -78.002 11.5 -100.002s20.167 -37.667 37.5 -47v-252h-522v252c18.667 5.33301 32.5 19.5 41.5 42.5s13.5 55.833 13.5 98.5v355c0 36.667 -4 63.334 -12 80.001s-22.333 29.334 -43 38.001v252h473v-719zM29 1618h287l192 -371h-154z" />
    <glyph glyph-name="iacute" unicode="&#xed;" horiz-adv-x="692" 
d="M561 399c0 -44.667 3.83301 -78.002 11.5 -100.002s20.167 -37.667 37.5 -47v-252h-522v252c18.667 5.33301 32.5 19.5 41.5 42.5s13.5 55.833 13.5 98.5v355c0 36.667 -4 63.334 -12 80.001s-22.333 29.334 -43 38.001v252h473v-719zM352 1618h287l-325 -371h-154z" />
    <glyph glyph-name="icircumflex" unicode="&#xee;" horiz-adv-x="692" 
d="M561 399c0 -44.667 3.83301 -78.002 11.5 -100.002s20.167 -37.667 37.5 -47v-252h-522v252c18.667 5.33301 32.5 19.5 41.5 42.5s13.5 55.833 13.5 98.5v355c0 36.667 -4 63.334 -12 80.001s-22.333 29.334 -43 38.001v252h473v-719zM205 1618h256l192 -371h-153
l-166 199l-168 -199h-154z" />
    <glyph glyph-name="idieresis" unicode="&#xef;" horiz-adv-x="692" 
d="M561 399c0 -44.667 3.83301 -78.002 11.5 -100.002s20.167 -37.667 37.5 -47v-252h-522v252c18.667 5.33301 32.5 19.5 41.5 42.5s13.5 55.833 13.5 98.5v355c0 36.667 -4 63.334 -12 80.001s-22.333 29.334 -43 38.001v252h473v-719zM363 1432
c0 41.333 14.833 77.168 44.5 107.501s65.167 45.5 106.5 45.5c42.667 0 78.667 -14.833 108 -44.5s44 -65.834 44 -108.501c0 -42 -15 -77.833 -45 -107.5s-65.667 -44.5 -107 -44.5c-40.667 0 -76 15 -106 45s-45 65.667 -45 107zM0 1432
c0 41.333 14.998 77.168 44.998 107.501s65.667 45.5 107 45.5c42.667 0 78.834 -14.833 108.501 -44.5s44.5 -65.834 44.5 -108.501c0 -41.333 -15.167 -77 -45.5 -107s-66.166 -45 -107.499 -45s-77 15 -107 45s-45 65.667 -45 107z" />
    <glyph glyph-name="eth" unicode="&#xf0;" horiz-adv-x="1174" 
d="M668 709c0 46.667 -6.33301 79.167 -19 97.5s-33.667 27.5 -63 27.5s-50.333 -9.66699 -63 -29s-19 -51.333 -19 -96v-359c0 -45.333 6.33301 -77.5 19 -96.5s33.667 -28.5 63 -28.5s50.333 9.33301 63 28s19 51 19 97v359zM1083 692l-0.00195312 -323
c0 -146 -35.667 -247 -107 -303s-201.333 -84 -390 -84c-188 0 -317.667 28 -389 84s-107 157 -107 303v323c0 142 34.833 242 104.5 300s188.5 87 356.5 87c12 0 24 -0.166992 36 -0.5s30 -1.5 54 -3.5c-23.333 37.333 -45.166 69.833 -65.499 97.5
s-40.166 52.5 -59.499 74.5l-309 -121l-51 134l270 106l-1 1c-62.667 77.333 -115 139 -157 185h297c16.667 -14 33.167 -28.667 49.5 -44l49.5 -48l245 92l56 -129l-201 -80c111.333 -112 192.333 -220 243 -324s76 -213 76 -327z" />
    <glyph glyph-name="ntilde" unicode="&#xf1;" horiz-adv-x="1255" 
d="M555 399c0 -43.333 3.99902 -76.335 11.999 -99.002s21 -38.667 39 -48v-252h-522v252c18.667 5.33301 32.5 19.5 41.5 42.5s13.5 55.833 13.5 98.5v355c0 36.667 -4 63.334 -12 80.001s-22.333 29.334 -43 38.001v252h455v-76c42 29.333 87.333 51.333 136 66
s98.667 22 150 22c109.333 0 188 -27.833 236 -83.5s72 -149.167 72 -280.5v-369c0 -52 3.5 -87.333 10.5 -106s19.833 -31.667 38.5 -39v-252h-445c-8 37.333 -13.667 84 -17 140s-5 155.333 -5 298v244c0 58 -7.16699 97.333 -21.5 118s-38.5 31 -72.5 31
c-9.33301 0 -19.166 -1 -29.499 -3s-22.5 -5.66699 -36.5 -11v-418zM841.999 1573l118.999 -0.000976562c-21.333 -90 -49.166 -154.833 -83.499 -194.5s-79.5 -59.5 -135.5 -59.5c-12 0 -24.333 1 -37 3s-25.667 5 -39 9l-93 25l-3 1c-30.667 8.66699 -52 13 -64 13
c-22 0 -40.167 -6.16699 -54.5 -18.5s-26.166 -32.166 -35.499 -59.499h-119c18.667 84 45.5 146 80.5 186s79.833 60 134.5 60c12.667 0 26.667 -1.16699 42 -3.5s31.333 -5.83301 48 -10.5l95 -29c8 -2.66699 16.667 -4.66699 26 -6s19.666 -2 30.999 -2
c22 0 40.333 7.16699 55 21.5s25.667 35.833 33 64.5z" />
    <glyph glyph-name="ograve" unicode="&#xf2;" horiz-adv-x="1174" 
d="M1083 729v-340c0 -153.333 -36 -259.5 -108 -318.5s-201.667 -88.5 -389 -88.5s-316.833 29.5 -388.5 88.5s-107.5 165.167 -107.5 318.5v340c0 153.333 35.833 259.666 107.5 318.999s201.167 89 388.5 89c188 0 317.833 -29.667 389.5 -89
s107.5 -165.666 107.5 -318.999zM668 748c0 48.667 -6.33301 82.667 -19 102s-33.667 29 -63 29s-50.333 -10 -63 -30s-19 -53.667 -19 -101v-377c0 -49.333 6.16699 -83.833 18.5 -103.5s33.5 -29.5 63.5 -29.5c28.667 0 49.5 10 62.5 30s19.5 54.333 19.5 103v377z
M283 1618h287l192 -371h-154z" />
    <glyph glyph-name="oacute" unicode="&#xf3;" horiz-adv-x="1174" 
d="M1083 729v-340c0 -153.333 -36 -259.5 -108 -318.5s-201.667 -88.5 -389 -88.5s-316.833 29.5 -388.5 88.5s-107.5 165.167 -107.5 318.5v340c0 153.333 35.833 259.666 107.5 318.999s201.167 89 388.5 89c188 0 317.833 -29.667 389.5 -89
s107.5 -165.666 107.5 -318.999zM668 748c0 48.667 -6.33301 82.667 -19 102s-33.667 29 -63 29s-50.333 -10 -63 -30s-19 -53.667 -19 -101v-377c0 -49.333 6.16699 -83.833 18.5 -103.5s33.5 -29.5 63.5 -29.5c28.667 0 49.5 10 62.5 30s19.5 54.333 19.5 103v377z
M606 1618h287l-325 -371h-154z" />
    <glyph glyph-name="ocircumflex" unicode="&#xf4;" horiz-adv-x="1174" 
d="M1083 729v-340c0 -153.333 -36 -259.5 -108 -318.5s-201.667 -88.5 -389 -88.5s-316.833 29.5 -388.5 88.5s-107.5 165.167 -107.5 318.5v340c0 153.333 35.833 259.666 107.5 318.999s201.167 89 388.5 89c188 0 317.833 -29.667 389.5 -89
s107.5 -165.666 107.5 -318.999zM668 748c0 48.667 -6.33301 82.667 -19 102s-33.667 29 -63 29s-50.333 -10 -63 -30s-19 -53.667 -19 -101v-377c0 -49.333 6.16699 -83.833 18.5 -103.5s33.5 -29.5 63.5 -29.5c28.667 0 49.5 10 62.5 30s19.5 54.333 19.5 103v377z
M459 1618h256l192 -371h-153l-166 199l-168 -199h-154z" />
    <glyph glyph-name="otilde" unicode="&#xf5;" horiz-adv-x="1174" 
d="M1083 729v-340c0 -153.333 -36 -259.5 -108 -318.5s-201.667 -88.5 -389 -88.5s-316.833 29.5 -388.5 88.5s-107.5 165.167 -107.5 318.5v340c0 153.333 35.833 259.666 107.5 318.999s201.167 89 388.5 89c188 0 317.833 -29.667 389.5 -89
s107.5 -165.666 107.5 -318.999zM668 748c0 48.667 -6.33301 82.667 -19 102s-33.667 29 -63 29s-50.333 -10 -63 -30s-19 -53.667 -19 -101v-377c0 -49.333 6.16699 -83.833 18.5 -103.5s33.5 -29.5 63.5 -29.5c28.667 0 49.5 10 62.5 30s19.5 54.333 19.5 103v377z
M801 1573l118.999 -0.000976562c-21.333 -90 -49.166 -154.833 -83.499 -194.5s-79.5 -59.5 -135.5 -59.5c-12 0 -24.333 1 -37 3s-25.667 5 -39 9l-93 25l-3 1c-30.667 8.66699 -52 13 -64 13c-22 0 -40.167 -6.16699 -54.5 -18.5s-26.166 -32.166 -35.499 -59.499h-119
c18.667 84 45.5 146 80.5 186s79.833 60 134.5 60c12.667 0 26.667 -1.16699 42 -3.5s31.333 -5.83301 48 -10.5l95 -29c8 -2.66699 16.667 -4.66699 26 -6s19.666 -2 30.999 -2c22 0 40.333 7.16699 55 21.5s25.667 35.833 33 64.5z" />
    <glyph glyph-name="odieresis" unicode="&#xf6;" horiz-adv-x="1174" 
d="M1083 729v-340c0 -153.333 -36 -259.5 -108 -318.5s-201.667 -88.5 -389 -88.5s-316.833 29.5 -388.5 88.5s-107.5 165.167 -107.5 318.5v340c0 153.333 35.833 259.666 107.5 318.999s201.167 89 388.5 89c188 0 317.833 -29.667 389.5 -89
s107.5 -165.666 107.5 -318.999zM668 748c0 48.667 -6.33301 82.667 -19 102s-33.667 29 -63 29s-50.333 -10 -63 -30s-19 -53.667 -19 -101v-377c0 -49.333 6.16699 -83.833 18.5 -103.5s33.5 -29.5 63.5 -29.5c28.667 0 49.5 10 62.5 30s19.5 54.333 19.5 103v377z
M617 1432c0 41.333 14.833 77.168 44.5 107.501s65.167 45.5 106.5 45.5c42.667 0 78.667 -14.833 108 -44.5s44 -65.834 44 -108.501c0 -42 -15 -77.833 -45 -107.5s-65.667 -44.5 -107 -44.5c-40.667 0 -76 15 -106 45s-45 65.667 -45 107zM254 1432
c0 41.333 14.998 77.168 44.998 107.501s65.667 45.5 107 45.5c42.667 0 78.834 -14.833 108.501 -44.5s44.5 -65.834 44.5 -108.501c0 -41.333 -15.167 -77 -45.5 -107s-66.166 -45 -107.499 -45s-77 15 -107 45s-45 65.667 -45 107z" />
    <glyph glyph-name="divide" unicode="&#xf7;" horiz-adv-x="1706" 
d="M854 371c49.333 0 92 -17.999 128 -53.999s54 -79 54 -129c0 -49.333 -18 -92 -54 -128s-79.333 -54 -130 -54s-93.667 17.667 -129 53s-53 78.333 -53 129c0 51.333 17.833 94.666 53.5 129.999s79.167 53 130.5 53zM1452 748.001v-273h-1198v273h1198zM854 1217
c49.333 0 92 -18.333 128 -55s54 -80 54 -130c0 -49.333 -18 -92 -54 -128s-79.333 -54 -130 -54s-93.667 17.667 -129 53s-53 78.333 -53 129c0 51.333 18 95 54 131s79.333 54 130 54z" />
    <glyph glyph-name="oslash" unicode="&#xf8;" horiz-adv-x="1174" 
d="M504 748v-377c0 -49.333 6.16699 -83.833 18.5 -103.5s33.5 -29.5 63.5 -29.5c28.667 0 49.5 10 62.5 30s19.5 54.333 19.5 103v377c0 48.667 -6.33301 82.667 -19 102s-33.667 29 -63 29s-50.333 -10 -63 -30s-19 -53.667 -19 -101zM90 729
c0 153.333 35.8311 259.668 107.498 319.001s201.167 89 388.5 89c76.667 0 151.334 -6.33301 224.001 -19c4.66699 -0.666992 8.33398 -1.33398 11.001 -2.00098l70 94l233 -163l-73 -103c10.667 -18.667 18.667 -46.5 24 -83.5s8 -80.833 8 -131.5v-340
c0 -153.333 -36 -259.5 -108 -318.5s-201.667 -88.5 -389 -88.5c-50.667 0 -93.5 1.5 -128.5 4.5s-66.833 8.16699 -95.5 15.5l-77 -111l-236 160l78 115c-12 14 -21.167 40.333 -27.5 79s-9.5 86.667 -9.5 144v340z" />
    <glyph glyph-name="ugrave" unicode="&#xf9;" horiz-adv-x="1255" 
d="M1120 1118v-747.003c0 -39.333 4.16699 -67.166 12.5 -83.499s21.833 -28.166 40.5 -35.499l1 -252h-455v76c-42 -28.667 -86.833 -50.167 -134.5 -64.5s-97.834 -21.5 -150.501 -21.5c-110 0 -189 27.833 -237 83.5s-72 149.167 -72 280.5v367
c0 52.667 -3.5 88.167 -10.5 106.5s-19.833 31.166 -38.5 38.499v252h444c8 -39.333 13.833 -87.166 17.5 -143.499s5.5 -154.5 5.5 -294.5v-244c0 -57.333 7 -96.166 21 -116.499s38.333 -30.5 73 -30.5c12.667 0 24.334 1 35.001 3s20.667 5 30 9v418
c0 45.333 -3.66699 78.833 -11 100.5s-20 37.167 -38 46.5v252h467zM309 1618h287l192 -371h-154z" />
    <glyph glyph-name="uacute" unicode="&#xfa;" horiz-adv-x="1255" 
d="M1120 1118v-747.003c0 -39.333 4.16699 -67.166 12.5 -83.499s21.833 -28.166 40.5 -35.499l1 -252h-455v76c-42 -28.667 -86.833 -50.167 -134.5 -64.5s-97.834 -21.5 -150.501 -21.5c-110 0 -189 27.833 -237 83.5s-72 149.167 -72 280.5v367
c0 52.667 -3.5 88.167 -10.5 106.5s-19.833 31.166 -38.5 38.499v252h444c8 -39.333 13.833 -87.166 17.5 -143.499s5.5 -154.5 5.5 -294.5v-244c0 -57.333 7 -96.166 21 -116.499s38.333 -30.5 73 -30.5c12.667 0 24.334 1 35.001 3s20.667 5 30 9v418
c0 45.333 -3.66699 78.833 -11 100.5s-20 37.167 -38 46.5v252h467zM632 1618h287l-325 -371h-154z" />
    <glyph glyph-name="ucircumflex" unicode="&#xfb;" horiz-adv-x="1255" 
d="M1120 1118v-747.003c0 -39.333 4.16699 -67.166 12.5 -83.499s21.833 -28.166 40.5 -35.499l1 -252h-455v76c-42 -28.667 -86.833 -50.167 -134.5 -64.5s-97.834 -21.5 -150.501 -21.5c-110 0 -189 27.833 -237 83.5s-72 149.167 -72 280.5v367
c0 52.667 -3.5 88.167 -10.5 106.5s-19.833 31.166 -38.5 38.499v252h444c8 -39.333 13.833 -87.166 17.5 -143.499s5.5 -154.5 5.5 -294.5v-244c0 -57.333 7 -96.166 21 -116.499s38.333 -30.5 73 -30.5c12.667 0 24.334 1 35.001 3s20.667 5 30 9v418
c0 45.333 -3.66699 78.833 -11 100.5s-20 37.167 -38 46.5v252h467zM485 1618h256l192 -371h-153l-166 199l-168 -199h-154z" />
    <glyph glyph-name="udieresis" unicode="&#xfc;" horiz-adv-x="1255" 
d="M1120 1118v-747.003c0 -39.333 4.16699 -67.166 12.5 -83.499s21.833 -28.166 40.5 -35.499l1 -252h-455v76c-42 -28.667 -86.833 -50.167 -134.5 -64.5s-97.834 -21.5 -150.501 -21.5c-110 0 -189 27.833 -237 83.5s-72 149.167 -72 280.5v367
c0 52.667 -3.5 88.167 -10.5 106.5s-19.833 31.166 -38.5 38.499v252h444c8 -39.333 13.833 -87.166 17.5 -143.499s5.5 -154.5 5.5 -294.5v-244c0 -57.333 7 -96.166 21 -116.499s38.333 -30.5 73 -30.5c12.667 0 24.334 1 35.001 3s20.667 5 30 9v418
c0 45.333 -3.66699 78.833 -11 100.5s-20 37.167 -38 46.5v252h467zM643 1432c0 41.333 14.833 77.168 44.5 107.501s65.167 45.5 106.5 45.5c42.667 0 78.667 -14.833 108 -44.5s44 -65.834 44 -108.501c0 -42 -15 -77.833 -45 -107.5s-65.667 -44.5 -107 -44.5
c-40.667 0 -76 15 -106 45s-45 65.667 -45 107zM280 1432c0 41.333 14.998 77.168 44.998 107.501s65.667 45.5 107 45.5c42.667 0 78.834 -14.833 108.501 -44.5s44.5 -65.834 44.5 -108.501c0 -41.333 -15.167 -77 -45.5 -107s-66.166 -45 -107.499 -45s-77 15 -107 45
s-45 65.667 -45 107z" />
    <glyph glyph-name="yacute" unicode="&#xfd;" horiz-adv-x="1139" 
d="M383 -37l-284.999 810.994c-6.66699 18.667 -15.334 36.334 -26.001 53.001s-22.334 30.334 -35.001 41.001v250h518v-250c-12 -4.66699 -21.167 -11.667 -27.5 -21s-9.5 -20.666 -9.5 -33.999c0 -3.33301 0.5 -8.16602 1.5 -14.499s2.5 -14.833 4.5 -25.5l88 -392
l76 381c1.33301 6.66699 2.33301 13.834 3 21.501s1 16.834 1 27.501c0 14.667 -3.33301 26.667 -10 36s-16.667 16.333 -30 21l-1 250h451v-250c-13.333 -8 -25 -20.833 -35 -38.5s-19.667 -41.5 -29 -71.5l-239 -819c-37.333 -128 -86 -219.5 -146 -274.5
s-140.333 -82.5 -241 -82.5c-31.333 0 -63.166 2.5 -95.499 7.5s-64.833 12.167 -97.5 21.5v241c43.333 1.33301 78.5 11 105.5 29s46.5 45.333 58.5 82zM587.001 1617.99h287l-325 -371h-154z" />
    <glyph glyph-name="thorn" unicode="&#xfe;" horiz-adv-x="1208" 
d="M541 0c0 -47.333 4.16699 -81.998 12.5 -103.998s22.5 -36.333 42.5 -43v-250h-526v250c18 4.66699 31.667 19 41 43s14 57.333 14 100v1155c0 37.333 -4.16699 64.166 -12.5 80.499s-22.5 29.166 -42.5 38.499v252h471v-469c38.667 25.333 81.167 44.5 127.5 57.5
s93.833 19.5 142.5 19.5c110 0 188.667 -28 236 -84s71 -152.667 71 -290v-348c0 -159.333 -23.5 -268.833 -70.5 -328.5s-127.167 -89.5 -240.5 -89.5c-42.667 0 -87 5.5 -133 16.5s-90.333 26.5 -133 46.5v-53zM541 817.002v-514c12 -6 24 -10.5 36 -13.5
s23.667 -4.5 35 -4.5c33.333 0 56.333 8.83301 69 26.5s19 59.834 19 126.501v244c0 57.333 -7 96.166 -21 116.499s-38.333 30.5 -73 30.5c-10 0 -20.667 -1 -32 -3s-22.333 -5 -33 -9z" />
    <glyph glyph-name="ydieresis" unicode="&#xff;" horiz-adv-x="1139" 
d="M383 -37l-284.999 810.994c-6.66699 18.667 -15.334 36.334 -26.001 53.001s-22.334 30.334 -35.001 41.001v250h518v-250c-12 -4.66699 -21.167 -11.667 -27.5 -21s-9.5 -20.666 -9.5 -33.999c0 -3.33301 0.5 -8.16602 1.5 -14.499s2.5 -14.833 4.5 -25.5l88 -392
l76 381c1.33301 6.66699 2.33301 13.834 3 21.501s1 16.834 1 27.501c0 14.667 -3.33301 26.667 -10 36s-16.667 16.333 -30 21l-1 250h451v-250c-13.333 -8 -25 -20.833 -35 -38.5s-19.667 -41.5 -29 -71.5l-239 -819c-37.333 -128 -86 -219.5 -146 -274.5
s-140.333 -82.5 -241 -82.5c-31.333 0 -63.166 2.5 -95.499 7.5s-64.833 12.167 -97.5 21.5v241c43.333 1.33301 78.5 11 105.5 29s46.5 45.333 58.5 82zM598.001 1431.99c0 41.333 14.833 77.168 44.5 107.501s65.167 45.5 106.5 45.5c42.667 0 78.667 -14.833 108 -44.5
s44 -65.834 44 -108.501c0 -42 -15 -77.833 -45 -107.5s-65.667 -44.5 -107 -44.5c-40.667 0 -76 15 -106 45s-45 65.667 -45 107zM235.001 1432c0 41.333 14.998 77.168 44.998 107.501s65.667 45.5 107 45.5c42.667 0 78.834 -14.833 108.501 -44.5
s44.5 -65.834 44.5 -108.501c0 -41.333 -15.167 -77 -45.5 -107s-66.166 -45 -107.499 -45s-77 15 -107 45s-45 65.667 -45 107z" />
    <glyph glyph-name="Cacute" unicode="&#x106;" horiz-adv-x="1294" 
d="M1210 1384l-0.00195312 -421.003h-456v116c0 54.667 -7 93.334 -21 116.001s-37 34 -69 34c-32.667 0 -56 -11 -70 -33s-21 -61 -21 -117v-633c0 -55.333 7 -94 21 -116s37.333 -33 70 -33s55.834 11 69.501 33s20.5 60.667 20.5 116v191h456v-508
c-68 -54 -148.667 -94.167 -242 -120.5s-202.333 -39.5 -327 -39.5c-198.667 0 -338.834 40.333 -420.501 121s-122.5 221.334 -122.5 422.001v496c0 198 40.5 338.167 121.5 420.5s216.833 123.5 407.5 123.5c114.667 0 221.334 -14.167 320.001 -42.5
s186.334 -70.166 263.001 -125.499zM691.998 2034h287l-325 -371h-154z" />
    <glyph glyph-name="cacute" unicode="&#x107;" horiz-adv-x="1128" 
d="M668 748c0 48.667 -6.33301 82.665 -19 101.998s-33.667 29 -63 29s-50.333 -10 -63 -30s-19 -53.667 -19 -101v-377c0 -49.333 6.16699 -83.833 18.5 -103.5s33.5 -29.5 63.5 -29.5c28.667 0 49.5 10 62.5 30s19.5 54.333 19.5 103v100h385v-346
c-58.667 -48.667 -128.667 -84.667 -210 -108s-176 -35 -284 -35c-172.667 0 -294 30.167 -364 90.5s-105 165.833 -105 316.5v340c0 148.667 34.833 253.834 104.5 315.501s187.167 92.5 352.5 92.5c100 0 192.5 -12.167 277.5 -36.5s161.167 -60.166 228.5 -107.499v-299
h-385v54zM600 1618h287l-325 -371h-154z" />
    <glyph glyph-name="Ccaron" unicode="&#x10c;" horiz-adv-x="1294" 
d="M1210 1384l-0.00195312 -421.003h-456v116c0 54.667 -7 93.334 -21 116.001s-37 34 -69 34c-32.667 0 -56 -11 -70 -33s-21 -61 -21 -117v-633c0 -55.333 7 -94 21 -116s37.333 -33 70 -33s55.834 11 69.501 33s20.5 60.667 20.5 116v191h456v-508
c-68 -54 -148.667 -94.167 -242 -120.5s-202.333 -39.5 -327 -39.5c-198.667 0 -338.834 40.333 -420.501 121s-122.5 221.334 -122.5 422.001v496c0 198 40.5 338.167 121.5 420.5s216.833 123.5 407.5 123.5c114.667 0 221.334 -14.167 320.001 -42.5
s186.334 -70.166 263.001 -125.499zM351.998 2034h154l168 -199l166 199h153l-192 -371h-256z" />
    <glyph glyph-name="ccaron" unicode="&#x10d;" horiz-adv-x="1128" 
d="M668 748c0 48.667 -6.33301 82.665 -19 101.998s-33.667 29 -63 29s-50.333 -10 -63 -30s-19 -53.667 -19 -101v-377c0 -49.333 6.16699 -83.833 18.5 -103.5s33.5 -29.5 63.5 -29.5c28.667 0 49.5 10 62.5 30s19.5 54.333 19.5 103v100h385v-346
c-58.667 -48.667 -128.667 -84.667 -210 -108s-176 -35 -284 -35c-172.667 0 -294 30.167 -364 90.5s-105 165.833 -105 316.5v340c0 148.667 34.833 253.834 104.5 315.501s187.167 92.5 352.5 92.5c100 0 192.5 -12.167 277.5 -36.5s161.167 -60.166 228.5 -107.499v-299
h-385v54zM260 1618h154l168 -199l166 199h153l-192 -371h-256z" />
    <glyph glyph-name="dcroat" unicode="&#x111;" horiz-adv-x="1210" 
d="M506 598v-161.999c0 -56.667 7.16699 -95.334 21.5 -116.001s39.166 -31 74.499 -31c10 0 20.167 1.16699 30.5 3.5s21.166 5.83301 32.499 10.5l1 430c-13.333 6.66699 -25.666 11.5 -36.999 14.5s-22.333 4.5 -33 4.5c-33.333 0 -56.666 -9.33301 -69.999 -28
s-20 -60.667 -20 -126zM90 629.001c0 159.333 23.665 269.165 70.998 329.498s127.333 90.5 240 90.5c40.667 0 83.5 -5.66699 128.5 -17s90.5 -27.666 136.5 -48.999v143h-287v170h287c0 20.667 -2.5 36 -7.5 46s-14.167 19.333 -27.5 28v152h452v-226h127v-170h-127v-755
c0 -38 4.16699 -65.333 12.5 -82s22.833 -29 43.5 -37v-252h-455v76c-41.333 -28.667 -86.166 -50.167 -134.499 -64.5s-99.166 -21.5 -152.499 -21.5c-110 0 -188.667 27.833 -236 83.5s-71 151.834 -71 288.501v267z" />
    <glyph glyph-name="Gbreve" unicode="&#x11e;" horiz-adv-x="1313" 
d="M1210 1384l-0.00195312 -391.003h-456v86c0 54.667 -7 93.334 -21 116.001s-37 34 -69 34c-32.667 0 -56 -11 -70 -33s-21 -61 -21 -117v-633c0 -55.333 7 -94 21 -116s37.333 -33 70 -33s55.834 11 69.501 33s20.5 60.667 20.5 116v113h-76v303h532v-733
c-68 -54 -148.667 -94.167 -242 -120.5s-202.333 -39.5 -327 -39.5c-198.667 0 -338.834 40.333 -420.501 121s-122.5 221.334 -122.5 422.001v496c0 198 40.5 338.167 121.5 420.5s216.833 123.5 407.5 123.5c114.667 0 221.334 -14.167 320.001 -42.5
s186.334 -70.166 263.001 -125.499zM341.998 2001h130.998c4 -47.333 20.833 -82.333 50.5 -105s74.167 -34 133.5 -34c58.667 0 102.834 11.333 132.501 34s46.5 57.667 50.5 105h130c-8 -106 -37.167 -183.667 -87.5 -233s-125.5 -74 -225.5 -74
c-99.333 0 -174.666 25 -225.999 75s-81 127.333 -89 232z" />
    <glyph glyph-name="gbreve" unicode="&#x11f;" horiz-adv-x="1219" 
d="M666 332l0.000976562 485.001c-12 4 -23.167 7 -33.5 9s-20.5 3 -30.5 3c-35.333 0 -60.166 -10.333 -74.499 -31s-21.5 -59.334 -21.5 -116.001v-215c0 -65.333 6.66699 -107.333 20 -126s36.666 -28 69.999 -28c10.667 0 21.667 1.5 33 4.5s23.666 7.83301 36.999 14.5
zM115.001 -308.999l0.000976562 272.001h391v-8c0 -37.333 6.66699 -65.833 20 -85.5s32.666 -29.5 57.999 -29.5c29.333 0 50.333 11.5 63 34.5s19 64.833 19 125.5v78c-42 -20.667 -86.333 -36.5 -133 -47.5s-92.667 -16.5 -138 -16.5c-110 0 -188.333 30.333 -235 91
s-70 169.667 -70 327v324c0 137.333 23.667 234 71 290s126 84 236 84c52 0 102.333 -7.33301 151 -22s94 -36.667 136 -66v76h455v-252c-20.667 -8.66699 -35.167 -21.334 -43.5 -38.001s-12.5 -43.334 -12.5 -80.001v-670c0 -89.333 -3 -153.833 -9 -193.5
s-16.667 -73.5 -32 -101.5c-36.667 -70.667 -89.167 -123.167 -157.5 -157.5s-154.166 -51.5 -257.499 -51.5c-94.667 0 -184.834 9.83301 -270.501 29.5s-166.167 48.834 -241.5 87.501zM295.002 1585h130.998c4 -47.333 20.833 -82.333 50.5 -105s74.167 -34 133.5 -34
c58.667 0 102.834 11.333 132.501 34s46.5 57.667 50.5 105h130c-8 -106 -37.167 -183.667 -87.5 -233s-125.5 -74 -225.5 -74c-99.333 0 -174.666 25 -225.999 75s-81 127.333 -89 232z" />
    <glyph glyph-name="Idotaccent" unicode="&#x130;" horiz-adv-x="778" 
d="M682 1522v-266.999c-20.667 -10 -35 -24.5 -43 -43.5s-12 -50.833 -12 -95.5v-706c0 -45.333 4 -77.333 12 -96s22.333 -33.334 43 -44.001v-270h-588v270c21.333 11.333 36.333 27 45 47s13 51 13 93v706c0 42 -4.33301 73 -13 93s-23.667 35.333 -45 46v267h588z
M237 1848c0 40.667 15.167 76 45.5 106s65.833 45 106.5 45c42 0 77.833 -14.667 107.5 -44s44.5 -65 44.5 -107s-15 -77.833 -45 -107.5s-65.667 -44.5 -107 -44.5c-40 0 -75.333 15.333 -106 46s-46 66 -46 106z" />
    <glyph glyph-name="dotlessi" unicode="&#x131;" horiz-adv-x="692" 
d="M561 399c0 -44.667 3.83301 -78.002 11.5 -100.002s20.167 -37.667 37.5 -47v-252h-522v252c18.667 5.33301 32.5 19.5 41.5 42.5s13.5 55.833 13.5 98.5v355c0 36.667 -4 63.334 -12 80.001s-22.333 29.334 -43 38.001v252h473v-719z" />
    <glyph glyph-name="Lslash" unicode="&#x141;" horiz-adv-x="1305" 
d="M135 0v269.998c21.333 11.333 36.333 27 45 47s13 51 13 93v186l-146 -59v262l146 61v256c0 42 -4.33301 73 -13 93s-23.667 35.333 -45 46v267h606v-267c-28 -4.66699 -47.5 -18.667 -58.5 -42s-16.5 -63.666 -16.5 -120.999v-95l266 113v-262l-266 -113v-405h28
c49.333 0 82.833 10.333 100.5 31s26.5 70.334 26.5 149.001v145h414v-655h-1100z" />
    <glyph glyph-name="lslash" unicode="&#x142;" horiz-adv-x="786" 
d="M608 399c0 -44.667 3.83301 -77.998 11.5 -99.998s20.167 -37.667 37.5 -47v-252h-522v252c18.667 5.33301 32.5 19.5 41.5 42.5s13.5 55.833 13.5 98.5v164l-143 -72v238l143 72v356c0 37.333 -4 64.166 -12 80.499s-22.333 29.166 -43 38.499v252h473v-592l144 71v-235
l-144 -72v-295z" />
    <glyph glyph-name="OE" unicode="&#x152;" horiz-adv-x="1896" 
d="M762 446v632.999c0 54 -7.33301 92.5 -22 115.5s-38.667 34.5 -72 34.5c-34 0 -58.333 -11.167 -73 -33.5s-22 -61.166 -22 -116.499v-633c0 -54.667 7.33301 -93.167 22 -115.5s39 -33.5 73 -33.5c33.333 0 57.333 11.333 72 34s22 61 22 115zM98 1008
c0 204 42.001 345.666 126.001 424.999s232 119 444 119c55.333 0 105.333 -2.5 150 -7.5s85.334 -12.5 122.001 -22.5h870v-504h-413v43c0 54.667 -9.33301 91.5 -28 110.5s-53.667 28.5 -105 28.5h-41v-270h301v-295h-301v-307c4.66699 -0.666992 10 -1.16699 16 -1.5
s14.333 -0.5 25 -0.5c49.333 0 84.166 12.833 104.499 38.5s30.5 70.834 30.5 135.501c0 14 -0.166992 24.833 -0.5 32.5s-0.833008 15.167 -1.5 22.5h413v-555h-866c-42.667 -10.667 -86.667 -18.5 -132 -23.5s-93.333 -7.5 -144 -7.5
c-212.667 0 -360.834 39.5 -444.501 118.5s-125.5 220.5 -125.5 424.5v496z" />
    <glyph glyph-name="oe" unicode="&#x153;" horiz-adv-x="1749" 
d="M1081 748l0.000976562 -41h166v41c0 48 -6.33301 81.833 -19 101.5s-34.334 29.5 -65.001 29.5c-29.333 0 -50.333 -10 -63 -30s-19 -53.667 -19 -101zM1081 371c0 -49.333 6.33203 -83.833 18.999 -103.5s33.667 -29.5 63 -29.5c30 0 51.5 10.167 64.5 30.5
s19.5 54.5 19.5 102.5v30h416v-276c-56 -46 -126.833 -81.333 -212.5 -106s-181.5 -37 -287.5 -37c-55.333 0 -108.333 5.5 -159 16.5s-94 26.5 -130 46.5c-50.667 -21.333 -103.167 -37.166 -157.5 -47.499s-111.5 -15.5 -171.5 -15.5c-164.667 0 -281.667 30.667 -351 92
s-104 166.333 -104 315v340c0 150 34.833 255.5 104.5 316.5s189.167 91.5 358.5 91.5c70.667 0 133.334 -5.5 188.001 -16.5s100.667 -27.5 138 -49.5c40.667 21.333 87.667 37.666 141 48.999s111.333 17 174 17c168.667 0 289 -33.333 361 -100s108 -179 108 -337v-225
h-582v-104zM504 748v-377c0 -49.333 6.16699 -83.833 18.5 -103.5s33.5 -29.5 63.5 -29.5c28.667 0 49.5 10 62.5 30s19.5 54.333 19.5 103v377c0 48.667 -6.33301 82.667 -19 102s-33.667 29 -63 29s-50.333 -10 -63 -30s-19 -53.667 -19 -101z" />
    <glyph glyph-name="Scedilla" unicode="&#x15e;" horiz-adv-x="1307" 
d="M106 133v418h461v-84c0 -65.333 7.16699 -109.666 21.5 -132.999s39.5 -35 75.5 -35c30.667 0 54.667 11.667 72 35s26 56 26 98c0 78.667 -74.667 140.334 -224 185.001l-65 20c-162 51.333 -267.333 107 -316 167s-73 148.333 -73 265c0 166 44.333 288 133 366
s226.667 117 414 117c107.333 0 208.333 -13.833 303 -41.5s184 -69.834 268 -126.501v-378h-446v69c0 48.667 -8.33301 85.834 -25 111.501s-40.667 38.5 -72 38.5c-32 0 -56 -9 -72 -27s-24 -44.667 -24 -80c0 -68 78 -124.333 234 -169l30 -9
c174 -50.667 286.167 -109.334 336.5 -176.001s75.5 -170.334 75.5 -311.001c0 -164 -46.167 -285.667 -138.5 -365s-233.833 -119 -424.5 -119c-117.333 0 -224.833 14.167 -322.5 42.5s-180.167 68.833 -247.5 121.5zM596 0l113.997 0.000976562v-84h19
c74 0 130.667 -16.5 170 -49.5s59 -80.5 59 -142.5c0 -66.667 -22 -118.167 -66 -154.5s-106.667 -54.5 -188 -54.5c-40 0 -84.667 4 -134 12s-101.666 19.667 -156.999 35v137c52.667 -14.667 102.834 -25.834 150.501 -33.501s87.834 -11.5 120.501 -11.5
c28.667 0 50.167 5.83301 64.5 17.5s21.5 29.834 21.5 54.501c0 21.333 -9.5 37.166 -28.5 47.499s-49.167 15.5 -90.5 15.5c-14 0 -25 -0.166992 -33 -0.5s-15.333 -0.833008 -22 -1.5v213z" />
    <glyph glyph-name="scedilla" unicode="&#x15f;" horiz-adv-x="1118" 
d="M86 127l0.00195312 292.998h395v-51c0 -46.667 6.5 -79.5 19.5 -98.5s33.833 -28.5 62.5 -28.5c25.333 0 45.666 7.83301 60.999 23.5s23 36.5 23 62.5c0 57.333 -73.667 103 -221 137v0c-143.333 32.667 -237.833 72 -283.5 118s-68.5 115.333 -68.5 208
c0 115.333 37.333 201.833 112 259.5s187.334 86.5 338.001 86.5c99.333 0 191.666 -12.333 276.999 -37s161.666 -61 228.999 -109v-264h-389v55c0 34 -7.16699 60.333 -21.5 79s-34.5 28 -60.5 28c-24 0 -44.333 -8.16699 -61 -24.5s-25 -36.166 -25 -59.499
c0 -49.333 63.667 -87.666 191 -114.999h2c155.333 -34 258.333 -75.167 309 -123.5s76 -120.5 76 -216.5c0 -126 -37.667 -218.833 -113 -278.5s-192.666 -89.5 -351.999 -89.5c-97.333 0 -187.833 12.167 -271.5 36.5s-159.834 60.5 -228.501 108.5zM502.002 -0.00195312
l113.997 0.000976562v-84h19c74 0 130.667 -16.5 170 -49.5s59 -80.5 59 -142.5c0 -66.667 -22 -118.167 -66 -154.5s-106.667 -54.5 -188 -54.5c-40 0 -84.667 4 -134 12s-101.666 19.667 -156.999 35v137c52.667 -14.667 102.834 -25.834 150.501 -33.501
s87.834 -11.5 120.501 -11.5c28.667 0 50.167 5.83301 64.5 17.5s21.5 29.834 21.5 54.501c0 21.333 -9.5 37.166 -28.5 47.499s-49.167 15.5 -90.5 15.5c-14 0 -25 -0.166992 -33 -0.5s-15.333 -0.833008 -22 -1.5v213z" />
    <glyph glyph-name="Scaron" unicode="&#x160;" horiz-adv-x="1307" 
d="M106 133v418h461v-84c0 -65.333 7.16699 -109.666 21.5 -132.999s39.5 -35 75.5 -35c30.667 0 54.667 11.667 72 35s26 56 26 98c0 78.667 -74.667 140.334 -224 185.001l-65 20c-162 51.333 -267.333 107 -316 167s-73 148.333 -73 265c0 166 44.333 288 133 366
s226.667 117 414 117c107.333 0 208.333 -13.833 303 -41.5s184 -69.834 268 -126.501v-378h-446v69c0 48.667 -8.33301 85.834 -25 111.501s-40.667 38.5 -72 38.5c-32 0 -56 -9 -72 -27s-24 -44.667 -24 -80c0 -68 78 -124.333 234 -169l30 -9
c174 -50.667 286.167 -109.334 336.5 -176.001s75.5 -170.334 75.5 -311.001c0 -164 -46.167 -285.667 -138.5 -365s-233.833 -119 -424.5 -119c-117.333 0 -224.833 14.167 -322.5 42.5s-180.167 68.833 -247.5 121.5zM331 2034h154l168 -199l166 199h153l-192 -371h-256z
" />
    <glyph glyph-name="scaron" unicode="&#x161;" horiz-adv-x="1118" 
d="M86 127l0.00195312 292.998h395v-51c0 -46.667 6.5 -79.5 19.5 -98.5s33.833 -28.5 62.5 -28.5c25.333 0 45.666 7.83301 60.999 23.5s23 36.5 23 62.5c0 57.333 -73.667 103 -221 137v0c-143.333 32.667 -237.833 72 -283.5 118s-68.5 115.333 -68.5 208
c0 115.333 37.333 201.833 112 259.5s187.334 86.5 338.001 86.5c99.333 0 191.666 -12.333 276.999 -37s161.666 -61 228.999 -109v-264h-389v55c0 34 -7.16699 60.333 -21.5 79s-34.5 28 -60.5 28c-24 0 -44.333 -8.16699 -61 -24.5s-25 -36.166 -25 -59.499
c0 -49.333 63.667 -87.666 191 -114.999h2c155.333 -34 258.333 -75.167 309 -123.5s76 -120.5 76 -216.5c0 -126 -37.667 -218.833 -113 -278.5s-192.666 -89.5 -351.999 -89.5c-97.333 0 -187.833 12.167 -271.5 36.5s-159.834 60.5 -228.501 108.5zM237.002 1618h154
l168 -199l166 199h153l-192 -371h-256z" />
    <glyph glyph-name="Ydieresis" unicode="&#x178;" horiz-adv-x="1204" 
d="M838 410c0 -44 5 -75.501 15 -94.501s28 -34.167 54 -45.5v-270h-614v270c26 11.333 44 26.833 54 46.5s15 50.834 15 93.501v188l-296 586c-6 12 -13.667 23.667 -23 35s-21.666 23.333 -36.999 36v267h535v-176c0 -60.667 2.16699 -104.834 6.5 -132.501
s11.5 -53.167 21.5 -76.5l62 -138l61 142c11.333 26 19.666 54.667 24.999 86s8 66 8 104v191h473v-267c-12 -7.33301 -22.667 -16.666 -32 -27.999s-18.333 -25 -27 -41l-301 -588v-188zM631 1848c0 41.333 14.833 77.168 44.5 107.501s65.167 45.5 106.5 45.5
c42.667 0 78.667 -14.833 108 -44.5s44 -65.834 44 -108.501c0 -42 -15 -77.833 -45 -107.5s-65.667 -44.5 -107 -44.5c-40.667 0 -76 15 -106 45s-45 65.667 -45 107zM268 1848c0 41.333 14.998 77.168 44.998 107.501s65.667 45.5 107 45.5
c42.667 0 78.834 -14.833 108.501 -44.5s44.5 -65.834 44.5 -108.501c0 -41.333 -15.167 -77 -45.5 -107s-66.166 -45 -107.499 -45s-77 15 -107 45s-45 65.667 -45 107z" />
    <glyph glyph-name="Zcaron" unicode="&#x17d;" horiz-adv-x="1294" 
d="M1241 0h-1169v274l596 924h-82c-66 0 -109.5 -10.833 -130.5 -32.5s-31.5 -68.167 -31.5 -139.5v-106h-338v602h1145v-269l-588 -925h82c63.333 0 106.833 13.667 130.5 41s35.5 81 35.5 161v105h350v-635zM325 2034h154l168 -199l166 199h153l-192 -371h-256z" />
    <glyph glyph-name="zcaron" unicode="&#x17e;" horiz-adv-x="1112" 
d="M70 0v266.001l489 598h-67c-52 0 -85.167 -7 -99.5 -21s-21.5 -44.333 -21.5 -91v-52h-289v418h973v-254l-492 -604h62c58.667 0 96.167 7.16699 112.5 21.5s24.5 46.166 24.5 95.499v53h305v-430h-997zM235 1618h154l168 -199l166 199h153l-192 -371h-256z" />
    <glyph glyph-name="florin" unicode="&#x192;" horiz-adv-x="1366" 
d="M498 1171c16 146 50.334 246 103.001 300s138.334 81 257.001 81c39.333 0 77.166 -2.5 113.499 -7.5s70.833 -12.5 103.5 -22.5v-242c-6 0 -13.167 0.333008 -21.5 1s-14.166 1 -17.499 1c-38.667 0 -66.834 -11.333 -84.501 -34s-31.167 -68.667 -40.5 -138l-18 -139
h143v-256h-172l-53 -619c-12.667 -145.333 -45.667 -245.5 -99 -300.5s-140.333 -82.5 -261 -82.5c-39.333 0 -77.333 2.66699 -114 8s-71.334 13 -104.001 23v242h39c41.333 0 71 11.5 89 34.5s30 68.5 36 136.5l54 558h-117v256h141z" />
    <glyph glyph-name="circumflex" unicode="&#x2c6;" 
d="M383 1618h256l192 -371h-153l-166 199l-168 -199h-154z" />
    <glyph glyph-name="caron" unicode="&#x2c7;" 
d="M190 1618h154l168 -199l166 199h153l-192 -371h-256z" />
    <glyph glyph-name="breve" unicode="&#x2d8;" 
d="M197 1585h130.998c4 -47.333 20.833 -82.333 50.5 -105s74.167 -34 133.5 -34c58.667 0 102.834 11.333 132.501 34s46.5 57.667 50.5 105h130c-8 -106 -37.167 -183.667 -87.5 -233s-125.5 -74 -225.5 -74c-99.333 0 -174.666 25 -225.999 75s-81 127.333 -89 232z" />
    <glyph glyph-name="dotaccent" unicode="&#x2d9;" 
d="M360 1432c0 40.667 15.167 76 45.5 106s65.833 45 106.5 45c42 0 77.833 -14.667 107.5 -44s44.5 -65 44.5 -107s-15 -77.833 -45 -107.5s-65.667 -44.5 -107 -44.5c-40 0 -75.333 15.333 -106 46s-46 66 -46 106z" />
    <glyph glyph-name="ring" unicode="&#x2da;" 
d="M512 1614c-32 0 -59.167 -11.167 -81.5 -33.5s-33.5 -49.5 -33.5 -81.5c0 -31.333 11.167 -58.333 33.5 -81s49.5 -34 81.5 -34s59.167 11.333 81.5 34s33.5 49.667 33.5 81c0 32 -11.167 59.167 -33.5 81.5s-49.5 33.5 -81.5 33.5zM512 1772
c75.333 0 139.499 -26.6689 192.499 -80.002s79.5 -117.666 79.5 -192.999s-26.333 -139.166 -79 -191.499s-117 -78.5 -193 -78.5s-140 26 -192 78s-78 116 -78 192s26.333 140.5 79 193.5s116.334 79.5 191.001 79.5z" />
    <glyph glyph-name="ogonek" unicode="&#x2db;" 
d="M524 0l108.999 -0.00195312c-43.333 -39.333 -74 -74.166 -92 -104.499s-27 -61.166 -27 -92.499c0 -27.333 6.16699 -47.333 18.5 -60s31.5 -19 57.5 -19h102v-191h-153c-62 0 -112 18 -150 54s-57 83.667 -57 143c0 50 15.333 96.5 46 139.5s79.334 86.5 146.001 130.5
z" />
    <glyph glyph-name="tilde" unicode="&#x2dc;" 
d="M725 1573l118.999 -0.000976562c-21.333 -90 -49.166 -154.833 -83.499 -194.5s-79.5 -59.5 -135.5 -59.5c-12 0 -24.333 1 -37 3s-25.667 5 -39 9l-93 25l-3 1c-30.667 8.66699 -52 13 -64 13c-22 0 -40.167 -6.16699 -54.5 -18.5s-26.166 -32.166 -35.499 -59.499h-119
c18.667 84 45.5 146 80.5 186s79.833 60 134.5 60c12.667 0 26.667 -1.16699 42 -3.5s31.333 -5.83301 48 -10.5l95 -29c8 -2.66699 16.667 -4.66699 26 -6s19.666 -2 30.999 -2c22 0 40.333 7.16699 55 21.5s25.667 35.833 33 64.5z" />
    <glyph glyph-name="hungarumlaut" unicode="&#x2dd;" 
d="M725 1618h254l-291 -371h-119zM397 1618h246l-252 -371h-110z" />
    <glyph glyph-name="Omega" unicode="&#x3a9;" horiz-adv-x="1706" 
d="M1671 350l-0.000976562 -350.001h-661v403c44.667 54 78.334 112.833 101.001 176.5s34 131.167 34 202.5c0 110 -26.667 197.667 -80 263s-124.333 98 -213 98s-159.334 -32.667 -212.001 -98s-79 -153 -79 -263c0 -71.333 11.333 -138.833 34 -202.5
s56.334 -122.5 101.001 -176.5v-403h-661v350h371c-96 54.667 -167.833 124.5 -215.5 209.5s-71.5 185.167 -71.5 300.5c0 194 67.167 351 201.5 471s311.5 180 531.5 180s397.5 -60.167 532.5 -180.5s202.5 -277.166 202.5 -470.499
c0 -115.333 -23.833 -215.5 -71.5 -300.5s-119.5 -154.833 -215.5 -209.5h371z" />
    <glyph glyph-name="pi" unicode="&#x3c0;" horiz-adv-x="1716" 
d="M1661 846h-180l-119 -846h-418l119 846h-227l-119 -846h-418l119 846h-29c-21.333 0 -40.5 -12.333 -57.5 -37s-27.833 -56.667 -32.5 -96h-258c24 144 66.5 242.333 127.5 295s165.167 79 312.5 79h1221z" />
    <glyph glyph-name="endash" unicode="&#x2013;" 
d="M0 442v271h1024v-271h-1024z" />
    <glyph glyph-name="emdash" unicode="&#x2014;" horiz-adv-x="2048" 
d="M0 442v271h2048v-271h-2048z" />
    <glyph glyph-name="quoteleft" unicode="&#x2018;" horiz-adv-x="569" 
d="M422 1495c-32.667 -38 -59.167 -74.333 -79.5 -109s-34.5 -68 -42.5 -100h17c47.333 0 85.833 -14 115.5 -42s44.5 -63.667 44.5 -107c0 -49.333 -17.833 -91.833 -53.5 -127.5s-78.5 -53.5 -128.5 -53.5c-54 0 -97.5 18.167 -130.5 54.5s-49.5 83.833 -49.5 142.5
c0 63.333 20.833 128.333 62.5 195s104.167 134.667 187.5 204z" />
    <glyph glyph-name="quoteright" unicode="&#x2019;" horiz-adv-x="569" 
d="M160 1012c30 34.667 54.8311 69.333 74.498 104s35.167 70.334 46.5 107.001h-19c-47.333 0 -85.833 13.833 -115.5 41.5s-44.5 63.5 -44.5 107.5c0 49.333 17.833 91.666 53.5 126.999s78.834 53 129.501 53c52.667 0 95.834 -18 129.501 -54s50.5 -83.333 50.5 -142
c0 -64.667 -20.5 -130 -61.5 -196s-103.167 -134 -186.5 -204z" />
    <glyph glyph-name="quotesinglbase" unicode="&#x201a;" horiz-adv-x="569" 
d="M160 -186c30 34.667 54.998 69.501 74.998 104.501s35.333 70.5 46 106.5h-19c-47.333 0 -85.833 13.833 -115.5 41.5s-44.5 63.5 -44.5 107.5c0 49.333 17.833 91.666 53.5 126.999s78.834 53 129.501 53c52.667 0 95.834 -18.167 129.501 -54.5s50.5 -83.5 50.5 -141.5
c0 -64.667 -20.5 -130 -61.5 -196s-103.167 -134 -186.5 -204z" />
    <glyph glyph-name="quotedblleft" unicode="&#x201c;" horiz-adv-x="1006" 
d="M858 1495c-32 -38 -58.167 -74.167 -78.5 -108.5s-34.833 -67.833 -43.5 -100.5h18c47.333 0 85.666 -14 114.999 -42s44 -63.667 44 -107c0 -49.333 -17.833 -91.833 -53.5 -127.5s-78.5 -53.5 -128.5 -53.5c-53.333 0 -96.666 18.167 -129.999 54.5
s-50 83.833 -50 142.5c0 64 20.667 129 62 195s104 134 188 204zM422 1495c-32.667 -38 -59.167 -74.333 -79.5 -109s-34.5 -68 -42.5 -100h17c47.333 0 85.833 -14 115.5 -42s44.5 -63.667 44.5 -107c0 -49.333 -17.833 -91.833 -53.5 -127.5s-78.5 -53.5 -128.5 -53.5
c-54 0 -97.5 18.167 -130.5 54.5s-49.5 83.833 -49.5 142.5c0 63.333 20.833 128.333 62.5 195s104.167 134.667 187.5 204z" />
    <glyph glyph-name="quotedblright" unicode="&#x201d;" horiz-adv-x="1006" 
d="M596 1012c29.333 34 54.167 68.668 74.5 104.001s35.833 71 46.5 107h-19c-46.667 0 -84.834 13.833 -114.501 41.5s-44.5 63.5 -44.5 107.5c0 49.333 17.833 91.666 53.5 126.999s78.5 53 128.5 53c52.667 0 95.834 -18 129.501 -54s50.5 -83.333 50.5 -142
c0 -64.667 -20.5 -130 -61.5 -196s-103.167 -134 -186.5 -204zM160.001 1012c30 34.667 54.8311 69.333 74.498 104s35.167 70.334 46.5 107.001h-19c-47.333 0 -85.833 13.833 -115.5 41.5s-44.5 63.5 -44.5 107.5c0 49.333 17.833 91.666 53.5 126.999
s78.834 53 129.501 53c52.667 0 95.834 -18 129.501 -54s50.5 -83.333 50.5 -142c0 -64.667 -20.5 -130 -61.5 -196s-103.167 -134 -186.5 -204z" />
    <glyph glyph-name="quotedblbase" unicode="&#x201e;" horiz-adv-x="1006" 
d="M596 -186c30 34.667 55 69.501 75 104.501s35.333 70.5 46 106.5h-19c-46.667 0 -84.834 13.833 -114.501 41.5s-44.5 63.5 -44.5 107.5c0 49.333 17.833 91.666 53.5 126.999s78.5 53 128.5 53c52.667 0 95.834 -18.167 129.501 -54.5s50.5 -83.5 50.5 -141.5
c0 -64.667 -20.5 -130 -61.5 -196s-103.167 -134 -186.5 -204zM160 -185.999c30 34.667 54.998 69.501 74.998 104.501s35.333 70.5 46 106.5h-19c-47.333 0 -85.833 13.833 -115.5 41.5s-44.5 63.5 -44.5 107.5c0 49.333 17.833 91.666 53.5 126.999s78.834 53 129.501 53
c52.667 0 95.834 -18.167 129.501 -54.5s50.5 -83.5 50.5 -141.5c0 -64.667 -20.5 -130 -61.5 -196s-103.167 -134 -186.5 -204z" />
    <glyph glyph-name="dagger" unicode="&#x2020;" 
d="M322 0v889h-265v285h265v348h378v-348h267v-285h-267v-889h-378z" />
    <glyph glyph-name="daggerdbl" unicode="&#x2021;" 
d="M322 0v328h-265v258h265v358h-265v258h265v320h378v-320h267v-258h-267v-358h267v-258h-267v-328h-378z" />
    <glyph glyph-name="bullet" unicode="&#x2022;" horiz-adv-x="1208" 
d="M307 762c0 82 28.999 151.666 86.999 208.999s128 86 210 86c81.333 0 150.833 -28.833 208.5 -86.5s86.5 -127.167 86.5 -208.5s-29.167 -151.166 -87.5 -209.499s-128.166 -87.5 -209.499 -87.5c-82 0 -151.667 29 -209 87s-86 128 -86 210z" />
    <glyph glyph-name="ellipsis" unicode="&#x2026;" horiz-adv-x="2048" 
d="M137 184c0 55.333 20 103.333 60 144s87.667 61 143 61c56 0 104.167 -20 144.5 -60s60.5 -88.333 60.5 -145c0 -56 -20.167 -103.667 -60.5 -143s-88.5 -59 -144.5 -59c-54.667 0 -102.167 20 -142.5 60s-60.5 87.333 -60.5 142zM819 184c0 55.333 20 103.333 60 144
s87.667 61 143 61c56 0 104.167 -20 144.5 -60s60.5 -88.333 60.5 -145c0 -56 -20.167 -103.667 -60.5 -143s-88.5 -59 -144.5 -59c-54.667 0 -102.167 20 -142.5 60s-60.5 87.333 -60.5 142zM1503 184c0 55.333 20 103.333 60 144s87.667 61 143 61
c56 0 104.167 -20 144.5 -60s60.5 -88.333 60.5 -145c0 -56 -20.167 -103.667 -60.5 -143s-88.5 -59 -144.5 -59c-54.667 0 -102.167 20 -142.5 60s-60.5 87.333 -60.5 142z" />
    <glyph glyph-name="perthousand" unicode="&#x2030;" horiz-adv-x="2517" 
d="M2089 494v-270.999c0 -24.667 4.16699 -42.334 12.5 -53.001s21.833 -16 40.5 -16s31.834 5 39.5 15c7.66699 10 11.5 28 11.5 54v271c0 26 -3.83301 44 -11.5 54s-20.834 15 -39.5 15c-18.667 0 -32.167 -5.5 -40.5 -16.5s-12.5 -28.5 -12.5 -52.5zM1823 469.001
c0 98 23 165.833 69 203.5s129.333 56.5 250 56.5c120 0 203 -18.667 249 -56s69 -105.333 69 -204v-221c0 -98.667 -23.167 -166.667 -69.5 -204s-129.166 -56 -248.5 -56c-120.667 0 -204 18.833 -250 56.5s-69 105.5 -69 203.5v221zM1317 494.001l-0.000976562 -270.998
c0 -25.333 3.83301 -43.166 11.5 -53.499s20.834 -15.5 39.501 -15.5c19.333 0 33 5.16699 41 15.5s12 28.166 12 53.499v271c0 25.333 -4 43.166 -12 53.499s-21.667 15.5 -41 15.5c-18 0 -31 -5.33301 -39 -16s-12 -28.334 -12 -53.001zM1051 469.003
c0 98 22.833 165.833 68.5 203.5s128.5 56.5 248.5 56.5c120.667 0 204.167 -18.667 250.5 -56s69.5 -105.333 69.5 -204v-221c0 -98 -23.333 -165.833 -70 -203.5s-130 -56.5 -250 -56.5s-202.833 18.667 -248.5 56s-68.5 105.333 -68.5 204v221zM321.999 1296
l0.000976562 -270.002c0 -27.333 3.66699 -45.833 11 -55.5s20.666 -14.5 39.999 -14.5c18.667 0 31.834 5.33301 39.501 16s11.5 28.667 11.5 54v270c0 26.667 -4 45.334 -12 56.001s-21 16 -39 16c-18.667 0 -31.834 -5.16699 -39.501 -15.5s-11.5 -29.166 -11.5 -56.499z
M55 1272c0 99.333 23.167 167.833 69.5 205.5s129.166 56.5 248.499 56.5s202 -18.667 248 -56s69 -106 69 -206v-221c0 -99.333 -22.833 -167.5 -68.5 -204.5s-128.5 -55.5 -248.5 -55.5c-119.333 0 -202.166 18.833 -248.499 56.5s-69.5 105.5 -69.5 203.5v221zM1462 1534
l-878 -1534h-305l880 1534h303z" />
    <glyph glyph-name="guilsinglleft" unicode="&#x2039;" horiz-adv-x="627" 
d="M266 199l-174 379l174 380h289l-170 -380l170 -379h-289z" />
    <glyph glyph-name="guilsinglright" unicode="&#x203a;" horiz-adv-x="627" 
d="M358 199h-286l170 379l-170 380h286l177 -380z" />
    <glyph glyph-name="franc" unicode="&#x20a3;" horiz-adv-x="2040" 
d="M618 410c0 -47.333 5.49902 -80.668 16.499 -100.001s30.167 -32.666 57.5 -39.999v-270h-604v270c20.667 10.667 35 25.834 43 45.501s12 51.167 12 94.5v706c0 43.333 -4 74.666 -12 93.999s-22.333 34.333 -43 45v267h1104v-531h-410v45
c0 63.333 -9.16699 105.5 -27.5 126.5s-52.166 31.5 -101.499 31.5h-35v-287h300v-299h-300v-198zM1780 398.998c0 -46 4.16797 -80.1699 12.501 -102.503s22.5 -37.166 42.5 -44.499v-252h-526v252c18.667 5.33301 32.5 19.5 41.5 42.5s13.5 55.833 13.5 98.5v355
c0 36.667 -4 63.334 -12 80.001s-22.333 29.334 -43 38.001v252h446v-88c25.333 38 52.833 66 82.5 84s63.167 27 100.5 27c6 0 13.667 -0.666992 23 -2s18.666 -3 27.999 -5v-378h-45c-55.333 0 -96.5 -17.333 -123.5 -52s-40.5 -87.667 -40.5 -159v-146z" />
    <glyph glyph-name="trademark" unicode="&#x2122;" horiz-adv-x="1706" 
d="M1044 1468l99 -266l98 266h256v-559h-182v367l-137 -367h-70l-137 367v-367h-183v559h256zM690 1468v-151h-162v-408h-202v408h-162v151h526z" />
    <glyph glyph-name="partialdiff" unicode="&#x2202;" horiz-adv-x="1139" 
d="M770 715c16.667 84.667 28.334 154.666 35.001 209.999s10 105.333 10 150c0 70 -8.83301 123 -26.5 159s-43.5 54 -77.5 54c-21.333 0 -40.333 -7 -57 -21s-34 -37.667 -52 -71c-29.333 -53.333 -59.833 -93 -91.5 -119s-65.167 -39 -100.5 -39
c-41.333 0 -75.666 12.5 -102.999 37.5s-41 56.833 -41 95.5c0 58 34.167 107.333 102.5 148s151.5 61 249.5 61c149.333 0 266.666 -54.167 351.999 -162.5s128 -258.166 128 -449.499c0 -232 -55.833 -421.833 -167.5 -569.5s-255.834 -221.5 -432.501 -221.5
c-143.333 0 -256 38.5 -338 115.5s-123 182.833 -123 317.5c0 136 42 249.5 126 340.5s186.667 136.5 308 136.5c64 0 121.333 -14.5 172 -43.5s93 -71.833 127 -128.5zM694 552.999c0 76 -11.334 133.501 -34.001 172.501s-55.667 58.5 -99 58.5
c-60 0 -110.167 -46.833 -150.5 -140.5s-60.5 -211.834 -60.5 -354.501c0 -76.667 11.333 -134.167 34 -172.5s56.334 -57.5 101.001 -57.5c60 0 109.833 46.667 149.5 140s59.5 211.333 59.5 354z" />
    <glyph glyph-name="Delta" unicode="&#x2206;" horiz-adv-x="1505" 
d="M958 309l-206 705l-207 -705h413zM991 1473l518 -1473h-1515l518 1473h479z" />
    <glyph glyph-name="product" unicode="&#x220f;" horiz-adv-x="1688" 
d="M139 1473h1399v-1866h-473v1474h-453v-1474h-473v1866z" />
    <glyph glyph-name="summation" unicode="&#x2211;" horiz-adv-x="1583" 
d="M80 1473h1368v-353h-778l559 -557l-541 -600h846v-356h-1475v200l664 738l-643 629v299z" />
    <glyph glyph-name="minus" unicode="&#x2212;" horiz-adv-x="1706" 
d="M1452 750v-277h-1198v277h1198z" />
    <glyph glyph-name="fraction" unicode="&#x2215;" horiz-adv-x="473" 
d="M-352 0l878 1530h301l-876 -1530h-303z" />
    <glyph glyph-name="periodcentered" unicode="&#x2219;" horiz-adv-x="682" 
d="M137 764c0 55.333 20 103 60 143s87.667 60 143 60c56.667 0 105 -19.833 145 -59.5s60 -87.5 60 -143.5s-20.333 -104.167 -61 -144.5s-88.667 -60.5 -144 -60.5c-54.667 0 -102.167 20.333 -142.5 61s-60.5 88.667 -60.5 144z" />
    <glyph glyph-name="radical" unicode="&#x221a;" horiz-adv-x="1395" 
d="M1399 1737v-172h-86l-588 -1606h-143l-301 827l-156 -59l-41 154l395 139l209 -600l483 1317h228z" />
    <glyph glyph-name="infinity" unicode="&#x221e;" horiz-adv-x="1706" 
d="M975 561c26.667 -38 58.333 -66.667 95 -86s78 -29 124 -29c56 0 101.667 14.333 137 43s53 65 53 109c0 43.333 -16 79.833 -48 109.5s-71 44.5 -117 44.5c-44 0 -84.833 -14.667 -122.5 -44s-78.167 -78.333 -121.5 -147zM730.999 653
c-27.333 38.667 -59.001 67.5 -95.001 86.5s-77.333 28.5 -124 28.5c-56 0 -101.333 -14.333 -136 -43s-52 -65.667 -52 -111c0 -42.667 15.833 -78.5 47.5 -107.5s70.834 -43.5 117.501 -43.5c44.667 0 85.667 14.667 123 44s77 78 119 146zM855.998 791
c46 85.333 95.667 148.833 149 190.5s111.666 62.5 174.999 62.5c95.333 0 176.833 -42 244.5 -126s101.5 -188 101.5 -312c0 -129.333 -30.167 -234.333 -90.5 -315s-138.166 -121 -233.499 -121c-58.667 0 -113.334 17.667 -164.001 53s-113.334 102.333 -188.001 201
c-44.667 -86 -93.5 -149.833 -146.5 -191.5s-111.5 -62.5 -175.5 -62.5c-96 0 -177.667 42 -245 126s-101 188 -101 312c0 130 29.833 235.167 89.5 315.5s137.167 120.5 232.5 120.5c56.667 0 110.334 -17.667 161.001 -53s114.334 -102 191.001 -200z" />
    <glyph glyph-name="integral" unicode="&#x222b;" horiz-adv-x="1331" 
d="M379 -244c18.667 0 36.668 14 54.001 42s31.333 66 42 114c12.667 61.333 21.334 189.666 26.001 384.999c2.66699 123.333 5.66699 221 9 293c15.333 343.333 63.333 590.666 144 741.999s203.334 227 368.001 227c78.667 0 142 -19.5 190 -58.5s72 -89.167 72 -150.5
c0 -46 -15.333 -83.5 -46 -112.5s-69.334 -43.5 -116.001 -43.5c-44.667 0 -78.334 13.5 -101.001 40.5s-34 66.833 -34 119.5c0 1.33301 0.333008 4.83301 1 10.5s1 10.834 1 15.501c0 17.333 -2.83301 30 -8.5 38s-14.5 12 -26.5 12
c-68.667 0 -110.667 -220.333 -126 -661l-3 -88c-7.33301 -222.667 -19.333 -384.167 -36 -484.5s-41.334 -189.166 -74.001 -266.499c-43.333 -100 -98.833 -175.5 -166.5 -226.5s-146.834 -76.5 -237.501 -76.5c-78.667 0 -141.667 19 -189 57s-71 88.667 -71 152
c0 48 15 86 45 114s70.333 42 121 42c41.333 0 73.5 -12.5 96.5 -37.5s34.5 -59.833 34.5 -104.5c0 -8 -0.333008 -18 -1 -30s-1 -19.667 -1 -23c0 -13.333 2.83301 -23.5 8.5 -30.5s13.834 -10.5 24.501 -10.5z" />
    <glyph glyph-name="approxequal" unicode="&#x2248;" horiz-adv-x="1706" 
d="M1530 309c-70.667 -46 -135.829 -79.667 -195.496 -101s-118.834 -32 -177.501 -32c-58 0 -151.333 21.5 -280 64.5s-234 64.5 -316 64.5c-54.667 0 -112.167 -12.333 -172.5 -37s-130.5 -65 -210.5 -121v299c76.667 49.333 147.667 85.333 213 108s131 34 197 34
c79.333 0 182.166 -21.5 308.499 -64.5s215.833 -64.5 268.5 -64.5c55.333 0 111.666 11.5 168.999 34.5s122.666 61.167 195.999 114.5v-299zM1530 774c-70.667 -46.667 -135.663 -80.5 -194.996 -101.5s-118 -31.5 -176 -31.5c-58.667 0 -152.334 21.5 -281.001 64.5
s-234.334 64.5 -317.001 64.5c-56 0 -113.667 -12 -173 -36s-129.333 -64 -210 -120v299c77.333 48.667 148.666 84.167 213.999 106.5s130.666 33.5 195.999 33.5c79.333 0 182.166 -21.167 308.499 -63.5s215.833 -63.5 268.5 -63.5c56.667 0 113.834 11.667 171.501 35
s122.167 61.333 193.5 114v-301z" />
    <glyph glyph-name="notequal" unicode="&#x2260;" horiz-adv-x="1706" 
d="M1384 1116l-112 -139h180v-260h-358l-172 -211h530v-262h-704l-242 -299l-199 159l113 140h-166v262h340l170 211h-510v260h690l244 301z" />
    <glyph glyph-name="lessequal" unicode="&#x2264;" horiz-adv-x="1706" 
d="M1454 236v-271h-1200v271h1200zM1452 999l-704 -208l704 -209v-281l-1198 371v237l1198 373v-283z" />
    <glyph glyph-name="greaterequal" unicode="&#x2265;" horiz-adv-x="1706" 
d="M1454 236v-271h-1200v271h1200zM1452 909v-237l-1196 -371v281l705 209l-705 208v283z" />
    <glyph glyph-name="lozenge" unicode="&#x25ca;" horiz-adv-x="1012" 
d="M506 1409l-385 -821l385 -821l385 821zM506 1653l500 -1065l-500 -1065l-500 1065z" />
    <glyph glyph-name="apple" unicode="&#xf000;" horiz-adv-x="1618" 
d="M836 1216c-0.666992 4 -1.16699 8.66895 -1.5 14.002s-0.5 13 -0.5 23c0 82.667 31.667 159.167 95 229.5s142 114.166 236 131.499c0.666992 -6.66699 1.16699 -14.334 1.5 -23.001s0.5 -21.667 0.5 -39c0 -87.333 -34.5 -165.5 -103.5 -234.5
s-136.833 -103.5 -203.5 -103.5h-8c-2 0 -4.5 0.333008 -7.5 1s-5.83301 1 -8.5 1zM1505 403.002c-76 -164.667 -144.335 -278.835 -205.002 -342.502s-128.667 -95.5 -204 -95.5c-33.333 0 -77.166 11 -131.499 33s-95.166 33 -122.499 33c-30 0 -73.667 -11 -131 -33
s-99.666 -33 -126.999 -33c-42.667 0 -85.5 14.667 -128.5 44s-86.167 73.333 -129.5 132c-68 93.333 -120.5 191.833 -157.5 295.5s-55.5 203.834 -55.5 300.501c0 146 41.667 264.833 125 356.5s191 137.5 323 137.5c45.333 0 97 -11.333 155 -34s99.333 -34 124 -34
c22.667 0 63.167 11.333 121.5 34s109.166 34 152.499 34c74 0 140.333 -13.167 199 -39.5s112 -67.166 160 -122.499c-68 -43.333 -118.5 -91.833 -151.5 -145.5s-49.5 -114.5 -49.5 -182.5c0 -75.333 20 -142 60 -200s97.667 -104 173 -138z" />
    <glyph glyph-name="fi" unicode="&#xf001;" horiz-adv-x="1460" 
d="M1325 1358c0 -49.333 -21 -90.333 -63 -123s-95.333 -49 -160 -49s-118 16.5 -160 49.5s-63 73.833 -63 122.5s21 89.5 63 122.5s95.333 49.5 160 49.5c64 0 117.167 -16.5 159.5 -49.5s63.5 -73.833 63.5 -122.5zM125 0v251.998c18 5.33301 30.667 19 38 41
s11 61 11 117v452h-49v256h49v43c0 134 28.167 231 84.5 291s147.5 90 273.5 90c39.333 0 77.333 -2.5 114 -7.5s71.334 -12.833 104.001 -23.5v-241c-6 0 -13.333 0.333008 -22 1s-14.334 1 -17.001 1c-38.667 0 -68.167 -11.833 -88.5 -35.5s-30.5 -58.167 -30.5 -103.5
v-15h131v-256h-131v-452c0 -59.333 4 -99.166 12 -119.499s22.333 -33.166 43 -38.499v-252h-522zM1329 398.998c0 -44.667 3.83301 -78.002 11.5 -100.002s20.167 -37.667 37.5 -47v-252h-522v252c18.667 5.33301 32.5 19.5 41.5 42.5s13.5 55.833 13.5 98.5v355
c0 36.667 -4 63.334 -12 80.001s-22.333 29.334 -43 38.001v252h473v-719z" />
    <glyph glyph-name="fl" unicode="&#xf002;" horiz-adv-x="1460" 
d="M125 0v251.998c18 5.33301 30.667 19 38 41s11 61 11 117v452h-49v256h49v43c0 134 28.167 231 84.5 291s147.5 90 273.5 90c39.333 0 77.333 -2.5 114 -7.5s71.334 -12.833 104.001 -23.5v-241c-6 0 -13.333 0.333008 -22 1s-14.334 1 -17.001 1
c-38.667 0 -68.167 -11.833 -88.5 -35.5s-30.5 -58.167 -30.5 -103.5v-15h131v-256h-131v-452c0 -59.333 4 -99.166 12 -119.499s22.333 -33.166 43 -38.499v-252h-522zM1329 398.998c0 -44.667 3.83301 -77.998 11.5 -99.998s20.167 -37.667 37.5 -47v-252h-522v252
c18.667 5.33301 32.5 19.5 41.5 42.5s13.5 55.833 13.5 98.5v758c0 37.333 -4 64.166 -12 80.499s-22.333 29.166 -43 38.499v252h473v-1123z" />
    <glyph glyph-name=".null" horiz-adv-x="0" 
 />
    <glyph glyph-name="nonmarkingreturn" horiz-adv-x="682" 
 />
    </font>
</defs>
</svg>
